<mxfile host="Electron" modified="2024-04-06T14:55:43.207Z" agent="Mozilla/5.0 (X11; Linux x86_64) AppleWebKit/537.36 (KHTML, like Gecko) draw.io/24.1.0 Chrome/120.0.6099.109 Electron/28.1.0 Safari/537.36" etag="VD-Z5Mg0OztaQaNBx858" version="24.1.0" type="device">
  <diagram id="C5RBs43oDa-KdzZeNtuy" name="Page-1">
    <mxGraphModel dx="1114" dy="727" grid="1" gridSize="10" guides="1" tooltips="1" connect="1" arrows="1" fold="1" page="1" pageScale="1" pageWidth="3300" pageHeight="2339" math="0" shadow="0">
      <root>
        <mxCell id="WIyWlLk6GJQsqaUBKTNV-0" />
        <mxCell id="WIyWlLk6GJQsqaUBKTNV-1" parent="WIyWlLk6GJQsqaUBKTNV-0" />
        <mxCell id="meUaEyug3TkI90eewDag-29" value="&lt;font style=&quot;font-size: 25px;&quot;&gt;Module batch&lt;/font&gt;" style="shape=module;align=left;spacingLeft=20;align=center;verticalAlign=top;whiteSpace=wrap;html=1;" parent="WIyWlLk6GJQsqaUBKTNV-1" vertex="1">
          <mxGeometry x="20" y="205.96" width="470" height="674.04" as="geometry" />
        </mxCell>
        <mxCell id="meUaEyug3TkI90eewDag-19" value="&lt;font style=&quot;font-size: 25px;&quot;&gt;Module webapp&lt;/font&gt;" style="shape=module;align=left;spacingLeft=20;align=center;verticalAlign=top;whiteSpace=wrap;html=1;movable=1;resizable=1;rotatable=1;deletable=1;editable=1;locked=0;connectable=1;" parent="WIyWlLk6GJQsqaUBKTNV-1" vertex="1">
          <mxGeometry x="671" y="230" width="2129" height="608" as="geometry" />
        </mxCell>
        <mxCell id="meUaEyug3TkI90eewDag-26" value="" style="shape=folder;fontStyle=1;spacingTop=10;tabWidth=160;tabHeight=31;tabPosition=left;html=1;whiteSpace=wrap;movable=1;resizable=1;rotatable=1;deletable=1;editable=1;locked=0;connectable=1;" parent="WIyWlLk6GJQsqaUBKTNV-1" vertex="1">
          <mxGeometry x="710" y="260" width="1400" height="540" as="geometry" />
        </mxCell>
        <mxCell id="meUaEyug3TkI90eewDag-17" value="&lt;p style=&quot;margin:0px;margin-top:4px;text-align:center;&quot;&gt;&lt;b&gt;Class&lt;/b&gt;&lt;/p&gt;&lt;hr size=&quot;1&quot;/&gt;&lt;p style=&quot;margin:0px;margin-left:4px;&quot;&gt;+ field: Type&lt;/p&gt;&lt;hr size=&quot;1&quot;/&gt;&lt;p style=&quot;margin:0px;margin-left:4px;&quot;&gt;+ method(): Type&lt;/p&gt;" style="verticalAlign=top;align=left;overflow=fill;html=1;whiteSpace=wrap;" parent="WIyWlLk6GJQsqaUBKTNV-1" vertex="1">
          <mxGeometry x="240" y="1150" width="160" height="90" as="geometry" />
        </mxCell>
        <mxCell id="meUaEyug3TkI90eewDag-18" value="&lt;p style=&quot;margin:0px;margin-top:4px;text-align:center;&quot;&gt;&lt;b&gt;UserManager&lt;/b&gt;&lt;/p&gt;&lt;hr size=&quot;1&quot;&gt;&lt;p style=&quot;margin:0px;margin-left:4px;&quot;&gt;- connectedUserList: Map&amp;lt;Integer, User&amp;gt;&lt;/p&gt;&lt;p style=&quot;margin:0px;margin-left:4px;&quot;&gt;&lt;br&gt;&lt;/p&gt;&lt;hr size=&quot;1&quot;&gt;&lt;p style=&quot;margin:0px;margin-left:4px;&quot;&gt;+ logUserConnection(String ipAddress, Timestamp timestamp): UserConnection&lt;/p&gt;" style="verticalAlign=top;align=left;overflow=fill;html=1;whiteSpace=wrap;" parent="WIyWlLk6GJQsqaUBKTNV-1" vertex="1">
          <mxGeometry x="910" y="990" width="440" height="220" as="geometry" />
        </mxCell>
        <mxCell id="meUaEyug3TkI90eewDag-22" value="&lt;font style=&quot;font-size: 25px;&quot;&gt;Module business&lt;/font&gt;" style="shape=module;align=left;spacingLeft=20;align=center;verticalAlign=top;whiteSpace=wrap;html=1;" parent="WIyWlLk6GJQsqaUBKTNV-1" vertex="1">
          <mxGeometry x="60" y="898" width="1630" height="560" as="geometry" />
        </mxCell>
        <mxCell id="meUaEyug3TkI90eewDag-27" value="package webapp.servlet" style="text;html=1;align=center;verticalAlign=middle;resizable=0;points=[];autosize=1;strokeColor=none;fillColor=none;" parent="WIyWlLk6GJQsqaUBKTNV-1" vertex="1">
          <mxGeometry x="709.9982246791" y="259.9970588235294" width="150" height="30" as="geometry" />
        </mxCell>
        <mxCell id="PqHHg7SWkQRDzhW8_tbn-16" value="&lt;p style=&quot;margin: 4px 0px 0px; text-align: center;&quot;&gt;&lt;b&gt;&quot;application scoped bean CDI&lt;/b&gt;&lt;b style=&quot;background-color: initial;&quot;&gt;&quot;&lt;/b&gt;&lt;/p&gt;&lt;p style=&quot;margin: 4px 0px 0px; text-align: center;&quot;&gt;&lt;span style=&quot;text-align: left;&quot;&gt;UserManager&lt;/span&gt;&lt;br&gt;&lt;/p&gt;&lt;hr style=&quot;border-style: solid;&quot; size=&quot;1&quot;&gt;&lt;p style=&quot;margin: 0px 0px 0px 4px;&quot;&gt;-connectedUserList: Map&amp;lt;Integer, User&amp;gt;&lt;/p&gt;&lt;p style=&quot;margin: 0px 0px 0px 4px;&quot;&gt;&lt;br&gt;&lt;/p&gt;&lt;hr size=&quot;1&quot; style=&quot;border-style:solid;&quot;&gt;&lt;p style=&quot;margin:0px;margin-left:4px;&quot;&gt;+logUserConnection(String ipAddress, Timestamp timestamp): UserConnection&lt;/p&gt;&lt;p style=&quot;margin:0px;margin-left:4px;&quot;&gt;+updateUserConnection(UserConnection userConnection): void&lt;/p&gt;&lt;p style=&quot;margin:0px;margin-left:4px;&quot;&gt;+registerUser(String username, String password, String email, String message): User&lt;/p&gt;&lt;p style=&quot;margin:0px;margin-left:4px;&quot;&gt;+authenticateUser(&lt;span style=&quot;background-color: initial;&quot;&gt;String username, String password&lt;/span&gt;&lt;span style=&quot;background-color: initial;&quot;&gt;): User&lt;/span&gt;&lt;/p&gt;&lt;p style=&quot;margin:0px;margin-left:4px;&quot;&gt;&lt;span style=&quot;background-color: initial;&quot;&gt;+disconnectUser(int userId)&lt;/span&gt;&lt;/p&gt;&lt;p style=&quot;margin:0px;margin-left:4px;&quot;&gt;&lt;span style=&quot;background-color: initial;&quot;&gt;+getConnectedUserList():&amp;nbsp;&lt;/span&gt;&lt;span style=&quot;background-color: initial;&quot;&gt;Map&amp;lt;Integer, User&amp;gt;&lt;/span&gt;&lt;/p&gt;" style="verticalAlign=top;align=left;overflow=fill;html=1;whiteSpace=wrap;" parent="WIyWlLk6GJQsqaUBKTNV-1" vertex="1">
          <mxGeometry x="804.42" y="1016.17" width="465.58" height="193.83" as="geometry" />
        </mxCell>
        <mxCell id="PqHHg7SWkQRDzhW8_tbn-19" value="&lt;font style=&quot;font-size: 25px;&quot;&gt;Module model&lt;/font&gt;" style="shape=module;align=left;spacingLeft=20;align=center;verticalAlign=top;whiteSpace=wrap;html=1;" parent="WIyWlLk6GJQsqaUBKTNV-1" vertex="1">
          <mxGeometry x="1730" y="900" width="1510" height="560" as="geometry" />
        </mxCell>
        <mxCell id="PqHHg7SWkQRDzhW8_tbn-20" value="&lt;p style=&quot;margin: 4px 0px 0px; text-align: center;&quot;&gt;&lt;span style=&quot;text-align: left; background-color: initial;&quot;&gt;User&lt;/span&gt;&lt;br&gt;&lt;/p&gt;&lt;hr style=&quot;border-style: solid;&quot; size=&quot;1&quot;&gt;&lt;p style=&quot;margin: 0px 0px 0px 4px;&quot;&gt;-id: int&lt;/p&gt;&lt;p style=&quot;margin: 0px 0px 0px 4px;&quot;&gt;-username: String&lt;/p&gt;&lt;p style=&quot;margin: 0px 0px 0px 4px;&quot;&gt;-passwordHash: String&lt;br&gt;&lt;/p&gt;&lt;p style=&quot;margin: 0px 0px 0px 4px;&quot;&gt;-email: String&lt;br&gt;&lt;/p&gt;&lt;p style=&quot;margin: 0px 0px 0px 4px;&quot;&gt;-message: String&lt;br&gt;&lt;/p&gt;&lt;hr size=&quot;1&quot; style=&quot;border-style:solid;&quot;&gt;&lt;p style=&quot;margin:0px;margin-left:4px;&quot;&gt;+User()&lt;br&gt;&lt;/p&gt;&lt;p style=&quot;margin:0px;margin-left:4px;&quot;&gt;+User(&lt;span style=&quot;background-color: initial;&quot;&gt;String&amp;nbsp;&lt;/span&gt;&lt;span style=&quot;background-color: initial;&quot;&gt;username,&amp;nbsp;&lt;/span&gt;&lt;span style=&quot;background-color: initial;&quot;&gt;String p&lt;/span&gt;&lt;span style=&quot;background-color: initial;&quot;&gt;asswordHash,&amp;nbsp;&lt;/span&gt;&lt;span style=&quot;background-color: initial;&quot;&gt;String&amp;nbsp;&lt;/span&gt;&lt;span style=&quot;background-color: initial;&quot;&gt;email,&amp;nbsp;&lt;/span&gt;&lt;span style=&quot;background-color: initial;&quot;&gt;String&amp;nbsp;&lt;/span&gt;&lt;span style=&quot;background-color: initial;&quot;&gt;message&lt;/span&gt;&lt;span style=&quot;background-color: initial;&quot;&gt;)&lt;/span&gt;&lt;/p&gt;" style="verticalAlign=top;align=left;overflow=fill;html=1;whiteSpace=wrap;" parent="WIyWlLk6GJQsqaUBKTNV-1" vertex="1">
          <mxGeometry x="2160" y="1280" width="420" height="150" as="geometry" />
        </mxCell>
        <mxCell id="PqHHg7SWkQRDzhW8_tbn-21" value="&lt;p style=&quot;margin: 4px 0px 0px; text-align: center;&quot;&gt;&lt;span style=&quot;text-align: left; background-color: initial;&quot;&gt;UserConnection&lt;/span&gt;&lt;br&gt;&lt;/p&gt;&lt;hr style=&quot;border-style: solid;&quot; size=&quot;1&quot;&gt;&lt;p style=&quot;margin: 0px 0px 0px 4px;&quot;&gt;-id: int&lt;/p&gt;&lt;p style=&quot;margin: 0px 0px 0px 4px;&quot;&gt;-ipAddress: String&lt;/p&gt;&lt;p style=&quot;margin: 0px 0px 0px 4px;&quot;&gt;-timestamp: T&lt;span style=&quot;background-color: initial;&quot;&gt;imestamp&lt;/span&gt;&lt;br&gt;&lt;/p&gt;&lt;p style=&quot;margin: 0px 0px 0px 4px;&quot;&gt;-userId: Integer&lt;br&gt;&lt;/p&gt;&lt;p style=&quot;margin: 0px 0px 0px 4px;&quot;&gt;-isAllowed: Boolean&lt;br&gt;&lt;/p&gt;&lt;hr size=&quot;1&quot; style=&quot;border-style:solid;&quot;&gt;&lt;p style=&quot;margin:0px;margin-left:4px;&quot;&gt;+UserConnection()&lt;br&gt;&lt;/p&gt;&lt;p style=&quot;margin:0px;margin-left:4px;&quot;&gt;+UserConnection(&lt;span style=&quot;background-color: initial;&quot;&gt;String&amp;nbsp;&lt;/span&gt;&lt;span style=&quot;background-color: initial;&quot;&gt;ipAddress,&amp;nbsp;&lt;/span&gt;&lt;span style=&quot;background-color: initial;&quot;&gt;Integer&lt;/span&gt;&lt;span style=&quot;background-color: initial;&quot;&gt;&amp;nbsp;&lt;/span&gt;&lt;span style=&quot;background-color: initial;&quot;&gt;userId&lt;/span&gt;&lt;span style=&quot;background-color: initial;&quot;&gt;)&lt;/span&gt;&lt;/p&gt;" style="verticalAlign=top;align=left;overflow=fill;html=1;whiteSpace=wrap;" parent="WIyWlLk6GJQsqaUBKTNV-1" vertex="1">
          <mxGeometry x="1780" y="1130" width="280" height="150" as="geometry" />
        </mxCell>
        <mxCell id="PqHHg7SWkQRDzhW8_tbn-29" value="" style="group" parent="WIyWlLk6GJQsqaUBKTNV-1" vertex="1" connectable="0">
          <mxGeometry x="160" y="990" width="390" height="328" as="geometry" />
        </mxCell>
        <mxCell id="PqHHg7SWkQRDzhW8_tbn-26" value="" style="shape=folder;fontStyle=1;spacingTop=10;tabWidth=160;tabHeight=31;tabPosition=left;html=1;whiteSpace=wrap;" parent="PqHHg7SWkQRDzhW8_tbn-29" vertex="1">
          <mxGeometry width="390.00000000000006" height="328.00000000000006" as="geometry" />
        </mxCell>
        <mxCell id="PqHHg7SWkQRDzhW8_tbn-28" value="package business.ai" style="text;html=1;align=center;verticalAlign=middle;whiteSpace=wrap;rounded=0;" parent="PqHHg7SWkQRDzhW8_tbn-29" vertex="1">
          <mxGeometry x="7" y="5.54" width="136" height="16.34" as="geometry" />
        </mxCell>
        <mxCell id="PqHHg7SWkQRDzhW8_tbn-30" value="&lt;font style=&quot;font-size: 25px;&quot;&gt;OPTIONNEL&lt;/font&gt;&lt;div style=&quot;font-size: 25px;&quot;&gt;&lt;font style=&quot;font-size: 25px;&quot;&gt;Gère l&#39;IA.&lt;/font&gt;&lt;/div&gt;&lt;div style=&quot;font-size: 25px;&quot;&gt;&lt;font style=&quot;font-size: 25px;&quot;&gt;Calcule et fournit le coup à jouer dans une partie.&lt;/font&gt;&lt;/div&gt;" style="text;html=1;align=center;verticalAlign=middle;whiteSpace=wrap;rounded=0;" parent="PqHHg7SWkQRDzhW8_tbn-29" vertex="1">
          <mxGeometry x="45" y="70" width="295" height="230" as="geometry" />
        </mxCell>
        <mxCell id="PqHHg7SWkQRDzhW8_tbn-31" value="&lt;font style=&quot;font-size: 25px;&quot;&gt;Module consumer&lt;/font&gt;" style="shape=module;align=left;spacingLeft=20;align=center;verticalAlign=top;whiteSpace=wrap;html=1;" parent="WIyWlLk6GJQsqaUBKTNV-1" vertex="1">
          <mxGeometry x="80" y="1540" width="1310" height="560" as="geometry" />
        </mxCell>
        <mxCell id="PqHHg7SWkQRDzhW8_tbn-32" value="" style="group" parent="WIyWlLk6GJQsqaUBKTNV-1" vertex="1" connectable="0">
          <mxGeometry x="110" y="1570" width="600" height="490" as="geometry" />
        </mxCell>
        <mxCell id="PqHHg7SWkQRDzhW8_tbn-33" value="" style="shape=folder;fontStyle=1;spacingTop=10;tabWidth=160;tabHeight=31;tabPosition=left;html=1;whiteSpace=wrap;" parent="PqHHg7SWkQRDzhW8_tbn-32" vertex="1">
          <mxGeometry width="600.0000000000001" height="490.00000000000006" as="geometry" />
        </mxCell>
        <mxCell id="PqHHg7SWkQRDzhW8_tbn-34" value="package consumer.api" style="text;html=1;align=center;verticalAlign=middle;whiteSpace=wrap;rounded=0;" parent="PqHHg7SWkQRDzhW8_tbn-32" vertex="1">
          <mxGeometry x="-21.427197802197803" y="8.276219512195121" width="209.2307692307692" height="24.410365853658536" as="geometry" />
        </mxCell>
        <mxCell id="PqHHg7SWkQRDzhW8_tbn-40" value="" style="group" parent="WIyWlLk6GJQsqaUBKTNV-1" vertex="1" connectable="0">
          <mxGeometry x="130" y="1650" width="550" height="328" as="geometry" />
        </mxCell>
        <mxCell id="PqHHg7SWkQRDzhW8_tbn-41" value="" style="shape=folder;fontStyle=1;spacingTop=10;tabWidth=160;tabHeight=31;tabPosition=left;html=1;whiteSpace=wrap;" parent="PqHHg7SWkQRDzhW8_tbn-40" vertex="1">
          <mxGeometry x="-11.458333333333332" width="561.4583333333333" height="328" as="geometry" />
        </mxCell>
        <mxCell id="PqHHg7SWkQRDzhW8_tbn-42" value="package consumer.api.abuseipdb" style="text;html=1;align=center;verticalAlign=middle;whiteSpace=wrap;rounded=0;" parent="PqHHg7SWkQRDzhW8_tbn-40" vertex="1">
          <mxGeometry x="8.020833333333332" y="5.54" width="155.83333333333331" height="16.34" as="geometry" />
        </mxCell>
        <mxCell id="PqHHg7SWkQRDzhW8_tbn-43" value="&lt;font style=&quot;font-size: 25px;&quot;&gt;NON DÉTAILLÉ&lt;/font&gt;&lt;div style=&quot;font-size: 25px;&quot;&gt;Gère la communication avec l&#39;API AbuseIpDb.&lt;/div&gt;&lt;div style=&quot;font-size: 25px;&quot;&gt;Détermine si une IP est autorisée.&lt;/div&gt;" style="text;html=1;align=center;verticalAlign=middle;whiteSpace=wrap;rounded=0;" parent="PqHHg7SWkQRDzhW8_tbn-40" vertex="1">
          <mxGeometry x="-1" y="70" width="538.5416666666666" height="230" as="geometry" />
        </mxCell>
        <mxCell id="PqHHg7SWkQRDzhW8_tbn-45" value="&lt;font style=&quot;font-size: 50px;&quot;&gt;Diagramme des classes partiel décrivant l&#39;intégration du module batch et&lt;/font&gt;&lt;div&gt;&lt;font style=&quot;font-size: 50px;&quot;&gt;de la classe CurrentModel représentant les activités en cours des utilisateurs&lt;/font&gt;&lt;/div&gt;" style="text;strokeColor=none;fillColor=none;html=1;fontSize=24;fontStyle=1;verticalAlign=middle;align=center;" parent="WIyWlLk6GJQsqaUBKTNV-1" vertex="1">
          <mxGeometry x="740" y="40" width="1610" height="120" as="geometry" />
        </mxCell>
        <mxCell id="PqHHg7SWkQRDzhW8_tbn-66" value="@Inject" style="endArrow=open;endSize=12;dashed=1;html=1;rounded=0;entryX=0.873;entryY=-0.006;entryDx=0;entryDy=0;entryPerimeter=0;" parent="WIyWlLk6GJQsqaUBKTNV-1" source="meUaEyug3TkI90eewDag-36" target="PqHHg7SWkQRDzhW8_tbn-16" edge="1">
          <mxGeometry width="160" relative="1" as="geometry">
            <mxPoint x="630" y="520" as="sourcePoint" />
            <mxPoint x="790" y="520" as="targetPoint" />
          </mxGeometry>
        </mxCell>
        <mxCell id="PqHHg7SWkQRDzhW8_tbn-76" value="Use" style="endArrow=open;endSize=12;dashed=1;html=1;rounded=0;entryX=0.417;entryY=0.101;entryDx=0;entryDy=0;entryPerimeter=0;exitX=0.75;exitY=1;exitDx=0;exitDy=0;" parent="WIyWlLk6GJQsqaUBKTNV-1" source="PqHHg7SWkQRDzhW8_tbn-16" target="PqHHg7SWkQRDzhW8_tbn-37" edge="1">
          <mxGeometry width="160" relative="1" as="geometry">
            <mxPoint x="1020" y="1500" as="sourcePoint" />
            <mxPoint x="1100" y="1820" as="targetPoint" />
          </mxGeometry>
        </mxCell>
        <mxCell id="PqHHg7SWkQRDzhW8_tbn-84" value="" style="endArrow=diamondThin;endFill=1;endSize=24;html=1;rounded=0;entryX=0.999;entryY=0.18;entryDx=0;entryDy=0;entryPerimeter=0;exitX=0;exitY=0;exitDx=0;exitDy=0;" parent="WIyWlLk6GJQsqaUBKTNV-1" source="9VJXzauV7f5AglM0kGEg-22" target="PqHHg7SWkQRDzhW8_tbn-16" edge="1">
          <mxGeometry width="160" relative="1" as="geometry">
            <mxPoint x="1830" y="970" as="sourcePoint" />
            <mxPoint x="1510" y="1270" as="targetPoint" />
          </mxGeometry>
        </mxCell>
        <mxCell id="PqHHg7SWkQRDzhW8_tbn-85" value="Use" style="endArrow=open;endSize=12;dashed=1;html=1;rounded=0;entryX=1.008;entryY=0.153;entryDx=0;entryDy=0;entryPerimeter=0;exitX=0;exitY=0.198;exitDx=0;exitDy=0;exitPerimeter=0;" parent="WIyWlLk6GJQsqaUBKTNV-1" source="PqHHg7SWkQRDzhW8_tbn-37" target="PqHHg7SWkQRDzhW8_tbn-41" edge="1">
          <mxGeometry width="160" relative="1" as="geometry">
            <mxPoint x="1040" y="1500" as="sourcePoint" />
            <mxPoint x="1040" y="1940" as="targetPoint" />
          </mxGeometry>
        </mxCell>
        <mxCell id="PqHHg7SWkQRDzhW8_tbn-86" value="Use" style="endArrow=open;endSize=12;dashed=1;html=1;rounded=0;entryX=0;entryY=0.75;entryDx=0;entryDy=0;exitX=0.86;exitY=0.104;exitDx=0;exitDy=0;exitPerimeter=0;" parent="WIyWlLk6GJQsqaUBKTNV-1" source="PqHHg7SWkQRDzhW8_tbn-37" target="PqHHg7SWkQRDzhW8_tbn-20" edge="1">
          <mxGeometry width="160" relative="1" as="geometry">
            <mxPoint x="1900" y="1510" as="sourcePoint" />
            <mxPoint x="2074" y="1963" as="targetPoint" />
          </mxGeometry>
        </mxCell>
        <mxCell id="PqHHg7SWkQRDzhW8_tbn-75" value="Use" style="endArrow=open;endSize=12;dashed=1;html=1;rounded=0;exitX=0.5;exitY=1;exitDx=0;exitDy=0;entryX=0.483;entryY=0.097;entryDx=0;entryDy=0;entryPerimeter=0;exitPerimeter=0;" parent="WIyWlLk6GJQsqaUBKTNV-1" source="9VJXzauV7f5AglM0kGEg-10" target="PqHHg7SWkQRDzhW8_tbn-26" edge="1">
          <mxGeometry width="160" relative="1" as="geometry">
            <mxPoint x="210" y="900" as="sourcePoint" />
            <mxPoint x="370" y="900" as="targetPoint" />
          </mxGeometry>
        </mxCell>
        <mxCell id="PqHHg7SWkQRDzhW8_tbn-87" value="Use" style="endArrow=open;endSize=12;dashed=1;html=1;rounded=0;entryX=-0.001;entryY=0.082;entryDx=0;entryDy=0;exitX=0.648;exitY=0.095;exitDx=0;exitDy=0;exitPerimeter=0;entryPerimeter=0;" parent="WIyWlLk6GJQsqaUBKTNV-1" source="PqHHg7SWkQRDzhW8_tbn-37" target="PqHHg7SWkQRDzhW8_tbn-21" edge="1">
          <mxGeometry width="160" relative="1" as="geometry">
            <mxPoint x="1980" y="1520" as="sourcePoint" />
            <mxPoint x="2561" y="967" as="targetPoint" />
          </mxGeometry>
        </mxCell>
        <mxCell id="y-TM4PaC9Gw5QKrrRANq-0" value="" style="shape=image;imageAspect=0;aspect=fixed;verticalLabelPosition=bottom;verticalAlign=top;image=data:image/png,iVBORw0KGgoAAAANSUhEUgAAA0kAAAKKCAIAAABnEIe5AAAABmJLR0QA/wD/AP+gvaeTAAAgAElEQVR4nOzdaVwT19oA8JOFJECAoIAgYROwKPsiuCGgWLSIW4sVFdteXGq9r1pvaxftRa+iVm+r3aTY0k0RFKyiqKCitbixqAgaZBMQ2WUL2ZOZeT/MvblpEkJA3PD5f+hvcnLmOWeCJQ9nZp6hEASBAAAAAADAkEB91hMAAAAAAACDBnI7AAAAAIChA3I7AAAAAIChA3I7AAAAAIChA3I7AAAAAIChA3I7AAAAAIChA3I7AAAAAIChA3I7AAAAAIChA3I7AAAAAIChg/6sJwAAAACA55dIJCosLOzo4lMpFBqsCD11GI5wAjc3MwsMHGdkZKTPLhR45hgAAAAAtMrPz29uaZUzTIR0MznNEKNQEaI860m9VAgagRtgYmNFN13WYzNiRFBQYJ/7QG4HAAAAAC3Onjsvkso7jOzkVOazngtABrhkmKiezWKGh0/T3RNWVwEAAACg7vr16yKJrM3YCRK754ScymozdhJIpPn5+bp7Qm4HAAAAgL8QiUQtrW0dxvY4hfas5wL+B6fQO43smltaRSKRjm5wThYAAAAAf3Hp0qU2MdHOslVtTP6nvM8dh1kzJs+pNR1myTTU66p/MADDxQ8tjaghISG9dYD7ZAEAAADwFx1dfKExV61xtA+HSkUUCgUhhMh1IQpCxH/+ixMEQSA2h3a38LL7uMmWtg5Pe9IvDRGD09H1UEcHyO0AAAAA8BdUCpLTWGqNC961mj2WjhDCCbIwB8JwAsORgkAKDClwQqZAF8tFB7+sk3j4PYtZ68LvfEQ3YBixTVse1qZ88dmk194Imj7nWU9qgKRUlpnOm5UhtwMAAADAX9CoFEzjSjsKQfSIFA9aRXKMoNGoZsYGTZ0SuYIYbmbY1CGWygkXW1NMrngmE+7ThvkT/UJmrNj89bOeiHYSfnt3Q7XWt8xsnVmmw1VbcAqNRtWV3EFuBwAAAABN6tkDThAYgSRyXCrD6HQai0EXS3GpgmDLcaEUl0nlPWKxXCbrLZxcKrl+9njrw1prB+fxr86j0ekIIUyhKDh/orG20tzSOjB8NtvMvKO1Mf9sppv/xOYH9xtrKl7xHe8RFKK1kQwr5HddzznW9ajFxSvAe1K41oHuFvyJEOpsbaq9V2puaT3Gf+Jwa67W0RFCvY3V1vig4PxJibCH6+wWMHUWOf/BwjQ2a624JRf1qLUbGLItXH01uvdRYpC2efPmQZsaAAAAAF58FRUVPQwLtUYjpok9h9rWJZXICUTgDIZBZ49cKlewWIwOvkwul7INDRo7pPduXeC6jDEbZqm6r0Ih37nqjfyzmYLuzqtnjtbeKwmaPgfHsS/XLrl47IBEKLjxx5krp9LHTY181PTwlx0b7ly/VHL1QkVxQcH5Ey5eAWKhQLPRwsZOyO/atmz2nYI/e7o6Lh47YGRqZuc6VnOgU79911B9Ty6TciysTDjDfvzX+5Yj7Z09/DRHNzQ2qa8q0xyLQqFujYt6UHFX0N2Zd/JwU12Vf+jMQfzAKVQqncHqbqhSa7cLmGY83Fqzv6msffTo0b1FgxooAAAAAOgbhuHkBXYYjhT4f66xU2BIjiGFskWBad33xoVTDffLF/zfps2/Zs9YvLK27HZb44Nbf+ZU3705c/G7//z51Kpt+3q62nNS95P97V3H/vt4/qpt+xBCFcX5vTX+cfxgZ1vz+1/+Fv/Lac8JYUcTd149naE50Duf7EIIveI7PiJmhXJKOkbXHKv6zg2pWBQ2f+kn3/++4O8bjU05BIEP7sc73MndaNgI1RYjc6vhjmMHEApyOwAAAAD0DVcoMBxhBMJwhOGEnCAU/8nqlBsIV2i/3q6hpgIh5OLpjxCau+wfX54sshxpX19VhhDyDYlACLn5TWQZGZMtCCE3/4k0Op3r/ApCSC6T9tb4sLocIfTb55/862+zastKMIWiuvSG5kBap6RjdM2xRvsEGZtyTv781T/mjCsvvj4hYh6FMtgZFIVi6xuq2mDrG4ooA3nCG1xvBwAAAIC+4ZhCjiE5huQYRhBIoUAyDCkwXKbAFRiuwAg5RmC95HYGDCZCSCToQQh1t7e1PKyxdx3LNDRGCAm6OxFCMqlYJpUwWIZkf4q2nEazkUanU2m011d9pHyrrOiq5kAsI7ZmNB2ja47FsRix48il0mt/3L6SW5x3ruTqhd3HrhubmPX5ofWLiZUdh+vS9bAKIcSxczUZoT0r7ROs2wEAAACgbwo5JseRWKaQSaUSqUwskcikUplMKhZLZHKpQq6QYwTWyzlZF88AhNDlrMMt9TU/Jfzjqw/exjHMzXc8QuhCxi9tDXU5qT/gGObmN6FfU3L1GodjmKC7k+sypjA36/iPe1y8/DUHQghRKFQhvwvH/ze9fo1+6rdv42MjDBiM19/9yHvyNBzDRD3d/Zqqnmx9QylUGoVKHek9ZcBBYN0OAAAAAH1TKDCFAmPSMIKGIwpSyGV0KoZohEIuo1NxigEVwxGBac/txgRMCpsfe/H3A9fPHqfTDRau+aeRiZnTWJ/Zf1uX9cs3ny2ZjhDyCZ4+7Y237/OK9Z/S5MgFdwv+/Hn7hwghlpHxovX/8p4UrjkQQmiM/0Re0eVDX/5zyuwYcl+to/c2UND0Odeyj+3buAohRKFQQuct6e1U72NisjmWrj6IQmGZmA84CDxzDAAAAAB/kZWV1cB+Ra2RJmVO9RshFMskErkCJzCCKseRQoEpCApGUDAcUagGd+/U5J7YMz5inp3LGM2wnW3N7U0PR9g7mXD+V7Ctp6ujpb6GYzHCwkb9SRh6an1Y29PVYTtqtPLcq+ZABIHXld81G25pbvmX2071Hx3HscaaSlFPt8VIu2FWIwc2VX0oZBKEEJ2hXjtala2gfNasWb29C+t2AAAAAOjbow7x6av1GHm7LEEQOCIIAifIbQqBCISQWCTVEcHc0lottUIImXCGmXCGPc7ErLiOVlxH3QNRKFRHN0/NffUfnUqlcZ3dHmOa+tKd1ekVYVDmAQAAAIChTYHXX7l4ua2hTnc3S1sHlqHR05kS0ApyOwAAAAD0zXSYpfu4yX0+K5ZlaGT618LF4CmD3A4AAAAAfWMaGlnaOjzrWYC+QQ0UAAAAAIChA3I7AAAAAIChA3I7AAAAAIChA663AwAAAIA6W0H5s54CGCDI7QAAAADwFzdu3IiPj3/WswC92rJli47axXBOFgAAAABg6IDcDgAAAABg6IDcDgAAAABg6IDr7QAAAACgF1nXWQoho5lFUKkGz3ouoFeQ2wEAAACgb7L2X3B+NqLIcNEdnLOcaWhOpf7v7B9BEARBqLUghCgUimoQDMNoNJrqhmo7hmFqg1IoFNWYQB/weQEAAACgDwrBDUKcRaM10egE5VESvzFVLBardjh79uzixYtVW3bt2vX111+rxeFyudXV1eXl5XQ6PTs7W9nu5ubW0NAQHR3t6OjI5XKZTKajo6Ojo+MXX3zx5A5qqIJ1OwAAAAD0AROW0IzYFFknIZXREF3YfBxnv25oaKhcVAsODvbx8dE/oLm5+erVq0tKSoyNjZWNv//+O0Korq5u8uTJ9fX1g3sILw9YtwMAAABAH+hsf7mgBWEyivC+VCZu6HaTSqXkWVcSj8dLTEwkCGLLli3u7u7h4eGVlZU6Ajo7O0dFRW3atOnJz/2lA7kdAAAAAPpAM/aSyRwRQSgE3Q+7LEX06SwWS/Vauu7u7vLy8tTU1KysrGvXriUnJx8/flx3zG3btp04caKgoOAJz/2lA7kdAAAAAPpGM/RHFJpUJq2XzOPauZiammre5ZCdnR0bG2tqaurg4PDqq6/qDshms7/99tvly5fL5fInNuuXEeR2AAAAAOgbnU5HFIQQjownWllZsVgszT4SicTCwoLctrKy6jPmzJkzPTw8du/ePbhTfclBbgcAAAAAfVGQgsViMRgMraVJfH19T506hRDCcTwnJ0efgHv37t23b19bW9sgT/QlBrkdAAAAAPpGN/aRS3rElJEGBszeas699957ZWVlERERkyZNcnJy0iespaXljh07uru7B3WyLzWogQIAAACAvtHZPuKuRSITGseQQ6er5w/Tpk2bNm0aQqigoIDH41lbW2s9J9vU1ERuFBYWKhtjY2NjY2OVLx0cHKAAyuOA3A4AAAAAemFY/p+ZscjAwIDBYPTWh06ne3l5Pc1ZATWQ2wEAAABAL0wmk8lkPutZgD7A9XYAAAAAAEMH5HYAAAAAAEMH5HYAAAAAAEMH5HYAAAAAAEMH5HYAAAAAAEMH5HYAAAAAAEMH5HYAAAAAAEMH5HYAAAAAAEMH5HYAAAAAAEMH5HYAAAAAAEMH5HYAAAAAAEMH5HYAAAAA0ItYKr1VWSkUi3EcV3uLIAjNxoEhCIIgCN0tjwPHcbVoGIapbmu+q6QWSiQSNTQ0qPZX66P5chAPpDd0/buKRKLCwsKOLj6VQqFBTvjywXCEE7i5mVlg4DgjI6NnPR0AAABPlUgiuVNf30wQ7VVVPra25mZmNBpN+e7Zs2d/+eWX1NTUxx9o165dLBZr7dq1Oloex/bt22tra3/88Ufy5d27d8PDwxsaGqhUanV1tYuLy4YNGz7//HNlfxaLZWVlRaVSMQyj0+mfffbZ8uXLm5qa3nnnncrKShMTk66urp9++mnq1KktLS1ubm6dnZ3KfS0sLKqqqoYPH44Q0hr8SdA3t8vPz29uaZUzTITGXDnNEKNQEaI80ZmB5wxBI3ADTIxJus+ez7UZMSIoKPBZTwkAAMBTIpJISh886GIyOVxuZVVVZ1VViLPzcA5Hmd4FBwf7+Pg820nqafHixf7+/vv27WMwGAihjIyMN998k0qlIoRSUlIiIyNTU1N37txJofwvz6moqDA2NkYIXb58OSwsbOHChW+99VZkZGR2djZC6Nq1a/PmzXvw4IHucXsLPuj0Wn87e+58U1tHO9upnWUrobMxCg0Su5cPBaPQJHR2O8u2g+3Y1Pbo/PncZz0lAAAAT4MysTO1txdTqYYuLmWmpmeqqx91dSnPOfJ4vMTExMzMzK+++mrWrFnu7u4bN27UcZZ269atnp6erq6un3zyCUKIIIgtW7a4u7uHh4dXVlZqbSktLU1ISHj77be3b9+OEEpPTw8ICAgMDExKSkIIicXiDz74wM/Pb+7cuQUFBWovVYd2cnJyd3fPyckhXx49ejQmJobcTklJSUhIMDMzy8vL0zptPz8/Op1eVFTU1NSkXEecMGHCtm3bOjo6dH+MfQYfLH2v212/fl0kkbWxR+EUWp+dwctATmW1GTshYU1+fn5QUNCzng4AAIAn62ZlZbeJCcfevgehLoQ6KBTk7Fx4+7ZJefl0T08TExOEUHd3d3l5uY2NTXx8fGFhoY2NzcyZMw8cOPDWW29pBqyrqzt27Njly5epVKqvr29cXFxBQUFWVta1a9c6Ozv9/f09PT1TU1PVWvh8/s6dO9PS0qZNm3b37t0NGzacPn3ayMho/vz59vb29fX19fX1+fn5mZmZSUlJQUFBqi8DA/9yrmnJkiWpqalRUVEVFRUCgYD8LissLGQymd7e3gsWLDh06NCUKVOU/dPS0lgslkQiycrKWrNmTV1dnVrAZcuWIYRaWlrEYvGHH36obBeLxeSGjuCDro91O5FI1NLa1mFsD4kdUIVT6J1Gds0trSKR6FnPBQAAwBNGEEKZrBvHOxBqI4gOHBcIBDShkN/ZKRAI1PqGhoa6urqy2eylS5cq18bUODg4XL16lcfjpaWl8fl8oVCYnZ0dGxtramrq4ODw6quvIoQ0WxBC/v7+kZGRLBYrKyvLw8ODx+MVFRWNHTs2KyvLy8vr+vXrSUlJAQEBycnJai/VJhAdHZ2TkyMSiTIyMhYuXEg2pqSkeHt75+bmWlhYpKeny+VyZf+SkpLi4uLS0tKKigobGxuZTKZ6raEqGo0WoELZTUfwQdfHul1hYaGcYSKnMlUbk//Z94SGWTMmz6k1HWbJNISL7ocmGZUlN2AXFhaGhIQ867kAAAB4gnxcXPhlZTVVVYSLSwdB9PD5stJS59ZWNzs78jI1VRYWFuTGiBEjenp6tAbk8Xivv/56eHh4UFCQi4sLQkgikSh3tLKy0tqCEDI3Nyc3BAIBjUZrbm5GCI0fP97NzW38+PHHjx/PyMiIioqaNm3a3r171V6qTmDYsGEhISEnT57MyMj49ddfEUIYhqWlpUVGRmZkZCCEjI2Ns7Ozo6KiyP7bt28nr7errq4eN27ciRMn9u/frxpw3rx5b7/99vjx4xkMxptvvqlsf/fdd/sMPuj6WLfr6OIL6WZqjaN9OG5+nDH+5mP8zcf4mY/x+++Gv/kYP/NXfDmjfTiObiZ3Cy/zO9qe0LzB80DE4HR08Z/1LAAAADxZRixWoJOTVXd3Q2VlD58vv3NnVEuLr7W1tbU1eUJW1fnz5xUKBUIoKyurt7srMjMz58yZ880338TExLS0tCCEfH19T506hRDCcZxc7dNsUeXr6yuXy1evXr169eqOjg5DQ8P9+/dXVlYmJCRcu3YtOTk5KSlJ9aVm5ZElS5bs2rVLJpN5enqS07a1tU1OTk5MTExMTFy1atWhQ4c0Z+7s7Mzn88eNG4cQ+vnnn8nGoqKiS5cuTZgwobcPUEfwxsZGPp9PHmZ1dTV5hSKfz29sbOwtWp/6WLejUpCcxlJrXPCu1eyxdIQQTpB1MRCGExiOFARSYEiBEzIFulguOvhlncTDb8AzA88/KZVlBjfVAADAUEelUs3NzEKcnUXV1eVdXU7t7V4jR3K5XCsrK0NDQ7XOw4cPDw4OHjZs2IMHDy5evKg1YGhoaGxsbHt7e1NT04gRIxISEn744YewsLCIiAg+n+/k5IQQeu+999RaVM2dO/fAgQPBwcHGxsYSiWTjxo1UKjUqKurgwYOtra0rVqzw9vZWfal5X2pkZGRcXNwHH3xAvkxJSVHeUYEQWrBgwbZt2wQCAZvNVtvRwcHh0qVLBw8eXLBgwb59+0xNTcvKypKSkqysrMg8VZOO4G+99dYbb7yxcuXKzs5OFxeXR48eDR8+PDU1NSMj49y5c1qj9Ymiu4ZeVlZWA3u02l2xIy0dQ50oD1pFcoyg0ahmxgZNnRK5ghhuZtjUIZbKCRdb0z/LBanfvD8+Yp6dy5iBzQw8ExJ+e3dDtda3zGydWabD/9pG2AoqZs2a9RQmBgAA4KnZsmVLfHy8WiOGYY+6um7V1NgYGHA4HEtLS0NDQ7WcKSkp6eHDh2vWrGloaHB3dzcwMOhtCJlMxuPx3NzcFArF/fv3vby8FAoFj8eztrZWnoHVbFFTVVUlEok8PDzIU8NdXV2VlZXu7u5kEVa1l4OOXGkTCASjR48mz9g+NVp/QEr61LdTT3VxgsAIJJHjUhlGp9NYDLpYiksVBFuOC6W4TCrvEYvlMpnWWG0NdUUXT3tNnGo76hV+56Mrp9JdvQNdPP3bGh8UnD8pEfZwnd0Cps6i0ekIISG/63rOsa5HLS5eAd6TwhFCHa2N+WczxwRM6mprMTI1M7e01twLPA6msVlrxS25SP0KCQNDtoWrr0Z3WLUDAICXBY1Gs+Bwpowdq1AoGAwGk8nsrUibpaWlpaUluV1bW/vdd9+pdYiJifHz81OesfXy8kII0el0ckNJs0UNea2eEofDIc+Wan056KhUqqur65OLP2ADSYZwDMNwulyBSxUETihkGEMqJ6RyhVRBSGW4XC6TSJmYQvv9Fs31NZnJeziW1rajXuF3PMpM3jMn7n1zS+tty2YbMJgcixHn03+5ffXCis1fC/ld25bNFgn4w6xGnjvy04L/2zR1/tJHTQ8zk/fcyb9UfefmtDfevnzqiNpej/dpAESh0Ud6TqrLz1ZrH+kdTKP3+ucXAACAlwGNRtO9BhYSEiIUClVbHB0dd+/e/YTnBf5iILkdhuHkBXYYjiiU/1xjp8CQHEMKHClwpMCQQqH+zDUdqu/ckIpFry5cPmPRyj9PpDbWVhIE/sfxg51tzR8nZji6eX336cqjiTvHT59D9hf18D/al/6wqkxzLwoFnob2uIY7ubdV3hJ1/O+iASNzq+GOY5/hlAAAALwQ3NzcnvUUwMDW7RQKDDfACDK3I+QEofhPVqfcQLhCoX/A0T5Bxqackz9/de7wj27+E199cxmFQn1YXY4Q+u3zTxCF0tPZjikULfU1ZP+AqZFOY7zNLa019xrA4QB1FIqtb2hl7mFlg61vKHqST0cBAAAAwGAZ2DlZhRxDcgzJMYwgkEKBZBhSYLhMgSswXIERcozAdOZ2OKZACMkk/ynWzLEYsePIpdJrf9y+klucd67k6oXdx67T6HQqjfb6qo+Up/MtbR0aaysRQobG7N72MjZRr9gCBsDEyo7Ddel6WIUQ4ti5moywf9YzAgAAAIBeBrLQpZBjchyJZQqZVCqRysQSiUwqlcmkYrFEJpcq5Ao5RmC9nJM1MjFFCBVdPF1ZUph96D91/0799m18bIQBg/H6ux95T56GY5iop9vVaxyOYYLuTq7LmMLcrOM/7qH/9XYbrXsN4HCAVra+oRQqjUKljvR+gs9FAQAAAMDgGsi6nUKBKRQYk4YRNBxRkEIuo1MxRCMUchmdilMMqBiOCEx7buf4ipejm2dZ0ZWyoiteE6eSjUHT51zLPrZv4yqEEIVCCZ23xHKk/eTIBXcL/vx5+4cIIZaR8aL1/2IZ/aXGjNa9BnA4QCsmm2Pp6oMoFJaJ+bOeCwAAAAD0NaDcTi43MKBaW7AlEqYCJzCCasVkKRSYgqAwjSgYjihUAwLHte5Lo9M//Obwg4o7bDNzS1sHZfu/Dp5trKkU9XRbjLQbZjWS7PlewvetD2t7ujpsR40mE7vR3oHfX6wgd7GwsdPcCwwia49eS2wDAAAA4Pk0kNzuUYf49NV6jLxdliAIHBEEgRPkNoVABEJILJL2tjuNTncaq/4QEiqVxnXWcnONFdfRiuvYW6je9gKDgs5QfyQJAAAAAJ5zA1q3w+uvXLzc1lCnu5ulrQPL8IlUggYAAAAAAFoNJLczHWbpPm5yn8+KZRkamQ6zHNCsAAAAAADAQAwkt2MaGqleKgcAAAAAAJ4TUOwXAAAAAGDogNwOAAAAAHoRSqWXKysFEgneSzUMhBBBEDrefYYwDeQ8sf9WbcMwjCAItV3IFq07IoQUCsXDhw9VI/TWUzO+juFUQ6n10QfkdgAAAADoW49EUlBXJyKIP6urH3V1YX8tZCuXy0+fPo0QOnv27OLFix9zLGW0QRQdHe3o6MjlcplMpqOjo6Oj4xdffIEQ4nK51dXVd+/epdPp3333nbL/9evX6XT6b7/9hmEYnU53cHBw/K/t27cjhJKSkmxsbKKjo+3s7NasWUMQRG9DIISqq6vpdPrHH39MvtQxHPlSOaK5uXlYWFh9fb3+R9r39Xa2gnL9wwEAAABg6OmRSArr6lgsVpCd3dXq6ov374c4OVlyODQajewgEon+8Y9/vPbaa8HBwT4+6pXO+ksZ7bEn/j+///47Qqiurm7y5MlaUyVLS8sjR478/e9/J1+mp6dbWVkp362rq1MeLEKopaVl/fr1ZWVl9vb2crk8Ojp6//79OoZISUmJjIxMTU3duXMn+TBV3cMhhKqrq5lMpkgkWrZsWXx8/E8//aTnkfaR2924cSM+Pl7PWOAltGXLllmzZj3rWQAAAHiCyMTOkMUKcHAwQCjY2flsVdW5mprpKunde++99+DBg3fffXfZsmVZWVmbN28uLS1NS0urqakpLi5esmSJTCY7duyYu7v7r7/+amBgkJ6e/vnnn1Op1Li4uJUrV4rF4s8+++zChQv29vaffvrpV199RUb7/vvvt27deuTIEYlE8sYbb+zYsUN32MzMzNra2nPnztXU1MydO3fr1q1Uqr6nKB0cHKRS6cOHD7lcLkEQZ86ciYiI6K2zWCxmMBhGRkYIIQMDg927d4vFYh3BU1JSjhw5smTJkry8vClTpug/nJGRUWhoaHp6up5HgQZ2nywAAAAAXh55lZXGJiZkYocQYlKp4S4uv5WWXqqufm3MGBMTE4TQvn37bt68+f333+fm5paXlyOE+Hz+3r17i4uLWSyWk5PTrl27ioqKIiIizp075+DgsGHDhtOnTxsZGc2fP9/e3r6+vr6+vj4/Pz8zMzMpKUkZra6u7tixY5cvX6ZSqb6+vnFxcTrCvvbaa83NzfHx8YWFhTY2NjNnzjxw4MBbb72l/5FGR0enp6e///77+fn53t7exsbGyrc2bNigTBPffPPNgICA2NhYZ2fnWbNmhYeHz50719y810d0FhYWMplMb2/vBQsWHDp0iMztdA+HEDp9+jSDwXjw4MG///3v1atX638UcL0dAAAAAHShIiRVKFRvC+iRSKhSqaCjQyAQ6NgxJCTE1dXVzs7O2tp62bJlBgYGfn5+bW1tWVlZHh4ePB6vqKho7NixWVlZXl5e169fT0pKCggISE5OVkZwcHC4evUqj8dLS0vj8/lCoVBHWHKX0NBQV1dXNpu9dOnSnJycfh1pdHT0kSNHEELp6ekLFixQfcvf3z/gvywsLBBCX3/99d27d8PDw0+cOOHm5pabm9tb2JSUFG9v79zcXAsLi/T0dLlc3udwCKHTp09nZWXxeLx//etf77//vv5HAet2AAAAANBlkrPzhfLyC9XVoc7OhlRqq0iUw+NJGxsDrK11n/FkMpnkBoVCIbfJS80EAgGNRmtubkYIjR8/3s3Nbfz48cePH8/IyIiKipo2bdqWLVvIHXk83uuvvx4eHh4UFOTi4qI7LIlMvBBCI0aM6Onp6deROjg4IIRqampycnISEhLOnj2rfOvNN99Uvd7u8uXLra2t8+fPf+edd955552ff/75yy+/nDZtmmZMDMPS0tIiIyMzMjIQQsbGxtnZ2SAr/EYAACAASURBVKNGjdI9HELo22+/VR5pvwxw3U7WdVbemYXj8oHtDgAAAIAXhTGLNcHBobu7O7u6uk4gOMvjdT186D18uLW1NXlClqR/tQ5fX1+5XL569erVq1d3dHQYGhru37+/srIyISHh2rVrycnJBEGQ0TIzM+fMmfPNN9/ExMS0tLToE/z8+fMKhQIhlJWVNYC7OhYsWLB+/XofHx8WS9dD1cVi8ccff0yuIyKEpFKpqalpb/OxtbVNTk5OTExMTExctWrVoUOH+jtcvwxk3U7W/gvOz0YUGS66g3OWMw3NVdN28ueh1oL+mlMjhDAMI/Nf5YZqu9qd1eTu+l8OCQAAAIDBQqVSh5uZhTo5na2pudjTI21p8bWw4HK5VlZWhoaGZB9DQ8POzs5du3b5+/v3GXDu3LkHDhwIDg42NjaWSCQbN26kUqlRUVEHDx5sbW1dsWKFkZERGS00NDQ2Nra9vb2pqWnEiBEJCQlr167VHXz48OHBwcHDhg178ODBxYsX+3uw0dHR//jHP44fP67Wbmtrq8xkJk6cePTo0UWLFrm5ufn6+vb09LS1tZ08eVJrwJSUlJiYGOXLBQsWbNu2bf369bqHeyyETps3b1ZrkfcUSepfl9VNkdXPlRY7Nld8IxAIVDtkZ2cvXLhQtWXnzp179+5Vi2NtbV1VVXXv3j2E0JkzZ5TtLi4uDx8+nDdvHpfLtba2ptFoXC6Xy+Xu2rVL91TBM6H5LwQAgiAyMzNnzJhx9uzZTZs2Peu59EqhUBAEUV5evnLlymc9l8eieQgCgWDWrFnPaj5gCND6u12hUDQ9enTy5s3i4uLa2lqhUIjjuGqHxsbGO3fu6D9KZWXl7du3yfK8BEF0dnYWFBQIhUK1aFKp9NatW2KxuKen5/bt27pjfv/995s2bWptbb1165ZMJtN/MgPT09NTVFR079495VE8Hbq/fPu9bocJS2hGbIqsk5DKaIgubD6Os183NDRULqr1t7CNubn56tWrS0pKVG8P6bMIDQDgebZ+/foff/xRIBDcuXPnWc+lVywWSyKRsNlsb2/vZz2Xx6J5CAqF4vLly89qPmCootFolhzOVENDhULBYDCYTKbaGTkbGxsbGxv9AyqvnyNxOJxx48ZpRmMwGMq8wsvLS5/IlpaWlpaW+s9kwNhstj7rlE9Zv89y0tn+ckELwmQU4X2pTNzQ7SaVSgmVU+w8Hi8xMZEgiC1btri7u4eHh1dWVuoI6OzsHBUVtWnTpoFMHwDw/Ll+/Xpzc3PXX8vWX79+vbq6urddpFLp0aNHf/zxx9raWrJFLpcfP378+++/V2aHQqEwPz+/tbX1119/vXDhAoZhmi1kT4IgsrOzf/jhh6qqqt6GuHLlCo7jOTk5hoaGyq8NtUF7i19fX5+UlPTjjz+2trb2dkTd3d3Xr19X29bcUXOqAoGgsLCwoaEhJSVFz7HYbDZ5CN3d3SkpKSkpKV1dXb11BuBx0Gg0IyMjU1NTFoulltg9J0JCQubOnfusZ/GM9Tu3oxl7yWSOiCAUgu6HXZYi+nS1H3B3d3d5eXlqampWVhZ5RWSfZ5G3bdt24sSJgoKCfk8fAPD8uXnzpkKhyMvLIy9nRgh98803a9euHT58uNb+crk8JCTk8OHDt27dmjBhQnFxMYZhYWFhP/zwQ319/cyZM8ks5+HDh0uXLl21alVjY+P777+/cuVKzRYyYHR09JdffllfXx8REZGWlqZ1iMLCQoIgLl26VF5evmbNGoSQ5qBa41dUVPj6+vJ4vLy8PB8fn97uwrt3756yZgG5rXVHzanW1dXFxcXNnz//5s2beo5VWVm5Zs0aPp8fEBCQnp5+48aN2bNnD/CHB8ALzs3N7TlcSHvKBnIvBc3QHyGeVCatl8zjjnIxNTXVvMshOzs7NjbW1NTU1NT01Vdf1R2QzWZ/++23y5cvLyoqGsB8AADPlffee2/jxo3/+te//vjjD4TQV199dfDgwfPnz5uZmWntn5aWxuFwyCJPTk5Oly5dqq6uxnH81KlTCKHIyMiFCxeSj6esqKg4efLk6NGjg4ODV6xYobXljz/+KCwsrKmpoVKpM2bMmDFjxhtvvKE5xLp16z788MPt27cXFxeT0zh+/LjaoOfOndOMX1BQ4OXl9dVXXyGEvv32W6FQqHqfoA6aO964cUNzqgghHo9XWVnp5OR08OBB/cfav3//2LFjyb+lf/nll35VwwIADCUDye3odDrCEEI4Mp5oZWWl9a5diUSiLDCj9nw0rWbOnHnw4MHdu3cPYD4AgOfWpUuXSktL2Wy2Wr11VTdv3gwJCSG3P/jgA4RQfHz81KlTyZYJEya0traSJxnt7OxGjx6NELK0tCQvBdFsuXHjBoPBiIuLQwjhOC4UChsbGzWH0FRSUqI2KJ/P14wfGRkZHx/v4+MTGRm5YMECa2trPT8KzR1TUlI0p4oQ4nK5Tk5O/R2rpKRkxowZ5LbyQAAAL6GBVxWhIAWLxWIwGFpLk/j6+pJ//pJXtOgTcO/evfv27VPWlQYADAEODg6lpaVGRkZ79uzprQ+VSlXWuxcIBA0NDQwGQyaTkS04juM4TqfTEUKaCaJmC41GGzdu3Lp169atW7d+/fqbN2+OGDFCcwjNaWgdVDO+ubl5RUXFN998Q6FQpk6dWlhY2OeHQP5a09xR61QRQsqiEv0ai8ViKedP5ogAgJfTQHI7urGPXNIjpow0MGD2VnPuvffeKysri4iImDRpEvkHaJ8sLS137NjR3d09gCkBAJ5Pjo6OZFXShIQE5X0SaiZOnJiZmUlenPfRRx/9+9//Hj9+fGZmJvng7YyMjDFjxrDZbD1HnDhx4o0bN5ycnLy9vdvb21euXMlkMjWHIDur3gemOSj5FHA1X375ZXx8fHBw8LZt28LCwnq7HZVOp9fW1pK3X5BVrzR31DrVAYylPPBDhw6R6d0g18oCALxQBnROlu0j7lokMqFxDDnkH9Oqpk2bRj5zo6CggMfjWVtbaz0n29TURG6o/iUaGxsbGxurfOng4AAFUAAYAjw8PFatWrVq1aozZ85ovjt//vz09HRvb29zc/OGhoa8vDwulztlyhRPT083N7dbt26R18npKTAwcPbs2R4eHu7u7jdv3vzpp5+0DoEQ4nK5MTExygqi06ZN02fQyMjISZMmkc84b2tr+/rrr7V2c3d3t7KyCgwMtLW1HTlypNYdR44cqTnVAYxFWrx48eHDhz09PblcLofDUS7+AQBeNhRC5xNCtmzZEh8fr9kulUpFIpGBgYGhoaHqUyXAy6a3fyEA9FdFRUV7e7uvr6/yEt779++3tLR4enrqv2in9ODBg7q6Og8PD3Nz896GePToUVlZ2aRJk1TPP+gzqEAguH37NpPJ9PHx0fz7VlVJSQmHw7G3t9exo9apDmAshBBBEDweD8dxDw+P57M+BXhRwO/255zuH9BA1u0QQkwmc2DPrwUAvLRqa2vJaiaqmEwmeXMDecuCqlGjRpGP0x4Ae3t7ZUalpDaEhYVFcHDwAAZls9mTJk0it3UflFqdVdUddU91AGMhhCgUiru7u+7JAwCGvAHmdgAA0F82NjZvv/22WuOLvrz0NA9qSH6AAIBBB7kdAOApYTKZtra2z3oWg+xpHtSQ/AABAINu4DVQAAAAAADA8wZyOwAAAADoRSoWV9y6KRYKlQUjnyiCINQGIghC7R5Q5YOeVR9grXyJaXg6M3+2ILcDAAAAQN8kIlFNabH8YW359StdHe1qudSTcPbsWfJ5g0q7du1SKwbE5XKrq6vLy8vpdHp2dray3c3NraGhITo62tHRkcvlMplMR0dHR0fHL7744klP+5mD6+0AAAAA0AeJSFRTWkLvbrfnmFZUVt7r7HhlShhnuMUTrYMWHBzs4+OjZ2dzc/PVq1eXlJSoPk7m999/RwjV1dVNnjz55amYC+t2AAAAAPgPgiD+/PNPtUaJSFRTepve3c41NUUSkZMRg3mv5F52VuejR8rVu/z8/O3bt5Pbn3/++dWrV8Vi8QcffODn5zd37tyCggLyrfT09ICAgMDAwKSkJIRQaWlpQkLC22+/rdxXFY/HS0xMJAhiy5Yt7u7u4eHhlZWVvc3c2dk5Kipq06ZNj/8hvOhg3Q4AAAB4WWzevFn5XzUEQZw8eXLLli0IodmzZ6u+VX7rhmF3B9fcjBDwsa5OoqPdnoLduXGVxzbznR5hYmKCEOrq6lImXlVVVR4eHgcOHKivr8/Pz8/MzExKSgoMDLx79+6GDRvIR63Mnz/f3t7e1NR0586daWlp5BOt1HR3d5eXl6empmZlZV27dq2zs9Pf39/T07O3o9u2bZu3t3dMTExgYOCAP6IhANbtwGDavHmz8leG6jYAAIDn2fnz54OCgjZt2vTxxx8XFRVpdpAJhVh3J9bxCHvUouh8JBD0SKj0rp4egUDQW0wvL6/r168nJSUFBAQkJycjhLKysjw8PHg8XlFR0dixY7OyshBC/v7+kZGRygfSaMrOzo6NjTU1NXVwcHj11Vd1HAWbzf7222+XL18ul8v7cfBDDuR2AAAAwMvr/PnzgYGB69ev//DDD2/fvh0dHa1ZENvV21fENq26X6N41KroaOf3CO5JsG4nN6tXxqg+sk9JJBIhhMaPH3/8+PGmpqaoqKh169YhhAQCAY1Ga25ubm5uHj9+/Pz58xFCWp+2p0oikVhYWJDbWp9Qr2rmzJkeHh67d+/W7+iHJsjtAAAAgJeRPlkdiWVk5DIuSGw5srqxid/TUy7FupzcbH0DrK2tyROyCCEDA4Pm5maEEI7jubm5CKH9+/dXVlYmJCRcu3YtOTmZIAhfX1+5XL569erVq1d3dHQYGhrqM09fX99Tp06RkXNycvrsv3fv3n379rW1ten5OQw9A8ztxFLprcpKoVj8YtWJwXG8t7o45Lbmu0qa0UQiUUNDg+ouWovrDCC4Wk/dR6RnTwAAAAAhRBDEiRMn/P39P/roo02bNunO6khUKtXMfNjokDDpaI9auqHQ1cPOb5ydnZ2VlZUyP5s8efL9+/cXLFgQFRXl7e2NEPLy8lq9evXs2bPDw8NXrFhBoVDmzp3LYDCCg4NnzJiRm5s7fvx4fSb83nvvlZWVRURETJo0ycnJqc/+lpaWO3bs6O7u1if40ETotHnzZs1GoVicX1GRWV5+rqSkrb1doVDoDvL82Lp1a1xcnPLlnTt3rK2tyayrqqoKIbRhwwbV/nQ6feTIkVwu18bGxs7Obv/+/WR7Y2NjRETEqFGjvL29HRwccnNzCYJobm7mcDiqu3M4nEePHvU3OEEQcXFxAoEgOTnZx8fHyclp7dq1yg95/vz5Af9VXFx86NCh06dPD+JH1F+6r6gLCQlR9oyPj9fRMz4+HnpCT+gJPaHnk+4ZHx//z3/+MzMz08bGRkdPrd/+CoWirbk5/8yp4uLi2tpaoVBIrpgoYRh2+/btnp4eZUtnZ2dBQYFQKFTtVllZefv2bfLLV09yufz27dstLS367zK0af0BKfU7txOKxdfLy7Nray8pFD/eu3ckP7/l0aMXJb27f/++ubm5VColX27evHnt2rXk9pYtWyIjI+3s7FT/pdLpdIFAQG7n5eXR6XQ+n08QxPTp0/fu3Uu2X716dcSIEVKpVEdu16/gBQUFn3zySWFhoaOjY1NTU1tb28SJE5OSkgiCwHHc2tr63n+JRCK5XD5r1iy1/7ueJrV/IeQvDs1tAAAAzwPV38znzp0bN26cp6fnkSNH1L5HeksdFAqFUCjs7u4Wi8WD+NVTU1PzgYYbN24MVvyhR3du178aKCKJpPTBgy4m09Teno+QoYtLWWWlqLp6hrOzBYdDFjDMz8/Pzc399NNPEUKff/55cHCwr6/vZ599duHCBXt7+08//ZS8Mzk9Pf3zzz+nUqlxcXErV64sLS09ceJEZWWlmZmZpaVlc3Pz1atXg4KC9u3bRy4Ub9269ciRIxKJ5I033tixY0dpaWlaWlpNTU1xcfGSJUtkMtmxY8fc3d1//fVXAwMDteDK+Ts5Obm7u+fk5ERFRSGEjh49+sMPP5BvpaSkHDlyZMmSJXl5eVOmTNE8dj8/PzqdjmFYUVFRU1PT2rVryfYJEyZs27ato6NDx4K2/sERQtu3b//qq68KCwtXrFhhbW2NEJozZ05FRQVCqKGhwdbW1tbWVi6XKy8+9ff3P336dGRkZL9+lAAAAF5y4eHh4eHh58+f//TTT7du3frZZ5+98cYbuk/O0mg0IyOjQZ+Jo6PjS373w+DqX253s7Ky28SEY2/fg1AXQh0UCnJ2Lrx926S8fLqn56BUuDEyMpoxY8aNGze++OKLqVOn5ubmhoeH19XVHTt27PLly1Qq1dfXNy4ujs/n7927t7i4mMViOTk57dq1q6ioKCIi4ty5cw4ODmrBZ86cqTyEJUuWpKamRkVFVVRUCASCoKAghFBhYSGTyfT29l6wYMGhQ4dU06+0tDQWiyWRSLKystasWcPhcO7cuaNWOGfZsmUIoZaWFrFY/OGHHyrbxWJxf4MjhMrLy+3t7e3t7ck+LS0tBw4c+O677xBC1dXVNTU1YWFhPT09zs7OR48eZbFYXl5e+fn5kNsBAAAYAK0Z3rOeFHgs/byXgiCEMlk3jncg1EYQHTguEAhoQiG/s3OwKtwwGAxvb28PDw8mkxkYGNjS0oIQcnBwuHr1Ko/HS0tL4/P5QqEQIRQSEuLq6mpnZ2dtbb1s2TIDAwM/P7+2tjatwZWio6NzcnJEIlFGRsbChQvJxpSUFG9v79zcXAsLi/T0dNW6OCUlJcXFxaWlpRUVFeTVCTKZrLdHrNBotAAVZLd+BW9razMzM1N2+OmnnyZNmrRlyxYyIxwxYsQ333xTWFhYVlYmlUrJot6jR48uKSnp14/xyYH6dgAA8CIKDw/Pz8/ftm3bzp07AwICnvV0wGPp37qdj4sLv6yspqqKcHHpIIgePl9WWurc2upmZ9dnhZuMjIyoqKhp06bt3btXWeGGfNfNzQ2pVLixtbVVi8Pj8V5//fXw8PCgoCAXFxeykclkkhsUCoXcJleStQZXGjZsWEhIyMmTJzMyMn799VeEEIZhaWlpkZGRGRkZCCFjY+Ps7GzypC1CaPv27eST6aqrq8eNG7du3bqxY8fu379fNea8efPefvvt8ePHMxiMN998U9n+7rvv9jd4T08PudyN4/iSJUvkcvm1a9csLS3J/m5ubuThUCiU2bNn83g8Miafz9fnxwcAAOAlp+NPbvKbJSoqKi8v7+LFi09xUmCQ9W/dzojFCnRysurubqis7OHz5XfujGpp8bW2ftIVbjIzM+fMmfPNN9/ExMSQK3k69Bl8yZIlu3btkslk5HNLzp8/b2trm5ycnJiYmJiYuGrVqkOHDmmGdXZ25vP5crl84sSJCKGff/6ZbC8qKrp06dKECRO0TubSpUv9Cu7k5NTY2IgQOn78eEdHR3p6ujKxQwjt2bNn/fr15HZeXh45/8rKSh0PYAEAAAD0R6FQtF4XDl4g/cvtqFSquZlZiLOzG59vUFExur3df+TIp1DhJjQ0NCMjY/ny5XPmzBkxYkRCQoKOzn0Gj4yMvH//fkxMDPkyJSVFuY0QWrBgwYkTJ7SeYnZwcLh48SKVSj148OCePXvGjRs3bdq02bNnJyUl9VYpOyMjo1/BKRTKsGHDhELhlStX8vLyzP+LvDclNjb2+vXrYWFh3t7eXV1d5HV+FRUVXl5eOj4QAAAAALw8KITOMrlbtmzRLJaDYdijrq5bNTU2BgYcDsfS0tLQ0FD1zhocx+/cuTNq1Cg2m022kDdYuLu7q95fU1VVJRKJPDw8tJ7PVSOTyXg8npubm0KhuH//fp/ZTL+CDwCO49XV1QKBYPTo0eR51cHy66+/Yhj2t7/9Teu7BEFUVFRQKBRXV1fyM589e/aBAwdUr9J7mrT+CwEAAPBCg9/tzzndP6D+XW9HotFoFhzOlLFjFQoFg8FgMplqt0xTqVS13IvD4YwbN04tjvLKOX0wGAwfHx9yW59lqn4FHwAqlerq6vokIsfGxsbExPSW21EolFdeeUX5sqCgICQk5FkldgAAAAB43gwkt0NPrMINQAhRqdTNmzeLRCJ9PmE2m7169eqnMCsAAAAAvBAGmNuBJ2rMmDF69hw7duwTnQkAAAAAXixP5Fo0AAAYMsgHxvRJKBQqyxv1pqKi4t133x2MSQEAQK8gtwMAAF1YLJY+6Z1Cobh8+bLuPmw2m6weAAAATw6ckwUAvDCkUmlWVlZnZ2d4eLijoyNCSC6Xnzp1qrm5efLkyR4eHgghoVB4584dJyenM2fO2NnZhYSESCQStRbymTEEQeTk5NTX14eFhSnvvlIb4sqVKziO5+TkREREUKlUzf7d3d3kw28mT56sNtsrV66MHj2aLFHZ1NT04MGDMWPGkPeEiUSikydPtrS0eHp6hoWFPZ1PD4DHJ5RKbz144GNnZ8RgqJWhIJ9SP+DaFDiOk/sqNx4fWQlEebun5h9pFAqFSqViGEb+TlBuKPvTaDQMw6hUquo9o2QLjuPKzpo7ak6GHIucldaH9g7igcO6HQDgxSCXy0NCQg4fPnzr1q0JEyYUFxdjGBYWFvbDDz/U19fPnDkzJSUFIfTw4cOlS5euWrWqsbHx/fffX7lypWYLGTA6OvrLL7+sr6+PiIhIS0vTOkRhYSFBEJcuXcIwTLM/n88PCAhIT0+/cePG7Nmz1Sb822+/kU+CRgjt2LEjMzOzsrJyzZo1EonEz8/v8OHDzc3Nf/vb35R9AHjO9UgkBXV1IoL4s7r6UVeXWgZz9uzZxYsXDyzypUuXyKc6KTcGxa5du77++mvly+joaEdHRy6Xy2QyHR0dHR0dv/jiC4QQl8utrq4uLy+n0+nZ2dnK/m5ubg0NDRs3bnzttdeUjRcvXnRwcBAIBOReCCGtO86aNUvrWAih5cuXk49ORQgJhcLp06eT24cPHz5z5szgHDmh0+bNm3V3AC85+BcCnprffvstIiKC3N69e/fevXszMjImTJhAtly5csXOzo4giHv37pG/bQmCyMvLGzNmjGYLQRAXL160t7fHMIzc18TERC6Xaw5BEASdTlcoFFr77969e/bs2WT/n3/+mcPhqE744sWL7u7uBEEoFApra+uKioqioqKAgICGhoaPP/4Yx3GCIPbv3x8TE/OEPzkA+k3zdztfLM69d+9Kba0Qw85VVKQVFjY9eqRQKJQdhEJhc3PzwIb7448/3njjDdWNQbFz507y/2JVtbW1XC5XtcXa2rqqqurevXvm5uajRo0SCARku4uLy8OHD0UikbOz8++//04QhEKh8PT0zMjIUO5FEERvO2odq6Cg4JNPPiG3f/jhhwkTJvj4+JAv5XL5rFmzyN8MfdL95QvrdgCAF8PNmzdDQkLI7Q8++GDt2rUlJSVTp04lWyZMmNDa2trV1YUQsrOzGz16NELI0tKSIAitLTdu3GAwGHFxce+8805SUpJQKGxsbNQcQjm61v4lJSUzZswgOyhnojRlypSurq6ysrILFy64uroqK2KOHDlyyZIlCQkJS5cu3bJlC6GzgDwAz4MeiaSwrs6QxRrn4GBEpQY7OxuZmp6rqWlTWb3j8XiJiYlisfiDDz7w8/ObO3duQUFBbwG3bt3q6enp6ur6ySefaO2wb98+Hx8fX1/fxMREhNDSpUvv37+PEFq3bt2ePXsQQufPn//nP/+JEEpPTw8ICAgMDExKSkIIEQSxZcsWd3f38PDwysrKfh2ms7NzVFTUpk2bVBsNDQ2///77devWiUSixMREOzu7119/XZ8dtdq+fbvyhipbW9uFCxcq36LT6f7+/qdPn+7XnLWC6+0AAC8G8gIXclsgEHR3dzMYjO7ubrIFx3Ecx+l0OkJI81Exmi00Gm3cuHHr1q0jX65fv37EiBGaQ9ja2uroz2KxZDIZ2UI+CVptwgsXLjx69Oj9+/dVq5EXFhbOnTv3k08+2bBhw2uvvZaZmTnATwSApyWvstLYxCTAwcEAIYQQk0oNd3H5rbT0UnX1a2PGkA+U7+7uLi8vP3DgQH19fX5+fmZmZlJSUmBgoGa0urq6Y8eOXb58mUql+vr6xsXFqQ+Xl7d3796rV68ihMLCwjw9PTkcztmzZ5cvX378+HELC4v333//xIkTY8eOvXv37oYNG06fPm1kZDR//nx7e/vOzs6srKxr1651dnb6+/v393nr27Zt8/b2jomJUZ15eHh4aGjo+++/f+rUqby8PP131FReXm5vb09uz5w5c9SoUcrH0yOEvLy88vPzIyMj+zVnTbBuBwB4MUycODEzM1OhUCCEPvroo3//+9/jx4/PzMwUi8UIoYyMjDFjxiifc6hPtBs3bjg5OXl7e7e3t69cuZLJZGoOQXYmCKK3/ocOHSLTu+PHj2uOsmjRotTU1HPnzkVHRysb8/LyJk+e/Pe//93Dw6OkpATW7cDzj4qQVKFQ/uWDEOqRSKhSqaCjQ+0J6V5eXtevX09KSgoICEhOTtYazcHB4erVqzweLy0tjc/nKy8+U8rOzp4/f76FhYWFhUVcXFxOTk5kZGRubm5xcfGUKVOEQmF3d/fFixdfe+21rKwsDw8PHo9XVFQ0duzYrKys7Ozs2NhYU1NTBweHV199tb9Hymazv/322+XLl8vlctX2L7/88ujRo++9956Tk1O/dlTV1tam+zlSo0ePLikp6e+cNcG6HQDgxTB//vz09HRvb29zc/OGhoa8vDwulztlyhRPT083N7dbt24dOXJE/2iBgYGzZ8/28PBwd3e/efPmTz/9pHUIhBCXy42JiTl48KBm/8WLFx8+fNjT05PL5XI4HENDQ7VR/Pz8MAyLiIhQXTicMWPGnj175s2b19PTY2tre+HChUuXAjvTvwAAIABJREFULinPBQPwHJrk7HyhvPxCdXWos7MhldoqEuXweNLGxgBra7VbO8ePH3/8+PGMjIyoqKhp06bt3btXMxqPx3v99dfDw8ODgoK0PiBUJBIpl8wRQgKBICQkZPny5RcuXAgNDTUyMsrIyKBSqfb29gKBgEajNTc3k0O7ubklJSVZWFiQO1pZWQ3gYGfOnHnw4MHdu3erNg4fPnzMmDGTJk3q746qenp6dD9xytjYmM/n93fCmiC3AwC8GCgUSlpaWkVFRXt7u6+vL4vFQgj98MMP9+/fJ4uJkIt2r7zySllZGbmLcluzBSG0e/fu//u//6urq/Pw8DA3N+9tiMLCwrKyMgMDA83+BgYGp0+f5vF4OI57eHhorWtA3slB8vf3LywsRAjV1tbevHnTwcHBysrq1q1bql9jADyHjFmsCQ4OF+7fz66u9rOxybt3r+vhQ5/hw62trckTskr79+/ncDgJCQmffPKJjY3Nnj17NP+/yMzMnDNnzs6dOzEM0/rAex8fn4MHD37wwQcIoTNnzixatIjFYnl7eycmJp4/f57NZn/88cfk7bS+vr43b94kn725detWQ0NDX1/fU6dOLVq0iKxeNLBq4Xv37vX19VVbknz8HZ2cnDQv3lBVWVnZ35PIWg0wtxNLpfcePBjN5RoymYNVjmVwEX+taqNqYCVketsLx3EKhaJW+Ua15o1mXRzltmo5HJJIJOrs7Bw5cqRqPR7NcjuqL1Xj6whO9FJQRx+DWHQHgMdE3hKhatSoUaNGjRpYNHt7e+W1L70NYWFhERwc3Ft/CoXi7u7e33HJq/fIbV9f3/7uDsBTRqVSh5uZhTo5na2pudjTI21p8bWw4HK5VlZWasvVXl5eUVFRBw8ebG1tXbFihdbvndDQ0NjY2Pb29qamphEjRiQkJKg9GH3RokUHDhyYPn06QRBUKnXRokUIoddee624uHjUqFFsNru2tpa8KG3u3LkHDhwIDg42NjaWSCQbN250d3cPCwuLiIjg8/m9nT/tk6Wl5Y4dO5YuXTq4O1IolGHDhgmFQs0rgEkVFRVeXl79HVSLAdxkKxSL8ysqMsvLz5WUtLW3q94C/fzQeuczQRCXL1+eO3duf6Pp2Gvr1q1xcXHKl3fu3LG2tiYLJVRVVSGENmzYoNqfTqePHDmSy+Xa2NjY2dnt37+fbG9sbIyIiBg1apS3t7eDg0Nubi5BEM3NzWpVFTgczqNHj8htzfi9BScIIi4uTnl7tkAgCA8PV76VnJzs4+Pj5OS0du1a8qeZmJjo6urq7Oy8e/dugiAOHTp0+vRprYcPNVAAAGDo0fq7XaFQND16dPLmzeLi4traWqFQqLVgR2dnZ0FBgVAo1BFfKpXeunVLLBb39PTcvn1bswOO42VlZffu3dOnJkhlZeXt27fJb16CIORy+e3bt1taWvrc8en75ZdfkpOTe3s3Kiqqq6tLnzi6v3z7vW4nkkhKHzzoYjI5XG5lVVVnVVWIs/NwDkdzCeolsXjxYn9//3379jEYDIRQRkbGm2++Sa5ypaSkREZGpqam7ty5U/Vvl4qKCjJnv3z5clhY2MKFC01MTN56663IyEiy+OG1a9fmzZv34MED3UNrja81eGFhoZWVFdn+448//vTTT+Tl5wihoqKirVu3Xrt2jU6nz5kzJzk5ecqUKfHx8bdu3aLT6QEBAVOmTImOjp43b96MGTMGvPIHAADgRUej0Sw5nKmGhgqFgsFgMJlMrV8KHA5HuSxdW1urWZ07JibGz8+PfEYLQkjrShWFQnFzc9NzYmoX7dHp9MFZ/XoCYmNjY2JiVG+cVyooKAgJCdF9s4We+neiTZnYmdrbi6lUQxeXMlPTM3+tT52ZmfnVV1/NmjXL3d1948aN5G01apVsNOvfqLXoqGSjVvOmtLQ0ISHh7bff3r59O6FfVRuxWLx8+XI/P793332XIAh9pqd1L5KTk5O7u3tOTg758ujRozExMeR2SkpKQkKCmZlZb7dM+/n50el0DMOKioqampqUxbQmTJiwbdu2jo4O3T8O3fGVwZHOgjp1dXUrVqywtra2sLCYM2dORUVFZ2enjY3NyJEjrays7O3tOzo6BrHoDgAAgBcXjUYzMjIyNTVlsVj6/LXv6Oi4W4Ofn99TmOrziUqlbt68WSQSab7FZrPVzk0PWP/W7W5WVnabmHDs7XsQ6kKog0JBzs6Ft2+blJdP9/QkL6hsbm6Oj48vLCy0sbGZOXPmgQMHQkND1SrZXLhwQa3+jVpFnN4q2WjWvKFQKDt37kxLS5s2bVpqaqo+VW3OnTtXUlLyyiuvBAcH//HHH6NGjepzepp7qT4CcsmSJampqVFRURUVFQKBICgoCCFUWFjIZDK9vb0XLFhw6NChKVOmKPunpaWxWCyJRJKVlbVmzRoOh3Pnzh21ijjLli1DCLW0tIjF4g8//FDZrlxv6y2+ZnCks6COsgZjS0vLgQMHvvvuu6CgIA8Pj7CwMAMDA2tr62nTpqHBK7oDAAAAvMzGjBmjtX3s2LGDNUQ/L5AnCKFM1o3jHQi1EUQHjgsEAppQyO/sVL0rJDQ01NXVlc1mL126NCcnR7OSjWb9G7WW3irZaNa8QQj5+/tHRkayWCw9q9oEBAS4u7vT6fTx48e3trbqMz3NvVQDRkdH5+TkiESijIwM5ZJYSkqKt7d3bm6uhYVFenq6asGbkpKS4uLi0tLSiooKGxsbhJBMJuvtpDaNRgtQoezWW3zN4H0W1EEI/fTT/7N353FNXHv/wM8kARICyA6yBQQssu9iXRC1akVxK7Quve29Lq3a26rt7aK9P6EV2tpFb60L+qitilrB1iV1t9Tihqi1KqhsssmqyBogyWR+f8xtnjwJBILI+nn/4WtycuY7ZxIcvpxz5szOkSNHxsXFjRkzJj8///bt21FRUdOmTcvNzWV7QLtq0R0AAAB4pnTL7fzd3Izq6x/k5j5SKKoVivq6upZbt1wrKz0sLFTvo1QuLWNjY1NfX5+VlRUQELBv3z6BQMAOirPr35SVlU2bNo1d512tJDw8PD09nV3JJjw8XLmSjUQiUQYnhLAJJbsYASGkubm5I6va2NnZqb7sSPM091Jlbm4eHh5+7NixlJQUdkCWpukDBw7o6+unpKTcunVLKBSqPkU4ISGBfVTl0aNHP/nkE0KIp6fnjRs3VGPOnDmTXa1eX1//ZRXsrD4t8TWDa19QR6FQzJ0798SJE5cvX541axYhZO/evVOmTFmxYsU///nP6OhotoevqxbdAQAAgGdKt9zOkM8PdXGxrq19mJNTX1cnu3NnSEVFgK2t2go3Z8+eZRd2F4vF/v7+7Eo2GzdunDNnTkVFBSFk27ZtOTk58fHxly9fZm8YUSthRxu3bNkyduzYcePGxcfHT5kyhRDi7++vnNl24sQJ5UxMFruqDSGEXdWmgyfVkea1G2T+/Pnr1q2TSqXsQPDZs2ft7e137NixZcuWLVu2LFmyZN++fZp7ubq61tXVyWSy559/nhCiHCe9du3a+fPnR4wY0dbhOhJfGVz7gjqHDx+urq5OTk62srJiS0xMTNjJjoSQ/Px8ts+vqxbdAQAAgGdKt/l2HA7HbNCgcFdXSV7e/Zoal8ePfe3sNFe4sbCwGD16tLm5eVFRUWpqak5OjtpKNitXrlRb/0ZzRZxWV7LRXPNG9VHES5cu7cSqNpoL7Wg2r90gkZGRCxYsYBdaJIQkJSUp76gghMTExKxdu7ahoUHzgUgikSg1NXXixIl79+6NiYnZvHmziYnJ3bt3ExMTra2t2VxTU1vx2wquZUGdixcvpqWlKfs+lyxZsmrVqkOHDoWGhlIURdP0119/Tbpw0R0AAAB4lijtnVJxcXGaa0bTNP2opuaPBw8G6+mZmppaWVkJBAJlApSYmFhSUvL2228/fPjQy8tLT0+PECKVSrOysjw8PORyeX5+vq+vb01NTU5OjpeXl3K4ULOkVQzD3L9/n6KooUOHamZdcrk8KyvL1tZWpyeNdKR53UChUOTl5TU0NAwdOrSthQ0754cffqBputWbrlvFMAy7qtCwYcPY0faoqKg9e/Zozttr9ScEAAD6NFzbezntX1BnnkvB5XItTU3HeHpqWeHGyspKOcZHCNHX11dbyUZ1/RuWZkmrtK95o7qqjZZlddQKO9K8bsDhcNzd3Z9FZC0L6rSKoijVG3m6cNEdAAAAeKY6+cwxdoWbVt8KDw9vbGx8iiZ1GXZZnZ5uRa+gXFCnc92QXbjoDgAAADxTnczttOj4QtLQndpaUKcjunDRHQAA6P2CgoLEYnFPtwLaFBQUpOXdrs/tAAAAoK8zNzfv6SZAm7Q/uUrHtYsBAAAAoBdDbgcAAADQfyC3AwAAAOg/kNsBAAAA9B/I7QAAAKB9HXlKk6414VnAfbIAAADQDnNzcw8Pj+zs7EePHmmv6ezsbGdnd+nSpe5pWP9QW1tbXFzc6luOjo66PjsAuR0AAABATzIyMrp7965EIlErNzQ0fO6553SNhtwOAAAAOsrMzMzd3b2qqsrS0pLD4RQUFFRUVBBCnJycBg8eLJPJmpub2ZoURYlEImtra5qmKysri4uL7ezsHBwccnJyaJr28PAoKysrKSlRq8PhcNzc3NjV9aqrq3NzcxUKRU+ecLfgcrkBAQEXL15UKw8MDNTT09M1GubbAQAAQEdRFMXj8YRCYUFBgUwmc3JyIoSYmZk5ODhUVlaWlJSYmJiwNa2tre3s7B48eFBSUuLo6GhlZVVWViaVSkUikUgkksvlDx8+1KxjaWlpaWmZn5+fm5trbm5uY2PTo6fbfVxdXS0sLFRLzM3NhwwZ0olQncztGltaLuTkNDQ3d3k2zTCMMqZqcIVCwTCMak2aptVeqlagVWgeRSKRPHz4UK1+lwRXa6ROBsKfJgAA0A+UlJRUVVVVV1ezvUrm5uYMwxQVFVVWVtbW1rJ1TE1NaZoWCAQGBgYKhYKtk5ubKxAIjI2N2Q45zTpSqZQQ4uDgYGRklJmZWVZW1pPn2Y0oigoODlYtCQ4O7txdKZ3J7eqbm68WFkoY5ve8vEc1Na0mT512+vTpefPmEULOnz//8ssvK8sTEhIWLVqkfJmZmeng4KBMhvLy8ng83ocffqiswOfznZycnJ2dHR0dnZyctm/fzpaXlZVNnjzZx8cnMjLSxcXl119/JYRUVFRYWlqqNsPS0vLx48e6BieELFq0qLGxkRCyc+fOgICAIUOGLF++nP2IZs+eHfKXP//8U7nL559//sEHHxBCfvzxxxMnTjzVxwcAAPDssb/XlN0ZHA5HoVCwv5SVWQGXy1X+mi4tLa2pqSEaPSCadWpqarKysurq6qysrHx8fAYPHtwtJ9Qr2Nrasv2ghBCRSNTpc9c5t6tvbs4oLDQwMBjl5qavr5+an1/Vpend6NGjN2zYoFk+b968n376iU3nCSEpKSkvv/wyh/Pf9iclJUVGRu7fv1/1hyY7O7u4uLi0tHTfvn1Lly6tr68nhLz22msvvvhiXl7ezZs39+/fP3fuXGXMtnQ8eEZGhrW1tVAovHbt2qeffnrixImrV69mZGTs2LGDYZhLly7t/cvQoUPZONeuXUtISGDbEB0dvXnz5qfp+QMAAOh+9fX1XC7XyspKIBCYmpqyhQ0NDRwOp7y8vLy8nM/nKxQKiqLc3Nyamprq6+vd3Nw4HI5mHTs7u8GDBxcWFv7xxx80TRsZGfXsqXWz4OBgDofD4XACAwM7HUS33I5N7AR8fohIZMjhjHZ1NTQxOfPggVp6l5ycHBwcHBoampiYSAi5ffv26tWr586d6+npmZCQEBsb6+fnN3fuXJlMRgj59NNPfXx83N3dP/roI0JIVlbWli1bNA/t4uLi5eV16tQp9uWhQ4fmzJmjfDcpKSk+Pn7QoEFpaWma+wYGBvJ4PJqmr127VlZW9s4777DlI0aMWLt2rfYH7nY8OCEkISHhzTffJIQUFhYuXrzY1tbW0tJy+vTp2dnZDx8+tLe3t7e3t7a2fu655wQCASFEIpH885//VLaHx+MFBQUdP35ce3sAAAB6lcrKyrq6Ojc3N39/f2WPSWlpaVNTU1BQUFBQkEAgqKmpcXBwEAqFhYWFhYWF7AiYZp26ujojI6OQkJDQ0FCGYcrLy3v21LqZsbGxh4eHh4eHctpiJ+h2n2xaTo7Q2DhYJGLv2TDgcCa4ue2+fft8Xt6UYcOMjY0JIZmZme+///7x48cNDQ1nzZrl5ORkYmKyYcOGmzdv8vl8FxeXdevWXbt2bdKkSWfOnPHy8vr5558vXLjA4XACAgIWLFhQW1t7//79Vo8+f/78/fv3T5s2LTs7u6GhYfjw4Wx5RkaGgYGBn59fTEzMvn37xowZw5YfOHCAz+c3NzeLxeK3337b1NT0zp07oaGhqjEXLlxICKmoqGhqavrXv/6lLG9qatI1OCHk/v37bG/q7Nmz2WoVFRV79uzZtGlTXl7egwcPIiIi6uvrXV1dDx06xOfzV65cuXz58pqamnv37rH1fX1909PTIyMjdfpeAAAAnqnq6mrlknXKDTZLI4QoFIo7d+4YGhrK5XJlbieXy2/fvq3syyCEFBcXK1dxUwZRqyOTya5fvy4QCCiKampq6tp5X32Cr6/vU0bQrd+OQ0iLXK465b++uZnT0tJQXd3Q0MCWiMVib2/vrKysa9eueXp6isViQkh4eLi7u7ujo6Otre3ChQv19PQCAwOrqqpEItGlS5eysrIOHDhQV1fHzlRrS3R09KlTpyQSSUpKyiuvvKIsT0pK8vPzO3funKWlZXJyMtsdSAi5devWzZs3b9++nZ2dzQ5aS6VSLpfbanAulxusQlmt48GrqqrUVhfcuXPnyJEj4+LixowZY2Njs3HjxoyMjLt377a0tCQmJh47dqyhoUF1TiEhZOjQobdu3Wr3i+i1YmNjY2NjNbcBAKDfk0gkatOcGIaRSCSay7Zpr6NQKBobGxsaGgZgYkcIMTAwMDAweJoIuvXbjXR1/fX+/V/z8sa6ugo4nEqJ5FRWVktpabCtrXLqW0NDA5fLZTtRw8LCPDw82Iay71IUxW6zt35kZWXNnj17woQJw4cPd3Nz0350c3Pz8PDwY8eOpaSk/PDDD2whTdMHDhyIjIxMSUkhhAiFwpMnT06bNo0QkpCQIBQKCSF5eXkhISHLly/39PTctm2basyZM2e+/vrrYWFh+vr6qmkWO7SqU/D6+npDQ0N2d4VCMX/+fJlMdvnyZSsrK0II28XKnnhUVFRWVtZvv/127969kJCQysrK5uZmmqa//fZboVBYV1en05cCAAAAoKRbbifk80eIRL/m55/MywscPDjt3r2akhJ/CwtbW1t2QJYQEhAQcOPGjWXLlhFCPv30U4FAoOXmgCNHjkyfPv3zzz+naXrNmjXtNmD+/Pnx8fFSqdTHx4ctOXv2rL29/Y4dO9iXn3322b59+9j0S8nV1bWurk4mkz3//POEkF27dv39738nhFy7du38+fOJiYlttVCn4C4uLqWlpWzh4cOHq6urT548qay2fv364uLib775hhCSlpY2duzYL7/8kv375vvvv8/JyVm7di0hJCcnR3lqAAAAALrScUyWw7EYNGisi0t9bW1qdnZjRUWApaWjo6O1tTU7WE4ImTFjhr6+/ujRoydPnnzu3LmwsDAtAceOHZuSkrJo0aLp06fb2NjEx8drb0BkZGR+fr7aXRSqL2NiYo4ePaocIFYSiUSpqakcDmfv3r3r168PCQkZP358VFRUYmKitbV1W4fTKThFUebm5uyw8sWLF9PS0sz+smrVqldfffXKlSsRERF+fn41NTULFy40Nja2sLCwsLAwMjISCATsrMns7OynH2gHAACAAUvnNVC4XK6VqelEFxdLigpzcFAmdsrl9Tgczs8//7xr165169b9+uuvHA5n5MiRP//8M/tucXExOyb75ZdfvvbaayNGjMjKylq2bFlKSsrp06c//vjj8ePH79+/nxASHh6enJysdnQDA4MnT56sXr1aWbJ79+733ntP+dLV1bWxsdHIyEgmk7Fjpqy8vLyJEycSQjw8PG7evLlv376vvvoqJycnOjqaEGJjY/PkyRPVAz158sTCwkLX4IsXL/7xxx8JIV9//XVjY+OTvyQkJFhaWl68eHHr1q3JycmnT59WHUp/44031q9fz26fPn36pZde0vE76WEURVEUpTq1LjY2lqKouLi4uLg4SoNmzbagJmqiJmp2uiYBGKgo7aupxcXFtTpUStN0S0uLXC7X19c3MDDA/yKWQqGYM2cOm951wtWrV9PS0t59992ubdUzpfYTwl5zNf8FAOhOFNXObzfQTiwWs090hd6purp66tSpbb2r23w7JS6Xq7xvAJQ4HE5sbKxEIunch2NkZMTOUwQAgKfRkQncoF27i79Cr9XJ3A7aMmzYsE7v6+np2YUtAQAYsDBi8JSuX7+O/Lg3i4uL6/p+O4BWqc2D6bF2AAAADFQ630sBAAAAAL0WcjsAAOhvMG4AAxlyOwAA6G/i4uJ6ugkAPQbz7QAAAEAb5XNdORyOctUz1Ye9qj6rnaZp9iVN06r1O1LSasyOxAFV6LcDAAAAbXg8nkgkcnZ2NjMzi4iIKC4uJoTw+XwnJydnZ2dHR0cnJ6ft27ezlR0cHPLy8jIzM3k83qZNm5RBrly5wuPxdu/erSzJy8vj8XgffvihsqTVmKtXr54yZYqyTmpqqkgk0nxGFCghtwMAAIB25OXlFRcXl5aWDh48WLk8SnZ2Nlu4b9++pUuX1tfXq+5iZWV18OBB5cvk5GS1h3wmJSVFRkbu379fdaFpzZhr1qzJyclhH3BF0/Q777zzn//8R/kUe9CE3A4AAAA6xNDQcOzYsWy/narAwEAej6c6okoIEYlELS0tJSUlhBCGYU6cODFp0iTVCklJSfHx8YMGDUpLS9M8ljKmQCDYunXr8uXLJRLJli1bHB0dZ8+e3dVn1q9gvh0AAAC04/jx4/r6+kVFRV999ZXyEUoHDhzg8/nNzc1isfjtt982NTVV2ys6Ojo5OXnFihXp6el+fn6qj2LPyMgwMDDw8/OLiYnZt2/fmDFjtMScMGHC2LFjV6xY8csvv7SaCIIq9NsBAABAO44fPy4Wi7Oysj755JMVK1awhbdu3bp58+bt27ezs7MHDx6suVd0dDQ7LJucnBwTE6P6VlJSkp+f37lz5ywtLZOTk2UymfaY33zzzaFDh5YuXeri4vKsTrK/6GS/XWNLyx9FRf6Ojob6+hxOr04QFQoFRVFq99e0dfdNW3f9sCQSyZMnT+zs7FTrt3pzUKvBtcRnGKbT9/soFIpe/hUAAEBf99133xkYGKgVJiQksF1xeXl5ISEhy5cvV6sgEokIIQ8ePDh16lR8fPzp06fZcpqmDxw4EBkZmZKSQggRCoUnT56cNm2alpgWFhbDhg0bOXLkMzzJ/qIzOUF9c/PVwkIJw/yel/eopkZtfL23SUhIWLRokfJlZmamg4ODQqEgHb5DhxBSVlY2efJkHx+fyMhIFxeXX3/9lRBSUVFhaWmpeixLS8vHjx+z25rBtcRftGhRY2MjIWTnzp0BAQFDhgxZvnw5+8HOnj075C9//vmnMtTnn3/+wQcfEEJ+/PHHEydOdNXHBQAAoCtXV9e6ujpl35uqmJiYlStX+vv78/l8ZeHZs2ft7e137NixZcuWLVu2LFmyZN++fR2PCdrpnNvVNzdnFBYaGBiMcnPT19dPzc+v6t3p3bx583766SepVMq+TElJefnll9mOrg7eoUMIee2111588cW8vLybN2/u379/7ty5yoBtaTV4q/EzMjKsra2FQuG1a9c+/fTTEydOXL16NSMjY8eOHQzDXLp0ae9fhg4dyga5du1aQkIC24bo6OjNmzerHQUAYCDDc+67n0gkSk1N1SyPjo4+cuSI5oDsnDlzlC9jYmKOHj2quaxJWzGhHYxWsbGxqi/rmprO3bt3qaBAyjAMwzTT9NH793dnZJQ9eiSXy9k6t27dWrVq1Zw5c4YNGxYfH79mzRpfX985c+ZIpVKGYQ4ePBgUFBQSErJ161aGYSQSybvvvhsQEDB9+vT09PRWSz755BNvb283N7cPP/yQPcR3333n4+Mzffr02NjYixcvsoVqkVWNGjXq6NGj7LaPj8+VK1fY7aFDh968edPb2/v8+fNsCY/Ha2hoYLcbGxv5fP6TJ08yMjK8vb1VA27fvr2srKy8vNzU1FS13NTU9NGjR20Fbyv+jBkzCgsLGYZJSUlJSEhg3/3iiy/efffd4uLioKCg+vr66upqZZDGxsawsLCPP/54+fLlbMmaNWvEYnGr3+CzpvYTAgAA/QCu7b2c9i9It/l2aTk5QmPjYJFIjxBCiAGHM8HNbfft2+fz8qYMG8YuNlNXV7dhw4abN2/y+XwXF5d169Zdu3Zt0qRJZ86cEYlE77///vHjxw0NDWfNmuXk5FRcXFxcXJyenn7kyJHExMTQ0NA9e/aoltjY2Pz8888XLlzgcDgBAQELFix4/Pjx//zP/1y6dKmwsDAkJCQ4OJgQkpmZqRb5xRdfVDZ7/vz5+/fvnzZtWnZ2dkNDw/Dhw4kud+jcuXMnNDRU9XNYuHAhIaSioqKpqelf//qXsrypqYndaCt4q/Hv37/v5ORECFHe1F1RUbFnz55Nmzbl5eU9ePAgIiKivr7e1dX10KFDfD5/5cqVy5cvr6mpuXfvHlvf19c3PT09MjJSp28TAAAA+h/dxmQ5hLTI5exkNVZ9czOnpaWhulq1KzU8PNzd3d3R0dHW1nbhwoV6enqBgYFVVVVisdjb2zsrK+vatWuenp5isdjX1/fKlSuJiYnBwcE7duwghKiViESiS5cuZWVlHThwoK6urrGxUSwWz5gxw8ix58zbAAAgAElEQVTIyMvLS5kzaUZWbXZ0dPSpU6ckEklKSsorr7zCFnb8Dh2pVKp5XwWLy+UGq1BWayu4ZvyqqqpBgwapxty5c+fIkSPj4uLGjBljY2OzcePGjIyMu3fvtrS0JCYmHjt2rKGh4eWXX1bdZejQobdu3er49wgAAAD9lW79diNdXX+9f//XvLyxrq4CDqdSIjmVldVSWhpsa6t6q6byVhqKotht9ibQhoYGLpdbXl5OCAkLC/Pw8AgLCzt8+HBKSsq0adPGjx+/YcMGtZLFixfPnj17woQJw4cPd3NzI4TU1dWxG4QQ5q9JZpqRVZttbm4eHh5+7NixlJSUH374geh4h46np+e2bdtUA86cOfP1118PCwvT19dXTbPefPNN7cE140dFRRkaGrJvKRSK+fPny2Syy5cvW1lZEUI8PDzYc6EoKioqKisr67fffrt3715ISEhlZWVzczNN099++61QKKyrq9PpqwQA6MdiY2NjY2N7uhUAPUO3fjshnz9CJKqtrT2Zl1fY0HA6K6umpMTPwsLW1rYjT/8ICAiQyWTLli1btmxZdXW1QCDYtm1bTk5OfHz85cuX2VsH1EoOHz48ffr0jRs3zpkzp6KighDi5+d3/vx5QkhLS8vly5fbiqx26Pnz569bt04qlfr4+BAd79B5/vnnCSG7du1iy69du3b+/PkRI0a0dZodCa6M7+DgUFpaypYcPny4uro6OTmZTewIIevXr1+5ciW7nZaW5uPjs3v37gsXLpw8efLtt9+eOXPm2rVrCSE5OTnseQEAACEkLi6up5sA0GN067fjcDgWgwaNdXE5/eBBan19S0VFgKWlg4ODtbW1ZjqlacaMGXv27Bk9erRQKGxubl69ejWHw5k2bdrevXsrKysXL15MUZSvr69qSURExKuvvvr48eOysjIbG5v4+PikpKTdu3dPnz69qalp6NChbKeXZmS1Q0dGRi5YsOC9995jX2reobN27dq27tCZOHHi3r17Y2JiNm/ebGJicvfu3cTERGtrazbX1NRWcCMjI834v/32m7m5eWNjo1AovHjxYlpampmZGfvukiVLVq5cGRUVFRERUV1dbW1tvXDhQmWfqJGRkUAgMDExIYRkZ2f7+vq2+/kDAABAv0cxWtfOiIuL07yTnKbpqpqaa0VFjhyOqamplZWVQCDo+NK7ubm5EonE29ubHcatqanJycnx8vJSDk2qlUil0qysLA8PD7lcnp+fb2xsXFlZKRAIXFxcJk+e/P3337u7u7cauWspFIq8vLyGhoahQ4eqPjXl6f3www80Tf/jH/9o9V2GYbKzsymKcnd3b+tDjoqK2rNnj9q8ve7R6k8IAEDPoqh2fruBdri293Lav6DOPJeCy+VamZqOEwjkcrm+vr6BgYFOz1RQzpZjmZqahoSEaCnR19f39/dnt319ffPy8ubPn7948eLy8nILCwtlYqcZuWtxOBzVY3WhV199dc6cOW3ldhRFPffcc1p2v3r1anh4eI8kdgAAANDbdPKZY1wuV9nN1s1cXV1v3ryZmpoaGBg4duzYHmlD1+JwOLGxsRKJpHMfqZGRkfKxzQAAADDAdTK361lCoXDq1Kk93YquNGzYsE7v6+np2YUtAQAAgD4Nz5gHAAAA6D+Q2wEAAAD0H8jtAAAAAPoP5HYAANDfYP2OLkfTNMMwqg8d7SV6Z6u0aLXBDMN04ao9yO0AAKC/wQPHuta8efNeeeWVffv2ffDBBz3dlv+SyWTHjx8nhJw+fXrevHk93RwdtNrgdevWffvtt111iD55nywAAAB0D6lU+vvvvxcXFyclJfV0W/6XRCJ59913p0yZMnr0aOUiuH1CNzQY/XYAAADQprfeeuvRo0evvfaasuSXX35ZunQpTdOt1v/uu+/8/f2Dg4OPHDlCCNm8ebO/v39AQMCWLVsIIbdv3167du1bb70VGBi4ZMkShmE0S9g4ycnJwcHBoaGhiYmJmpGXLl1aVFT05ptvZmVlsZE7cqympqb33nsvMDBwxowZV69e1Wx8enp6QkICu/3FF19cunSJEKK5l1rbbt++HR8f//rrryckJLR7CGWDGYaJi4vz8vKaMGFCTk4OIeTgwYNffvklIaSoqGjevHltfcLtaqffLigoSCwWdy40DARBQUE93QQAAHWxsbEYlu0qGzduPHPmzA8//MD224nF4tjY2BMnTnC5XM3Kqampe/fuTUtLKyoqGjt2rFAo3LBhA5shRURE+Pj4UBT16aefXr9+/euvvx43bty5c+cEAoFayYQJEzIzM99///3jx48bGhrOmjXLycmJz+erRs7MzLxx48bWrVvPnTt3//59QkhaWlq7x8rPzy8uLk5PTz9y5EhiYmJoaKha+9mnnrLbubm53t7ehJA9e/ao7iUUCtXaZmJi8vnnnx84cGD8+PG7d+/Wfoja2lq2wfv37xeLxZcvX37y5ElQUJCPj8+MGTNGjBgxbty4jz/+eOXKla1+wh3R/pisubl550LDQFBdXd3TTQAAUBcXF4fc7llITU3dtGnTpk2brKysWq1w7NixxYsXGxsbe3l5paenb968edasWZaWloSQBQsWnDp1avLkyX5+fmzOFBoaWlFR4ezsrFZCCBGLxd7e3llZWYQQT09PsVhsYGCgGlnz0CdPnmz3WL6+vvHx8YmJiVOnTn3ppZc6eNZqe33xxRdqbZs7d25QUFBkZKRmZS1hT548+eqrr5qYmJiYmEycOJEQoq+vv3PnzsmTJ0dHR7/wwgsdbJ4mjMkCAABAh3C53NOnT69Zs6aurq7VCnV1dcpHzA8ZMoSmaTbZYjU0NBBC7O3t1fbSLGloaOByueXl5eXl5WFhYbNmzVKLbGBgoLaLRCJp91hhYWGHDx8uKyubNm3a8uXLtZ+sRCJpdS/NthFCzMzMdD1Ec3OzssHW1tbshrGxsVwu5/P52tumHXI7AAAA6JAxY8aMGjUqJiZm1apVrVbw9/c/ffo0IYSmaVdX10GDBp06dYp968SJEx2/hyAgIEAmky1btmzZsmXV1dUCgUAt8oMHD9QWDfH392/3WNu2bcvJyYmPj798+fKOHTs0lx3R09MrLy8nhCgUinPnzrW6l7+/v1rbdDqE6jn+8ssv7LHYlisUir///e8pKSlnzpxptW+yg5DbAQAAgA7i4uKOHz/e6o0CCxYsKC4unjp1anBw8IQJE1avXs0wzAsvvDBhwgSGYebOndvBQ8yYMUNfX3/06NGTJ08+d+5cWFiYWmRPT88nT56sW7dOucvcuXPbPZavr++yZcuioqImTJiwePFiZUeg0qhRo/Lz82NiYqZNm+bn59fqXjNnzlRrm06HUFq6dOndu3cnTZo0cuRIFxcXQsiXX34ZGBgYHh6+ffv2RYsWtbS0dPDjUkNpXytPLBZjvh1oUV1dPXXq1J5uBQDA/0FR7fx2A+3i4uI6vf6zQqG4e/euvr6+u7s7IYRhmPv371MUNXToUC2JTqtyc3MlEom3tzeHw9GMXFZWVl1d7eXlpazfkWOxd0t4eXkZGhq21f47d+4MGTLEyMhIy15qbdPpEEpyuTwrK8vW1lY5JttB2r+gzqxv1/H/M/jfBQAA0C8VFBRs2rRJrXDOnDmBgYGq+RZFUR4eHp07hJubm+pLDoejGnnw4MGDBw9WrdCRY5mamoaEhGhvv6+vb1t7tdU2XQ/BbvN4PM1jPT2dcztzc3MPD4/s7OxHjx5pr+ns7GxnZ8fejQx9RW1tbXFxcatvOTo6Dho0qJvbAwAAvZOzszO7GFsf1Q3t76mPCM+lgP/DyMjo7t27ypuDlAwNDZ977rkeaRIAAAB0XOdzOzMzM3d396qqKktLSw6HU1BQwK5J4+TkNHjwYJlM1tzczNakKEokEllbW9M0XVlZWVxcbGdn5+DgkJOTQ9O0h4dHWVlZSUmJWh0Oh+Pm5sbO9quurs7Nze1bDwPuo7hcbkBAwMWLF9XKAwMD9fT0eqRJAAAA0HGdv0+WoigejycUCgsKCmQymZOTEyHEzMzMwcGhsrKypKTExMSErWltbW1nZ/fgwYOSkhJHR0crK6uysjKpVCoSiUQikVwuf/jwoWYdS0tLS0vL/Pz83Nxcc3NzGxubrjljaI+rq6uFhYVqibm5+ZAhQ3qqPQAAuur0fQAA/cDTroFSUlJSVVVVXV3NduqYm5szDFNUVFRZWVlbW8vWMTU1pWlaIBAYGBgoFAq2Tm5urkAgMDY2ZjvkNOtIpVJCiIODg5GRUWZmZllZ2VM2FTqIoqjg4GDVkuDgYF1vbgIA6EF4KAUMZE873459kK3yZlgOh6NQKNjBU+UzbrlcrnI4tbS0lF2vRe3+Wc06NTU1WVlZlpaWVlZWbJce0rtuY2tr6+TkVFRURAgRiURqNyIBAED/FhAYiKfJ92YBf91p26ouvpeivr7eysrKysqqvr7e1NSULWxoaDA2NmYXenZ2dm5qaqIoys3NrampiaZpNze3mzdvataxs7MbNGhQbm5uQUFBUFCQ6jIz0A2Cg4NLSkoIIYFaf4AAAKD/UTCk0siNpjr5rHp4priM3LI+V0uFLs7tKisrLS0t3dzcGIZpamri8XiEkNLSUlNT06CgIEKIRCJ58OCBg4ODUCi8e/cuTdPe3t5OTk4lJSVqdQwMDOzt7dkVYuRyOZv2QbcxNjZmVwlSzpsEAOgrYmNjMSz7NBiG0aObaB56VXojPbpJ+9rBz+S5FIaGhnK5nJ0w99/DUBT7wDXNxTW01OFwOAKBgKIotodP12bAU2JHzzWfx6wKz6UAgF4IK+c/pd9+O/+omXnMt+/phkArLJpLrASc8PDwtio8k+fJSiQS1cSOEMIwjEQi0ZLYtVpHoVA0NjY2NDQgsesRBgYG2hM7Tap/K+PvZgCAPio0NIQnrddTNPd0Q0CdHt3MkzYMHz5cS51nktsBAABA32VoaDjYxtpcUsxh5D3dFvhfHEZu3lRsP9iWz+drq9ZtDQIAAIC+Yvjw4UZ8A6vGB/rovesd9Ohmq8YHxoZ8tSfbasIzxwAAAKAVEyaMv3o1gyovkOoZNembtnD4CopLCJY77U4Mh6H16SahrFZP1mA32LbdxI4gt4Onp1zWWHUh+NjY2Li4OEII+6+aNWvWqE7La7WOlpqYIg0A0D1CQ0MkEklGRkZ1TckginA5SOy6G61gFAwxNzUZPvwF7UOxSs/kPlkYONTuk2XzMM1/uxBufwOAduFCAQNZ+/121dXV3dAOAAAAAHh67eR2169fxxOXQYu4uDisbwcAANB7YL4ddCXVEVgsbgcAPQW9EjCQYQ0UAADob/C3JQxkyO0AAAAA+g/kdgAAAAD9h265Hf0X1XvLaRVqlZUbaveit1vSasyOxIF+D9NoAKBdGJOFgUy33I7H44lEImdnZzMzs4iIiOLiYkIIn893cnJydnZ2dHR0cnLavn07W9nBwSEvLy8zM5PH423atEkZ5MqVKzweb/fu3cqSvLw8Ho/34YcfKktajbl69eopU6Yo66SmpopEooaGhk6dOPRVuGQDQLu0rIgO0O/pPCabl5dXXFxcWlo6ePBgZQ9KdnY2W7hv376lS5fW19er7mJlZXXw4EHly+TkZGtra9UKSUlJkZGR+/fvV+2E04y5Zs2anJycn3/+mRBC0/Q777zzn//8x9jYWNdTAAAAAOivOjnfztDQcOzYsWy/narAwEAej6c2OCsSiVpaWkpKSgghDMOcOHFi0qRJqhWSkpLi4+MHDRqUlpameSxlTIFAsHXr1uXLl0skki1btjg6Os6ePbtz7QcAAADol3Re3+748eP6+vpFRUVfffXVsmXL2MIDBw7w+fzm5maxWPz222+bmpqq7RUdHZ2cnLxixYr09HQ/Pz+hUKh8KyMjw8DAwM/PLyYmZt++fWPGjNESc8KECWPHjl2xYsUvv/zSaiII/V5sbCyGZQEAANqic7/d8ePHxWJxVlbWJ598smLFCrbw1q1bN2/evH37dnZ29uDBgzX3io6OZodlk5OTY2JiVN9KSkry8/M7d+6cpaVlcnKyTCbTHvObb745dOjQ0qVLXVxcdG089AOYRgMAAKCFzv123333nYGBgVphQkIC2xWXl5cXEhKyfPlytQoikYgQ8uDBg1OnTsXHx58+fZotp2n6wIEDkZGRKSkphBChUHjy5Mlp06ZpiWlhYTFs2LCRI0fq2nIAAACAfq+Lnznm6upaV1cnk8n09PTU3oqJiVm5cqW/vz+fz1cWnj171t7efseOHezLzz77bN++fWxu15GYAAAAAKCq69cuFolEqampmuXR0dFHjhzRHJCdM2eO8mVMTMzRo0c1lzVpKyYAAAAAqNKt367VhYKVM+RYeXl57EZZWRm7kZGRQQhxcHBQKBRsyZYtW9gN1VXuCCGurq6NjY1aYrJwFwUAAABAq/DMMQAA6G/wABsYyJDbAQBAf4OVkmAgQ24HAAAA0H8gtwMAAADoP5DbQR+DaTQA0C6MycJAhtwO+hhcsgGgXXiADQxkyO0AAAAA+g/kdgAAAAD9B3I76GMwJgsAAKAFcjvoYzCNBgAAQAvkdgAAAAD9B3I7AAAAgP6jH+Z2NE23+rKD5VKptKysrCMx6f9LoVB0RfMBAAAAOq+/5Xa1tbWmpqaqJba2thUVFffv3+fxeCdPnlSWe3h4PHz4kBDi4OCQl5dHCKmoqJg5c6arq+uUKVMcHR23bt2qJWZpaSmPxxOJRM5/SUhIeOanBwAAAKAVr6cb0H3MzMyWLVt269YtoVCo+a5CoYiMjJw1a9ZPP/1EUVRpaWlUVJSBgcHf//53LTELCwu5XO4zazIAAHQGHmADA5kO/Xbp6enKrqkvvvji0qVLTU1N7733XmBg4IwZM65evcq+lZycHBwcHBoampiYSAi5fft2fHz866+//s4776xdu/att94KDAxcsmQJwzBs/U8//dTHx8fd3f2jjz5i669evXru3Lmenp4JCQmxsbF+fn5z586VyWSawXXi6uo6bdq0jz/+uNV3xWKxgYHBqlWrKIoihNjZ2W3btg3LbQAA9EW4esNApkO/XU1NTU5ODrudm5vr7e29Z8+e4uLi9PT0I0eOJCYmhoaGZmZmvv/++8ePHzc0NJw1a5aTk5OJicnnn39+4MABQ0PDyZMnX79+/euvvx43bty5c+cmTJhQWFj4888/X7hwgcPhBAQELFiwoK6ubsOGDTdv3uTz+S4uLuvWrbt27dqkSZPOnDkjEonUgr/44os6ne3atWv9/PzmzJkTGhqq9taff/4ZERGhWhIYGFhTU/PkyRMOp80M+P3331e++/LLLwcHB+vUHgAAAICu9VRjsr6+vvHx8YmJiVOnTn3ppZcIIWKx2NvbOysrixDi6ekpFovnzp0bFBQUGRl58eJFPz8/b29vQkhoaGhFRQUhRCQSXbp06Y8//rhz505dXV1jYyMhJDw83N3dnRBia2u7cOFCPT29wMDAqqqq27dvqwXXNbczMjL67rvvFi1adO3aNbW35HK55ugqj8ejaVpLbhcUFKTcy9LSUqfGAAAAAHS5TuZ2EomEEBIWFnb48OGUlJRp06aNHz9+w4YNDQ0NXC63vLycfdfDw4MQYmZmxu5lb2+vFicrK2v27NkTJkwYPny4m5sbW2hgYMBuUBTFbrPjpK0GV8PlcuVyuWqJXC7n8f73NF988cW9e/d++eWXajt6e3tv375d+bKmpqaiokJfX9/S0rKhoaGtmC+//DLm23UzTKMBgHbFxsZiWBYGLB3m2+np6bF5lUKhOHfuHCFk27ZtOTk58fHxly9f3rFjB8MwAQEBMpls2bJly5Ytq66uFggE2mMeOXJk+vTpGzdunDNnDtuTp0VHghsZGdna2qalpbEvL1y4IBQKLSwsVOts2LBh8+bNVVVVqoUzZswoKir64YcfCCENDQ3jxo2bP3/+qlWrOhgTug2u1wDQLjzABgYyHfrtRo0atWTJkpiYmMbGRj8/P0KIr6/vtGnT9u7dW1lZuXjxYoqiZsyYsWfPntGjRwuFwubm5tWrV1++fFlLzLFjx7766quPHz8uKyuzsbGJj49/55132qqsGbzVajt37nzllVfs7e3lcnl5efnevXvVKlhZWX322Wd/+9vfVAv19PSOHTv26quvrl+/nl3ixMTEpKmpSXtMe3t7tk+REPL8888fOnRI2ycIAAAA8IxRyvtVWxUXF6c6BKZQKO7cuTNkyBAjIyO2hL3BwsvLy9DQUFktNzdXIpF4e3trmammJJVKs7KyPDw85HJ5fn6+r6+v9vodCd7S0nL//n2KooYOHaoc4e2gsrKy4uJiNzc3IyOjXbt2vfHGG08fsx9T+wkBAOgNKKqd324A/ZhuuV2vUlBQsGnTJrXCOXPmBAYG9kh7Bqbu/wnBNBoAaBdyOxjI+vDaxc7Ozpq3REC/FxcXh9wOAACgLf3tmWMAAAAAAxlyOwAAAID+A7kdAAAAQP+B3A4AAACg/2jnXoqAwECxWNw9TYG+KAB3JQNA79NrV3gA6Abt5HYKhlQaudEUHqsFreAycsv63J5uBQCAOtxNDwNZO2OyDMPo0U3d0xToc/ToJiwgBQAA0Ku0k9uZDRoklNd2T1OgzxHKa81NTXq6FQAAAPC/2sntQkNDeNJ6PUVz97QG+hA9upknbRg+fHg3HxfTaACgXRiThYGs/aeypKenl1U9rhK6KKg+/BAL6FocRm7V+MDexiokJKSn2wIAoA7PHIOBrP01UIYPH27EN7BqfKCP3jsghBCiRzdbNT4wNuQjsQMAAOhtOvqXzdWrGWXl5VI9oyZ90xYOX0FxCaGedeOgN2E4DK1PNwlltXqyBrvBtkjsAKDXQr8dDGQ6/PRLJJKMjIzqmjoORbgcJHYDDq1gFAwxNzUZPnw4n8/vqWbExsZiJg0AaIfcDgYy/PTrBteLHoevAADahQsFDGR45hgAAABA/4HcTjdYgAMAAAB6M/RaQx+DoRYAaBcuFDCQYcm69rU1cx8z+gEAAKC3wZgsAAD0N5g/AwMZeq11gwU4ehyGWgAAALTAr0ndILHocfgKAAAAtMB8u/apddQpX6IDDwAAAHobzLeDPgbTaACgXfjbGwYyDG/pBgOCAAC9H67VMJCh3w4AAACg/0BuBwAAANB/ILeDPgbTaAAAALRAbgd9TFxcXE83AaCLHT169MUXXzxz5sy///3vnm5LL5Kdnf3mm2+qFTY2Nk6bNq1H2gPQVyC3AwDoYStXrvzggw9aWlru3LnT023pRYyMjPz8/NQK5XL5hQsXnvWh8/Ly/vGPfzzrowA8I1jfTjdYgAMAutaVK1fKy8tramooilIttLKycnV11azf2Nh4584dGxub06dPu7u7R0REnDp1qrS0dOrUqVZWVoQQmUz2yy+/lJeXjxo1ytvbmxBy8eLFoUOHsu+WlZUVFRUNHz6cYZhTp04VFxdHRES4ubkRQoqLi48fP87lcqOioqytrVttbW1t7d27d8PCwtS2NfdVi9/Q0HD37l07O7vffvtt3rx5HTmWkZGRv7+/8rhisZgQMmrUqE5/1B3X0NCQkZHRDQcCeBbQb6cbTPYCgK5148YNuVyelpYml8vZko0bN77zzjsWFhat1i8pKXnppZfeeOONoqKi2bNnjxs37sCBA+fOnRs5ciQhhKbpiIiI7du3FxcXv/jii0lJSYSQ3bt3b9q0id39s88+O3LkCCEkOjr6m2++KS4unjRp0oEDB7KzswMCArKystLS0vz9/evr61s9+r1791asWKG23eq+avELCwsXLFgwa9asGzdudPBYOTk5b7/9NiGkrq4uODg4OTn5+vXrUVFRnfyg21BWVnb37t179+4lJib+/vvvau9KJJIff/zx22+/TU1NZUuuX79eVlbGbpeUlPzxxx/Kyo2Njenp6QUFBdu2bWPrnzp1ateuXVVVVWwFmUx2+PDhrVu3KjtoL168qHy3rKwsPT2dEMIwzMmTJ7dv356bm9u1JwsDBQPQp+CHFvofU1PThoYGsVg8Y8aMDRs2BAcH19TUtFX53r17+vr6jx49YhhmyZIlU6dOZRiGpmkLC4sHDx6kpKSMGDGCrXnx4kVHR0eGYVJTU728vBiGkcvltra22dnZqampTk5ONE2z1YyNjb///vuIiAh2x40bN5aVlbV69CtXroSFhalt79mzR21fzfh//vknl8vNz89vtX6rx7p27VpwcDDDMF9++WVUVBRbuGvXLlNT03Y/0o5fKPbu3evv7z9ixIgPP/zQxcUlLi6OYZibN296e3s3NTU999xzM2fO/Oijj5ydnb/77juGYdasWfPOO++w+77++uvffPONMtS9e/ccHBwmTpy4evVqMzOziIiI119/fd68ee7u7gzDyOXykSNHTpkyZdWqVQ4ODnv37mUYZvHixWvWrGF3/+c///nRRx8xDDN79uwXXnjh3//+95AhQ/bv39/BEwFQwpgsAEBvcf78+du3bxsZGQmFQi3VXFxc2F49CwsLdkCTw+GYmZnRNH3r1q1x48ax1UaMGFFZWVlTUzNmzJiampq7d++WlJS4u7u7u7sfPXpUX19/wYIFhBCFQtHY2BgYGPjJJ5/4+/tHRkbGxMTY2tp2vNmRkZFr1qxR3TcpKUktfmVlpYODg4uLS6v1tce/devW5MmT2W3l2Wmn0/yZ4uLiwsJCoVD45ptv+vj4sJ2FhJDq6uqZM2cmJCRQFOXi4pKamrps2bKYmJiJEyeuX7++paXl6NGjn3/+uWqoysrKmzdvWlhYVFdXFxcX79q1S6FQWFtbFxQUXL9+XaFQ/PLLL+wn8Morr8ybN2/OnDlvvfVWbGwsTdPJycm///77b7/9lpGR8eDBAw6HM3ny5MmTJ7/00ks8Hn5Zgw7w46Kb2NhYDMsCwDMiEmIlpGAAACAASURBVIkuXbo0fvz49evX/+tf/2qrmurMPNVtQoi+vn5tbS27rVAoFAoFj8fjcDivvPLKoUOH8vPz2VsEuFxuSEjI8uXL2ZorV64cOnRodnb2pUuXTp06NW7cuJMnT4aEhGhvrXIw0czMTG1fzfgKhUIgELRVX/ux+Hy+VCplt0tLS7W3iqXThTosLIxNpkUikUgkun//Pp/PJ4TY2dnNnz8/Pj4+Ozv7119/HT16NCHE09PT1NT0ypUrDx8+HDFihI2NjWqoZ5F2l5aWOjk5dfx0ADDfTjdYgAMAnh1nZ2eBQLBt27b4+PiCgoJORAgLCzty5EhTUxMhJCUlZdiwYUZGRoSQuXPn7t+//8yZM9HR0YSQ559//vr16y4uLn5+fo8fP37jjTc2bdq0Zs2a0aNHr127NiIioq17UXk8XkFBAU3ThJBjx46xhd98843avprx9fX1lUE062s/qeeff37fvn1senf48OFOfCzalZSUKLdlMpmykywjI2PixImmpqbvv//+V199pawTExOTkpKSlJT0t7/9TS2U9rRbmaFqpt379+9XS7uXL1++cuXKGzduqKWPAO1Cvx0AQO/i7e29ZMmSJUuWnDhxQtd9x48fP2bMGB8fHw8Pjz/++OPgwYNseWBgIE3TkyZNYjuoQkNDo6KivL29vby8bty4sXPnTjc3t5EjRx4/ftzQ0LCqqurbb79tNb6Xl5e1tXVoaKi9vb2dnR1bGBkZqbavnZ2dWnzVIJr1tZ/UvHnzfvzxRx8fHwcHB1NTU2X/X1e5detWfn7+kCFDrly5UllZ6eHhwd7EkJaWNmrUqLfeeosQsm/fPuavB9TGxMSMGzeOpun9+/d3/ChhYWFLly6Ni4sTCARqaferr75aV1e3ceNGQsjzzz+/ZcsWFxcXExOTX3/9ddWqVVeuXOna84X+r6cn/PUx+MR6nHLeMQC0JS8v79KlS/X19dqrFRYW/v7779XV1ezL+vr6CxcuZGRkyGQy7Tv++eefhYWFqiWt7qsWv936WigUijt37ty6dUuhUHSkfscvFHv37vXx8fH09Jw8ebKZmdmePXuYv+6lyMzMdHBwmDFjxvjx4//2t79ZWVn99ttv7F6+vr6LFi1SC3Xv3j0PDw92++OPP46NjWW33dzccnNzGYZZuHChq6trZGSknZ3dhQsXlDs+99xzCxYsUL587733HB0dJ0+ebG1tLRaLO3giAEoU89cfItARFIVPDAC6Q0FBAbuCiSoDA4P33nuvnx39WRyr49fqpKQksVi8bdu227dvu7m5qS22R9P0jRs3RCKRtbX1H3/8YW9vz1bw8/PbvHkzu+6MTvLz8ysqKnx8fNhOu7YUFRUVFhZ6e3ubmZnpeggAZCq6QW4HAN2jpaXl0aNHaoUURSlHQvvN0Z/FsXTN7To+upqdnb1jxw6xWJyZmdnp5gE8U5hvBwDQGxkYGNjb2w+Eo/fsmbq6ukZERHS8fktLC5fLPXr06LNrEsBTQi+UbtBv1+OwDA0AtAvXahjI8NOvG1wvehy+AgBoFy4UMJBhfTsAAACA/gO5nW50eo4NAAAAQDdDrzX0MRhqAYB24UIBAxn67QAAAAD6D+R2AADQ32D+DAxkyO10g9U3AAB6P1yrYSDDjATdYA5Hj8NXAAAAoAX67QAAAAD6D+R20MdgGg0AtAtjsjCQYXhLNxgQBADo/XCthoEM/XYAAAAA/QdyOwAAAID+A7kd9DGYRgMAAKAFZiToBnM4ehy+AgBoFy4UMJCh3w4AAACg/0BupxsswAEAAAC9GXqtoY/BUAsAtAsXChjI0G8HAAAA0H8gtwMAgP4G82dgIENupxsswAEA0PvhWg0DGWYk6AZzOHocvgIAAAAt0G8HAAAA0H8gt4M+BtNoAKBdGJOFgQzDW7rBgCAAQO+HazUMZOi3AwAAAOg/kNsBAAAA9B/I7aCPwTQaAAAALTAjQTeYw9Hj8BUAQLtwoYCBDP12AAAAAP0HcjvdYAEOAAAA6M3Qaw19DIZaAKBduFDAQIZ+OwAAAID+A7kdAAD0N5g/AwMZcjvdYAEOAIDeD9dqGMgwI0E3mMPR4/AVAAAAaIF+OwAAAID+A7kd9DGYRgMA7cKYLAxkGN7SDQYEAQB6P1yrYSBDvx0AAABA/8Hr6QYAAABAbyeRSDIyMqpr6jgUxUW/UHehFUTBKMwGDQoNDTE0NOzgXui11g36+XtcbGwsZtIAgHa4Vnet9PT08opKmb5xI2+QjCugKQ4hVE83aiBguIxCj24Symt50vrBNjbDh4d2ZDf89OsG14seh68AANqFC0UXOn3mrKRFVm3oKOMY9HRbBi49RbO5pNiIbzBhwvh2K6NfFQAAAFp35coVSbO0SuiCxK5nyTj8KqFLQ3NLenp6u5WR2+kGC3AAAMAAIZFIKiqrqoVOCorb020BoqB4TwwdyysqJRKJ9protYY+BkMtANAuXCi6xPnz56uamMd8e9XCHf9P1u6O5rb6o6YXmJhbGQg6Ov0fOsiiqcTKkBMeHq6lDu6TBQAAgFZU19Q1Ch3UCof6m3I4hKIoQghh82eKEOa//yoYhmGIkSk3M+OCV8goK3tRdze6v5Pom1bXlGivg9wOAAD6G8yf6RIcisi4fLXCmDetozx5hBAFw67QQWgFQyuInCFymsgVjFROUu9L9n5T2Owd2BOt7udaOPxB7d2jjNxON1iAAwCg98OFuktwORStMdOOYph6ibyoUiKjGS6XM0ioV/akWSZnLAYJyqqbWmSMm70JLZP3SIP7qOa6x7UP81p9a5C9K9/EQrVEQXG5nHaSO+R2uomLi8MlAwAABgz1NELBMDRDmmWKFinN43H5+rymFkWLnDGSKRpbFNIWWX1Tk0wqbTXWo7LijHPiYcEj8zP/kNTXDZ84XS6TZpwT8w2FY6Lm8A2NCCG0XH717NHSghwzK9vQCVFGg8zSzxypriybPHcxRXGKsu9kXk3zGzXBztm9sa7myqmfax5VuPkG+42cQAipKi26evZYc2O9g6tH8LipXF7fSHIMhIMqs/+QSerVyvUERpbuARrV219ZsG+cNgAAAPQGCpqmFTyZXNEiZxSMXErrt8iYFpm8Rc60SBUymbS5xYCWt36/RWVJwZEd608f+B+Kw5HU1/5+7IC0uYnD4Uga6oqyMxf+vw0KBf3N8vl5mTfsnN2rSotO7N26KvGnx+UPj+7c8Jz/8CFeAb8dTrp88ucRk2c11tWsXRglaagzt7Y7c3BnzD8/9nt+/NqFUXr6BqaWNmeTv//z0q+LY7/t5g+ncyguz85nZGH6SbVyO7/RXJ5eJwJiDRToYzCNBgDahQGWZ4emFewEO1pB5Ir/zrGT00RGE7myRE5rieA7cvzXR66GTZxRV1318j8//vroVTPrwflZfxJC/vj9VF7mjRfnvfn/dv2yZO3m+prHp/ZvCxk/lRBy+3IqISQr44K7b7Cppc1vh/c+qSpf8c3uNd8f9xkRcWjL51kZF1qaJBGz/vbR1p9i3lotNDFlGEX3fCZPz8LFy9DcRrXE0Mzawtmzc9GQ20Efg0s2ALQrLi6up5vQbynkclpBaIbQCkIrGBnDyP+b1Sk3iEKubb6dq1cARVGmljaEEDefIIrimJhZMAqaEFKce5cQEhA+iRDiEfg831BYnHvXys7J2cP31uXU0oKcmkcVbKpXknefELL7i48++cfUgru3aLl8kIWV0MT02K7/vDs95P7NKyMmzaSovpPkUJR9wFjVAvuAsYTq5IPdMCYLAAAAHaWg5TKayGgio2mGIXI5kdJETiukcoWcVshpRkYztNbcjlJNWf5v+mIgEBJCGmqfEEKkLU3SlmZ9voAQEjph2sHv4i+ID3K43IAxkwghXB6Pw+XOXvKBMprTUO/PDp6/ffm3Py+eu5l25talX7/8+YrQeFAXn/8zY2ztaOrgVlOSSwgxdXQ3tnHqdKi+k9ICAABAT5PLaJmCNEnl0paW5hZpU3OztKVFKm1pamqWylrkMrmMZmitY7JaeASEEUJ+Tfm+6mHhqf3bFTTtETiCEBI0dgpFcc4fSRoWNNJokBkhxN03REHTDbVPHNyGZZwTH/6f9edSdq15dZKevv7sNz/wGzVeQdOS+touPPFuYB8wluJwKQ7Hzm/M08RBvx30MViGBgCgB8nltFxOG3BphqsgFJHLpDwOTbiMXCblcRSUHodWEIbuZG7n4ukf9Y/l4u83/nv+C4QQ/9EvjH/pdULIIAur5wKG37txOXhcJFtzVGRM5tXfdyX8ixDCNxTOXfnJEE//jHO/bF69hBBCUdTYmfOt7Drf9dUjDIxMrdz9CUXxjc2eJg6eyqIbPMemx+ErAIB24ULRJcRi8UOj59QKuS0G4wJtGpukzc0yuYKhGY5MQeRyWs5QNEPRCkJx9DLvPDh3dH3YpJmObsM6cdz6muqK4gemljaWg9WfiqGmsqSgvqbafshQdv0UhYIufZAjqa+1tHM0t7brxKF7nFzaTAjh6asvGa3KvuH+1KlTtVRAvx0AAAB01KPqpuOXimn2dlmGYRSEYRgFw25TDGEIIU2Slqc5hLGpubGpeUdqWjs4Wzs4K19yOFwHV4+nOXSP057VdTTI04cYULAABwAADGRyRfHF1AtVDwu1V7OyF/EFht3TJFCD3E43mOkFAAADmYm5lVfIqHafFcsXGJqYW3VPk0ANcjsAAADoKAOBoZW9qKdbAdpgDRQAAOhvMH8GBjLkdrrBmCwAQO+HazUMZMjtdIPn2AAAAEBvhvl2AAAA0Dr7hvs93QTQGXI76GMwjQYA2oUH2HSJ69ev45LbC8XFxWlfuxhjstDH4HoNAO3C/BkYyJDbAQAAAPQfGJMFgN5LIpFkZGRU19RxKIqLP0V7AVpBFIzCbNCg0NAQQ0M8dQCgN0JuB30MptEMHOnp6eUVlTJ940ahg4wroCkOIVRPN2qAY7iMQo9uoptrT589N9jGZvjw0J5uEvQAac1pipFyB03icPR6ui3QCvwhDH0MptEMEKfPnC2rqn5s5PKYb9/MM6IpLhK7XoCiKW4zz+gx377ayLms6tHZs+d6uknQ3aSPv1c82UnX7pSVfd3U+FihUKi+yzCMZgnDMGpBaJpW21B9SWtQiwnaIbcDgF7nypUrkmZpldBFxjHo6bZA62QcfpXQpaG5JT09vafbAt1H3nCdaRJzuWVcHkM9Sqwr3d/U1KRa4fTp0/PmzVMtWbdu3bfffqsWx8HBIS8v7/79+zwe7+TJk8pyDw+Phw8fRkdHOzs7Ozg4GBgYODs7Ozs7f/3118/upPofjMnqBneDAzxrEomkorKq2shFQXF7ui2gjYLiPTF0pCoKJBIJ5t4NEHTjLa6hESV9wrRIuYTXWH5YYTRbIBBwOP/tKho9erS/v3/HA5qZmS1btuzWrVtCoVBZ+NNPPxFCCgsLR40aVVxc3LWnMBAgt9MNZnoBPGsZGRkyfWO1Hrsd/0/W7o7mtvqjpheYmFsZCJBndBMphy/TM8rIyAgPD+/ptkB34BkFSR8f1OdKqcbSFmnTw1oPx5YW1SHXrKwssVi8Zs2aTz755ODBg4MHD3Z2dvbx8WkroKur68iRIz/++OP169d3yxkMCMjtAKB3qa6paxQ6qBUO9TflcAhFUYQQwv4eoQhh/vuvgmEYhhiZcjMzLniFjLKyF3V3owcwib5pdU1JT7cCuglX6Cstc9bn35Y31JbU2kh4L/D5/P/+xySEEFJbW3v//v39+/eLxeLLly8/efIkKChIS25HCFm7dq2fn9+cOXNCQ3FrTtdAbgcAvQuHIjIuX60w5k3rKM//z96dxzVxrY0DP1lIWAKC7DsIWJQ1EBEFVJQrUgWpClUs1mqtC21trbW16k9RUatXpdVq9V7bvnVDsVaQIqi4ocgOAkbZlyAEUJaQhCXL/P6Ye+fNSyAEK7I93z/6mZw5OfPMpMSTc545Q0UISTF8GQ4kkWISKRJjSCxBYinWLUZ3i4XnjlR3OroNRdRjVxdZddzwu8sF8mcGD0XNHSF2V3cXp/M9swm2WlpaxIQsISkpKTw8XEtLS0tLa+7cuYobZDAYx48fX7NmTXZ29qBFPbZA325gYAEOAAYbhUySyGXakTCsXSiuaRSKJBiFQh6noVLf0ikSY7rj1OqbO7pEmK2plkQkHpKAR59O3qu2F+W97hpnaqOqpStbIiVRKORh17mDL+rBQ6VSkQQhJEUa0w0MDFRVe/4SQwh1dnbq6enh2wYGBv22GRAQcO7cuUOHDr3ZUMcs6NsNTGRkJHxlADD4evYVpBgmwVCnSNrVLaFSKao0akeXtEuMMURSQZe0u0vU3tEh6u7uqzmxqDv1+qXODgHTZ27eg2RHz1nmtpO41eXZdxM7hHxjS9upfoEqdNWX9ZyslIRJLK+Kp3nCdt7UuQvFou6slARVdY0ZQctU1RkIIQGvNT35z9aXDbbOLBcvP4RQU11N5u3rnYJ2Mxt71uwFFOqI/16la4xrLMkTCdt7lKuoMfTsmHLVh13HDrwFJCRWVVWl0Wjyg3YIISaT+ddff4WFhUml0uTk5HXr1vXbYHR0NJPJ5PP5gxDsmDPiv4MAAGOBVCKRSKkisbRLjEkxcbeE1iXCukTiLjHW1S0Vibo7u+gScZ/3W5zYtp6dlapjYJwaH9PcWKc1Xk+FRo/6JJiqQtPWM0yJ/bX0SeZH3x1qrK2KO3P0Zsy/SWSysL3twfWY7s4OMpks5PNqSp5+/P+iBbzWvR8HCfm88QYmty7/EvrZdpfpc/Z+HKRCo2vrGd6O/e1J2p1PdvVc7mHEIVGoJk5e1RlJPcpNXHwoVFirdqyjariKGts7SCYqKvReO3YIoQ0bNvj6+vr7+/N4PGtra2Wa1dfX379//4oVK95osGMUrG8HRhhIoxmbJBIpnmAnkSKx9D85dmIJEkmQmCgRS3p9b3FeOjsr1S/ko/2X7k+e4oUXvqyvdfH2++ZE7P/7NUHXyLQk/38XaXP2mnM4LtNzbjCvuen9z7Yfjs/UMTCuYD9BCN27dq6lifvlkd93/pboNM33j5MH2FkPuzqEvotWbP35auin2zS0tDFsNCyyqmvtoD7eULZEXcdA12ryUMUzUDDBMnioDFcRLUyouU5bW5sqN0o9Z86cixcvjhs3LjMz89ChQ3FxcYmJiRs3buxRrb6+3sbG5p133snKyiIKw8PDMQwzNTXFX1paWsICKK8H+nZghIGv7LFJKhZLpEiCIYkUSaSYCMPE/+nVERtIKu49345T9gwh5Og5CyHEnOGPF05yn25l73wxetfmhVObG+pkF8e3cWCSSCRtPUOEkK2TO4lE1tLRxaQShFBteTFC6Pfvt+5etaDqWYFELB6nq6+hpX391x++WjilOD99mv97JNKo+F4lkUyZs2QLTJmzEGnETL/CA2wGFU3/s3HmK42NjWk0Wl91qFSqs7OzMsl24I2DOVkAwAgglYhFEiSSIJFEgmFILEbdEiSWSLvFUrFEKpZgIgkm6aNvhy/Q0CkUIIQ6hf/J5sm8HX/lxP4FH34Wtmn3L3s3tTQ19KhPvJBtikKlkimUxeu/IepYTHTcf/l+4eN7Tx6l5KfeKki7c+jPdA3NcW/y5IeIpoG5tplta20ZQkjb3E7T0GKoIwLDBZ1Op9PhmTHD16j4fQkAGO3EIolIijq6xd1dXZ1d3R2dnd1dXd3dXR0dnd2iLrFILJJgkj7mZG2dWAihhwkxnFL2/WsX8MKKp3kIIatJLvWVpTUlbCXDsHOeIpVI+G0tZraTslISrv37aMqVX3eG+6vQaIvXfePiPUcqkQjb297EGQ8LpsxZJDKFRCabuMwY6lgAAMqCcTswwsAyNGOTWCwRiyV0igSjSBEJiUXdVLIEUTCxqJtKlpJUyBIpwiS99+0s33GcvWjFnau/F2U8sHVyxwvdZs5LS/rj+Lcf6xmbWb7jUF38tKmupt8wvOeHPs188Ou+rxFCquoaYZt2T5jsmpXy14lt6xFCJBJp1nsf6JuMnvEtOkNb384VkUiqmjpDHQsAQFnQtwMjDCxDMzaJRSIVFbKRHqOzky6WYhKMbEBXFYslYoxEVydJpIhEVsGkvd/EIOC1TpmzwG3mPFUNRtOL6rLCHHWG1iSW194Ld1qbuOZ2k6kq/8kZ0jex+PluCb4dvOar4DVf4dtbf76Kb1Co1A1RPzfWVrW3NptOmIivirL73M26ylJhe5ueifl4A5PBvRBvnZHjtKEOAQAwMNC3AwCMAC+bOxLTOBL8dlkMw6QIwzAphm+TMIQhhDqEXb2+V8Brjf7qQ63x+i5ec3Lu3dAxMH6H6YkQ0tE30tE3eo1gDMysDMysiJdkMsXMxv51zmokoNJ6WZkWADCcQd9uYGABDgCGhFjKeXT3YdOLasXV9E0tVdXUexQamFnt+OWvjFvX2lub54R8NM3/PfVRca8DAAD0Cvp2AwOzgQAMCa3x+g5TvPt9VqyqmrrWeH35cj1js/krPh2c0AAAYHiBvh0AYASgq6nrm1oOdRQAADACwBooAAAARhvInwFjGfTtBgbmZAEAYPiD72owlkHfbmDgOTYAAAAAGM4g3w4AMOyY8ouHOgQAABipoG8HRhhIoxn1cnJy4FMeWSIjIxcsWDDUUfwf8ACbQdXV0VH9/Jn5xHfoampk8hBMAGIYhmGY7KExDEP/92HQEomEQqHIbsiWS+QeY0MikYbkXAbDKDkNMHbA9zUAoF+QPzN4OoXCysJ8UW1Vcfqj1uZX8p2kt+DmzZvLly+XLTl48OCPP/4oW2JmZlZeXl5cXEylUpOSkohye3v7Fy9ehISEWFlZmZmZ0el0KysrKyurw4cPv6XoBx+M2wEAAABAKZ1CYWVhAbXtlYW2Vklp6fOW5ndm+Grr6skOjL0FPj4+rq6uSlbW0dGJiIgoKCjQ0NAgCq9evYoQqq6u9vb25nA4gxLl0IFxO/B/xMfHBwQE3LhxY8eOHUMdi1LwgDMyMtatW6dM/QH9xCwvL1+1atXrhqaUkpIS+cgFAkFgYOCgHlcZwzk2AMDb1ykUVhY+oba9MtPSQp1Ca3Ua/XnB86SElpcvZb9af/rpJ2dn5+Dg4MjIyLS0NITQnj17nJyc7Ozstm7dihAqLCzctm1bWFjY5MmT9+3bt2vXLhcXl7CwMJFIhBCKjY1lsVgeHh6nTp3qKxI2m33y5EkMwyIjIx0cHPz8/EpLS/uqbGNjExgYuH379jd5LYY3GLcD/8emTZv+/e9/t7e3FxUVDXUsveuRRoMHbGpq6uLioszbVVVVOzs7lfyJyefzs7KyXi9OJTEYDPnIxWLxw4cPB/W4yhhusXW33iRh3ZRx/mSyypAEAMAYV5yXo9bWbKYzDuPzJK0tWPMrC5KkKCeNzRjH/Ie/pqYmQigjI+Pf//53WlpadXX1lClTWCxWdXX1n3/++fDhQzKZzGQyV69ezePxoqOj8/PzVVVVra2tDx48mJ2d7e/vf+vWLUtLyy1btiQmJqqrqy9atMjCwiIgIEA+kra2tuLi4osXLyYkJDx+/LilpcXd3d3JyamvyPfu3evi4rJs2TIPD49BvEDDBvTtwP9KT0/ncrmtra14UipRqK+vb2Nj0+tbOjo64uLiyGQy/rNp6tSpCCGhUHj9+vWGhgYnJydfX1+BQFBUVGRoaHjz5k07OztfX9/k5OS6uroFCxbo6+sjhDAMS05O5nA4vr6+tra2eMscDicxMZFCoQQFBRkYGBBHjIyMJPp2RMCqqqr4+Dyfz3/27JmJicm9e/eWL1/eo5FHjx5JpdLk5GR/f3/57l19fX1rayuJRLp///6kSZNmzJghu7fHSSGEcnJyTExMjI2NEUK1tbVNTU1MJrPHufSIR/4CMhgMYmahra0tISEBIeTt7d3XZ9TW1vbs2TNPT88e2/KXS3EkfV3evxPboOp+9ZuUl4RI3VJhkVR7DV1Np0cadb+J1Whs51YD8EZ0CwQSshTjtUleNYpbXvL5/E4yVdTezufz8b5dQkJCcHAwg8FwcHDAv0UtLS3T0tLy8vKKiop4PJ5AIEAIzZw5087ODiFkZGT08ccfq6iouLm5NTU1FRYWOjo6stlshNDkyZMTEhJ67dvhkpKSwsPDtbS0tLS05s6dqyBsBoNx/PjxNWvWZGdnv9kLMjzB1xb4X7m5uWKxODU1tbu7Gy85duzYxo0bdXV1e60vkUj8/Pzi4uLS0tICAgI2b96MEOrs7HRzc7t06RKXy121atVPP/1UW1u7ZMmStWvX1tTULF68ePbs2TExMSkpKV5eXng7ISEhR44c4XA4/v7+MTExCKGSkhImk8lms1NTU11dXdvb2xUH/PTp088//xwhVF1dvXr16kWLFuXm5so3kpWVhWHY/fv3e52ZvXPnTlhY2KpVq6qqqlauXLl7925il/xJIYSuX7/+/fff4xV27Nhx7949+XORjafXUygtLcUj5/F4LBYrNjY2JycnKCior8/o+fPnX375ZY/tXi+XgkiUvLwDjW3wiPk5WEcChVJPoWKkl6d4dRc7OjpkKyiTWI3Gdm41AH+fnQtTyNAqq6gUv2wUN7/itfOfd0rarO0N3plE/Ari8Xjjx4/Ht/GfWGw2m8lkXrhwQU1Njfj1TqfT8Q0SiYRv47/E+Hw+hULhcrlcLtfT03PRokUK4uns7NTT08O3+/qNSggICHB0dDx06NDrnfvIAuN2AzO6l2bYsGHDtm3bdu/ejXdTfvjhh3Pnzt2+fXvcuHG91o+Li1NTU7t48SJCaNu2bQ8ePEAINTc3v/fee/v27SORSNbW1nfv3vXz82tsbMzPz9fV1W1ubuZwOL/++qtUKjUwMKiqqqqqqsrKyqqsrCSTyfPmzZs3b96SJUsyMzOdnZ1/+OEHhNDx48cFAgH+NGGFDgAAIABJREFUi7CvgJ8/f04Ustns0tJSa2vrc+fO9Wjkiy+++Prrr/ft29fXnCyHw6murtbQ0Fi3bp2Tk9PMmTPxcvmTioiICA0NnTt37tGjR7u6uuLj4w8cOHDv3r0e55KamkrEo/jinz59evLkydeuXUMI/fbbb0QHThnylysnJ0dBJPJXptfL+0ZieyMkggKKOoPU3YJ1dVMQVcC9JmUsVpNZfGFAidVoTOZWA/D3qaqr206ZWsznlz/JGC/uKu6StFrbmzFZRkZGxHeIi4tLYmLiZ5991tXV9fjx488//zwuLm7hwoUHDhyQSCT9/hvKZDJzc3MjIiIQQnv27FFTU1Nc+a+//goLC8MnZPrNuo6OjmYymXw+fyAnPSJB325gxs4CHPfv3y8sLGQwGLL/+PWQl5c3ffp0fHv69Ol4387ExOSDDz6IiooqKSm5c+eOj48PQsja2hof/NPV1cV/XZHJZB0dHYlEkpOTQ6PRVq9ejRCSSqUCgaCurm7+/Pk7d+50dXWdP39+aGiokZGR8pGbmZnhHanXaMTT0xM/X0tLS0tLy+Li/6yg2+tJTZ48WVtbOz09/cWLF9OmTTM0NDx37pz8uRDxKFZQUDBv3jx8e/bs2cqfb69nev78eQWRDPTK/J3Y3ggqw7371WUapZskqOvq7njRZm/e1SWbOcBmsxMSEnbu3Ll79+7Lly8bGxtbWVkpSL6xsbHx8vLavn370aNH38oZADAakMnkcTrjJ870fd4hqCphCyyszJ2ZZmZmBgYGRCcsPDz8999/X7hwYUdHx8SJE9XV1WfNmhUeHv7q1av6+npDQ8OoqKiNGzf2dYjg4OCzZ8/6+PhoaGh0dnZu27ZNQTwbNmzw9fX19/fn8XjKfM3q6+vv379/xYoVAz3xEQf6dqB3eIbEnDlzjh49+vXXX/dah0wmE7O3+P1NCKGsrKzg4OCtW7du2bLl3XffjYuLQ/837alHChSFQpkyZcoXX3yBv9y0aZOhoSGdTi8pKUlLS0tOTp49e3ZSUtKUKVOUjJz4itHR0RloI7W1tcS2SCSiUqkKTgohFBoaeuXKlYqKCvzLQv5cJBKJ4t+dBFVVVeJi1tXVKfOWpqamvs5UcSQDvTKvEdubRdFw7q63oqkWivlttW2GQuo/VFVVZf9HGmhiNRp7udUAvBEUCkVbV+8d/wUVBsa6xqba2tr6+vpqamrE32Ntbe3333+vpqZmbW09b948MzMzOzs7NpvNZrPt7e3FYnFFRYWzszORk0OMkROzpX/++WdZWZlQKHR0dOwr4XXOnDlz5sxBCGVmZrLZbCMjI/k52fr6enxD9pa48PDw8PBw4qWlpeWoHKSHvh3onZWVlZqa2unTp729vfE8JPk6Xl5e33zzzZ49e6hUanx8PF6Ymprq7e396aefIoQuXLggO7jSq+nTp588edLa2lpLS+vOnTvfffddenr6kSNHmpub9+7d6+Pj8/z584cPHyrftyP01YiCkAoKCioqKiZMmJCent7Y2Ghvb6/4pEJDQ2fPni2RSPCJaflzOXPmjJLR4u9dv349jUbDZz97RaVSq6qq8Nz/69ev93WmXl5eCiIZ6OVVMrZBRVFzR4jd1d3F6XzPbIKtlpaW/Je+8onVaOzlVo81ozt/ZmhRKBQdPT3HGbPEYjGNRqPT6bI/tKRS6QcffPDJJ59wuVxdXV38hgkajUZkTTg7O/d7CCItDyFUVVWFpzjLWrZsmZubG0KISqUq0+BYA327gRlrz7FxdHRcv379+vXrb9y4Ib937ty5Fy5ccHd3Hz9+vIGBAYPBQAjNmzfv6NGj7733Xnt7u6mp6Z07dxTP4nl4eAQFBTk6Ojo4OOTm5v7yyy8Iofnz53t5eeG3wTc1NcknxSuj10bMzMyWLVt27tw5IpO3x/kGBgZaWFhkZGT8+OOPxHy0/Endv39/5syZ9vb2+vr6U6dOVVVV7etclLR8+fJLly45OTmZmZlpa2v3Ndrn4OBgYGDg4eFhampqYmLS15mamJgoiGSgl1fJ2AYVlUpFEoSQFGlMNzAwwC94DwNKrEYIBQQEnDt3bozkVo81Y+qL+u2jUCjq6uq97rKxscnPz797966bm9usWbP+/rGsrKzgj3TAMDAQcMVk1dfXZ2dnFxQUVFZW/vbbbx999BFeLhaLMzMzGxoaMAzLzc3FNxSrrq5+8OBBc3MzUdLe3v7w4cOsrCyRSCRbc9u2bcpHKN9IU1PTgwcPJBKJfOVz584tXbqUx+M9evRIPua+TsrZ2fnhw4eKz0VJUqm0qKiooKBAKpUqrvnkyZPq6mrZkl4vl4JI+rq8fz+2v2/Xrl3yhR3cX8UvZvBSGY8epeLL9Mi6ffv20qVL9+3bFxYWhmGYRCKxt7ePjo7uUc3IyKisrOz58+csFgsvaWxsNDU1HTduXG1tLV5SVVVlZmb2hk9ptOv1IwOjAHyyw1O/nwuM24H+VVVVnT9/vkchnU5fvHhxQEDA4cOHdXR0Dh48ePLkSXwXnuyFbzOZTGUOYWFhYWFhIVvCYDCIhAzZABoaGqKiovAA8FVXFJBtBKenp2dubr5//37508FXqtPU1CRuEJElf1IlJSVnzpwRi8U9DiF/Lqjvayh7CiQSycHBQZn68nMQ8mfaVyTy9Qca25CgariKGts7SCYqKvS+UnAGmliNxlJuNQBg7IC+HeifsbHxypUrexSSSCQTE5Nbt25duHCBTCafOXMGX0R3sAN48uQJ/rCEHvdkvF5rBBKJVFNTgy9KrKSuri4KhUIkGr7eQd9U/b/jbR7rtVEZrh2tYUJNiraaNnGPC0GZxGo0tnOrx5qxlj8DgCzo24H+0el0U1PTXne5uLgo+bCvNxVAX5G8XmuyTExMBtQ9dXJyUnwnpjIHfVP1/463eay/g6b/2TgNoYqKCo1G66sOJFYDnOwDbAAYa6BvBwAYGeh0eq93wAAAAJAFzxwDAAAAABg9oG8HRhiYZwEAAAAUgL4dGGEiIyOHOgQAAABg+IK+HQAAAADA6AH3UgwMPMcGAADAqIdhWGpq6lBHAV4TjNsNDCR7AQAAGOkUrP+HYVh8fDyLxfryyy/fblDgjYG+HQAAAAAQQuj27dtTp07dvn37t99+m52d3Ve1ro6OkrzcDoFAKpW+hagwDOtxIPzJWrIlEomkx4bsS4mctxP5UIG+HQAAgNEG8mcG6vbt2x4eHps2bfr666+fPHkSEhLS18NpOoXCysJ8UW1Vcfqj1uZXPfpSg+HmzZvLly+XLTl48OCPP/4oW2JmZlZeXl5cXEylUpOSkohye3v7Fy9ehISEWFlZmZmZ0el0KysrKyurw4cPD3bYQwjy7QYGnmMDAADDH3xRK+/27dvfffddZ2fnjh07lixZovh5g51CYWVhAbXtlYW2Vklp6fOW5ndm+Grr6lEolMGL0MfHx9XVVcnKOjo6ERERBQUFGhoaROHVq1cRQtXV1d7e3mPhoYIwbjcwsAAHAACAUQDPq3N3d//mm2+2b9+ueKwO1ykUVhY+oba9MtPSQp1Ca3Ua/XnB86SElpcvidG7jIyMffv24dvff/99WlpaR0fH5s2b3dzcgoODMzMz8V2xsbEsFsvDw+PUqVMIocLCwqioqJUrVxLvlcVms0+ePIlhWGRkpIODg5+fX2lpaV9B2tjYBAYGbt++/fUuy+gAfTsAAACj0K5du0h9kx3YG8s16+vrc3NzFy5cSCaT5Wv2uKTFeTmUV41mmhoYnydpbcGaX1mQJN05aexHqUKhEK/T2tpKdLzKyspaWlrOnj3L4XAyMjI++OADvCf39OnTLVu2nD17NjY29vTp0zdu3ODxeAcOHAgJCdm0aZP8R9nW1lZcXHzx4sWEhITHjx+fOXPm2rVrCj76vXv3xsfHE/3IMQj6dmCEgTSaMUvQ1fWwtJTf2fl2kqB7zbzuNU1bcbl8xjdR0mOXvNGd7j3Ydu3ahfWtR09oDNYkkUhBQUF1dXW3bt2aMmWKk5PT5cuXpVKpbE35q9otEEjaWiTNLyUvG8QtL/n89k4ytbW9nc/n9/VBODs7p6ennzp1isVinTlzBiGUkJDg6OjIZrOzs7MnT56ckJCAEHJ3d58/f76qqmpf7SQlJYWHh2tpaVlaWs6dO7evagghBoNx/PjxNWvWiEQiBdVGMejbgREG0mjGpvbOzszqaiGGPSgvf9na2m/6tkgkSkxMHOgugkQioVKplpaWVv+1b9++vtK029ratLW1Zd9uZGTU0NDw9OlTKpX6008/EeXp6elUKvX333/HX65Zs0YgECgI49KlSzdu3FAcKgB/k5+fX2Zm5pEjRw4dOuTi4hIbG9trrw4hZOfCFDK0yioqxS8bxc2veO38552SNmt7g3cmkcm9dCfwwTxPT89r167V19cHBgZ+8cUXCCE+n0+hULhcLpfL9fT0XLRoEUJIR0dHcZydnZ16enr4toGBgeLKAQEBjo6Ohw4d6u/sRyfo2wEAhrv2zs6s6mo6ne5ta0uj0e5WVDT1170TCoVfffXVQHf1UF1dzfkvPH0HT9NW3CGTpa+vf/nyZeJlbGws8W9SVlaWgYGBbLq3vJCQkBMnTvT1Dy0Ab5AyPTxVdXXbKVM79E3K6+p57e3FXZJWa3tTJsvIyEhTUxOvo6KiwuVyEUJSqTQlJQUhdPr06dLS0qioKHw6FcMwJpMpEokiIiIiIiKam5vV1NSUiZDJZP711194y8nJyf3Wj46OPnHiRFNT04Cuw+gAfTsAwLCGd+zUVFWnWFqqk8k+NjbqWlq3Kitlu3fyydobNmyoqalZt24dQmjPnj1OTk52dnZbt27tsatHQne/BpqmbWlp2dXVVVtbixDCMOzGjRv+/v74rn379uExKEClUt3d3fsdZQTgTfHz88vIyNi7d++BAwdYLFaPvWQyeZzO+IkzfbsmOlZR1QR2juZuU8zNzQ0MDIj+mbe3d0VFRWhoaGBgoIuLC0LI2dk5IiIiKCjIz8/vk08+IZFIwcHBNBrNx8dn3rx5KSkpnp6eysS2YcOGZ8+e+fv7e3l5WVtb91tfX19///79bW1tA7wGo4KCKXkgD67YkNu5c+dQhwAGV49Uob8KCu5VVnbLlAglkp/z82MyMng8Hl5y6tSp0NDQ7u7u2NjYVatWYRjW2tpqb2+PYVhVVRWTyWxtbeXxeDY2NqWlpcSuoqIiKysrNptdVVXl5uaWmJhIHEIsFiOENm3atPm/srKynj9/zmKx2tvbJ0yYkJGRgWGYra1tbW1ta2srg8GQjVlPT4/L5RYVFbFYrEOHDh05cgTDsMePHy9dunTdunW//fYbhmGTJk1S5mr88ccfO3bsGPhVfKsUZ3eBkUgqld6/f7/XT1YsFjdxuRk3/srPz6+qqhIIBD2y9CQSyZMnT9rb24mSlpaWzMxMgUAgW620tPTJkyd4BqqSRCLRkydPGhoaBng2o02/f3Gwvh0YYSIjIyHlbkwhI9QlFkulUvTfhJ72zk5yVxe/uZnP5+MzQc7OzlFRUadOnVqwYMGSJUtk325paZmWlpaXl1dUVMTj8QQCgb6+Pr6LSOhGCOEJ3QEBAbLvdXd3J1bt0tPT6+rqQjJp2gpW7ZcVEhKydOnSL7/8MjY2NjQ09ObNmwihpqamcePGKfP2iRMnEvl5ALw1JBJpxowZd+/eld9FoVB09PQcZ8wSi8U0Go1Op/e4o5ZMJjs7O8uWaGtrT5kypUc7tra2PUqqqqpk81Nxy5Ytc3Nzw7epVGqPlkGvoG8HABjWvGxs7hQX3ykvn2Vjo0YmNwqFyWx2V10dy8iISN/Gk7WvXLkSGBg4Z86c6Oho4u1sNnvx4sV+fn5Tp07t8W8JkdCNt2Bvb9/j0O+//77siqzFxcX4RkBAwLlz54g0bQqFgo/zEcRiMZX6n29XS0tLhFBlZWVycnJUVBTet2tvb1dXV1fm9DU0NHg8njI1AXhrKBSKkv8DD4iVldWYvfvhzYJ8u4GBBTgAeMs0VFWnWVq2tbUllZdX8/k32ezW2loXXV3Z9G35ZG303xVG4uLiFi5ceOzYsWXLljU0NOD18V2vl9CNk03TZjAYRkZGqamp+K6HDx9qaGjo6uoSlUNDQzdt2uTq6kqs72BtbV1XV0cEU15ejs9M9dhACJWWljo5Ob3+5QMAjD3QtxsYmA0E4C0jk8m648bNsrZub2u7W1IiaGhg6un1SN+WT9ZWU1NraWk5ePDgrFmzrly5smbNmoULFxoaGkZFRRG7+k3oNjU1Nf6vxYsXy+7qkab9yy+/LF261MPDw83NLTQ0tMcsakhISFxcXGhoKFFCIpHGjx+P328rFAptbW1fvnwpv4EQKikpgUkoAMCAwJwsAGC4o1Ao+trac62ts2tqzM3MtLW19fX11dTUiCwfT0/P0tLS0tJSBwcHfKqIRqPl5+c3Nzc7ODiw2Ww2m21vby8WiysqKohdZDL5zz//LCsrEwqFjo6Osgt0USgUrLeVR7Kysojt8PDw8PBwfNvX17eioqK4uJhEIk2cOJFOpyOEHBwc8PpmZmbEKsQnT57ENz755JNLly6tWrVKQ0MDk1vNmNi4efPm2bNn38hlBACMEdC3AwCMAHj3braaWl/p2/LJ2vh4G0KIRqMRDxrHx8CIXai3hO7XQ6fTBzTAFh4evmzZslWrVimok5mZOXPmTCXvugAAABzMyQ4MzMmOXOXl5Yr/HQXDHJ6+raWlpaqqKv+kyxGHTCbv2rWLeApnrxgMRkRExFsLCQAwOkDfbmAiIyOHOgTwmvh8vuyEGgBDbtKkSYpvNpw8ebKCx2sCAECvYE4WjEL19fWtra0kEun+/fuTJk2aMWOG7F6hUHj9+vWGhgYnJydfX1+EUE5OjomJCT5JV1tb29TUxGQyifodHR1xcXFkMtnPz6+0tHTq1Km9NiIQCIqKigwNDW/evGlnZ+fr65ucnFxXV7dgwQJ8QTUMw5KTkzkcjq+v75uaBwQAAAB6gHE7MMIoswzNnTt3wsLCVq1aVVVVtXLlyt27dxO7Ojs73dzcLl26xOVyV61aha+Tef369e+//x6vsGPHjnv37hH1JRKJn59fXFxcWlpaQEDA5s2b+2qktrZ2yZIla9eurampWbx48ezZs2NiYlJSUry8vPCmQkJCjhw5wuFw/P39Y2Ji3tgVAQAAAGTAuB0YYZRMeeRwONXV1RoaGuvWrXNycvr888/x8ubm5vfee2/fvn0kEsna2vru3bsRERGhoaFz5849evRoV1dXfHz8gQMHiHbi4uLU1NQuXryIENq2bduDBw/6agQh1NjYmJ+fr6ur29zczOFwfv31V6lUamBgUFVVVVVVlZWVVVlZSSaT582bN2/evCVLlhDL2wIAAABvCvzTAkYnT09PDQ0NhJClpaWlpWVxcTGet2RiYvLBBx9ERUWVlJTcuXPHx8cHITR58mRtbe309PQXL15MmzbN0NCQaCcvL2/69On49vTp0/G+Xa+NIISsra3xFWt1dXUNDAwQQmQyWUdHRyKR5OTk0Gi01atXI4SkUqlAIKirq7OwsHib1wQAAMBYAHOyYHSqra0ltkUiETFClpWVNXfuXG1t7S1btvzzn/8k6oSGhl65cuX8+fMrVqyQbYdMJotEIqIdxY3I3rzZ40ZOCoUyZcqUL7744osvvti0aVNubq5sDxIAAAB4U6BvB0YYJedkCwoKKioqEELp6emNjY3Eo0JTU1O9vb0//fRTR0fHgoICYoXY0NDQixcvpqWlBQUFybbj5eWVlJSEPy00Pj5ecSMKTJ8+PScnx9ra2sXF5dWrV2vXrsWXtwUAgBGno6srr7RU0NFBLMr9pmAYpsw3aq/wx/TJbsi+lMh548EPH9C3AyOMksvQODo6BgYGBgQEvPvuuz/++CM+P4sQmjdvXlpa2nvvvefn5/fixYs7d+7cv38fIWRvb6+vr79w4cIeS07MnTvXxcXF3d3d19dXIBAwGAwFjSjg4eERFBTk6OgYEBCwbNmyHTt2vM7JAwDAUBN2dhbW1HAw7HFZWXNra4+O1N90+vRp2bvfBsTMzKy8vLy4uJhKpSYlJRHl9vb2L168CAkJsbKyMjMzo9PpVlZWVlZWhw8ffkNRDzuQbwdGJwcHh9OnTxcWFtra2uKpby4uLoWFhQihqqqq3NxcS0tLAwODvLw8U1NT4l0ffvhhj3a4XO5nn31Go9E0NTXv37+P9+EmT54s34iBgcGzZ8/wd+3Zs4doobS0FN84dOjQZ599Vl1d7ejoqKOjM5hnDwAAgwLv2LXS6dpmZqVlZS1lZTNtbHS1tSkUylCH9r90dHQiIiIKCgqIX/UIoatXryKEqqurvb29ORzO0EX3NkDfbmCUWYADDBOamprEbRCy8NQ3fBtfx66kpOTMmTNisZhYr4TQ0dEREBBw+PBhHR2dgwcPEg8DlW9EGRYWFnD/BABghCI6dloWFjyE1Gxtn5WWCsvL59nY6P23e1dYWBgXF8flctPS0qZOnXrixInMzMyUlJTvvvsOIfT999/7+PhoamrGxMRUVlbm5+d/8MEH3d3df/75p4ODw//8z/8ghGpra999992qqqoFCxbs27cPz5aOjY39/vvvyWTy6tWr165dW1hYGB8fX1paOnHiRLxlWTY2Nl5eXtu3bz969Ohbv0jDAvTtBgaeOTYi2NjY4OsJK6mrq4tCoRDpdLKsra1v3bp14cIFMpl85swZT0/PNxcmAACMJLmlpW2amtoWFu0ItSLUTCIhG5usJ080i4v/4eSkqamJEOLxeHv27MnJyTl8+PDs2bNTUlIkEgkxfVFWVubo6IhhWHR0dH5+vqqqqrW19cGDB7Ozs/39/W/duoUQio2Nzc7ONjIymjdv3i+//PLJJ588ffp0y5YtiYmJ6urqixYtsrCw0NLSOnDgQExMzJw5c3oNde/evS4uLsuWLfPw8Hhr12f4gL4dGIU8PT0H1AlzcnJycnLqa6+Li4uLi8ubiAv8LR1dXc9raiaamanR6WRy77nCeCJ2X3uHkHxOEolEIpPJEokEH+2QSCRkMln29mqipMd78TcihMRiMZfLNTY2Jlro9RA9Wuv1ZY8SoqkedcBYh2GC7m6SVMojk19iWLNUyufzKQIBj8/n8/l43w4h5OLi4ujoiBDy8PBoaGjQ09OTb2nmzJl2dnYIISMjo48//lhFRcXNza2pqQkh5Ofnhz+558MPP7x169Ynn3ySkJDg6OjIZrMRQpMnT05ISAgLC3N3d58/f35fkTIYjOPHj69ZsyY7O3sQLsRwN+y+AQEAQJ7i9G2RSJSYmIgQunnz5vLly//msYjW3qC+8rjx7O+nT59SqVT8ASe49PR0KpX6+++/SyQSKpVqaWlp9V/79u1DCJ06dcrY2DgkJMTc3Pzzzz/HMExBqnh5eTmVSv3222/xlwoOh78kjqijo+Pr6zvqk5OAklxtbRnt7ZVlZS+l0maptJ3H6yoosGlstNfVlf1BJZvE3INQKMQ3iIUCSCQSvk38isBXCUUIGRoadnV1IYT4fD6FQuFyuVwu19PTc9GiRQihfrOWAwICHB0dDx069HonO6JB325gYE4WgLcP79i10GjaNjbVNNrdsrJX/7d7JxQKv/rqK4SQj49PdHT03z3cf1t7g65evcrhcNLT042NjTkcDofD+frrr2Ur6OvrX758mXgZGxuL3wOEq66u5vzX9u3bGxoaNm3alJOT8/jx4+rq6pqamtOnTys4xPnz5+fPn3/x4kVidQnFh0MIlZeXczicuro6Y2NjyDMGOHVVVQ9ra4O2thelpe08nqioaEJDA9PIyMjIiBi0k6eiosLlchFCUqk0JSWl36PcunUL/+uOj49nsVgIISaTKRKJIiIiIiIimpub1dTUlAw4Ojr6xIkT+HDgmAJ9u4FRcgEOAMCbIpu+3UEmq9naPtPSulFe/lKme7dhw4aampp169ax2Wz8fpfCwsJt27aFhYVNnjx53759u3btcnFxCQsLwxegjo2NZbFYHh4ep06dQgh1dHRs3rzZzc0tODg4MzOTaA0htGfPHicnJzs7u61bt/bbbFxc3A8//LBgwQIHB4dt27YNaPUsS0vLrq4ufM1tDMNu3Ljh7+/fV+WOjg4ajaauro4QUlFROXTo0LRp0xQ0fv78+aioqHHjxqWmpg7ocOrq6rNmzYJxO4Ajk8k648bNtLGx5/FUSkomvnrlbmJibm5uYGCgoL/l7e1dUVERGhoaGBioTH7LhAkTpk+f/u677+bm5n766acIoeDgYBqN5uPjM2/evJSUFOVTbvT19ffv39/W1qZk/VED8u0AAMOaMunbJ06cyM3N/fnnn1NSUoqLixFCPB6vr2RtS0vLHnnZ+ChXRkZGXFzcqVOniNaqq6v//PPPhw8fkslkJpO5evVqBc2+++67XC53586dWVlZxsbGAQEBZ8+elV9VR4GQkJDY2Ngvv/wyIyPDxcVFdvmGLVu2EHNe77//PovFCg8Pt7GxWbBggZ+fX3BwsIL5qaysLDqd7uLiEhoaeuHChRkzZvR7OIRQYmIijUarqan55z//iT8uGQCEEIVC0dXWnmdjY1hZaTxhgra2tr6+vpqaGjGj6uXlRSw4QNym+uzZs6KiogkTJuBLhOLV8A3ilwMxebp27dqmpqb6+vrJkyfjN8mSyeQ///yzrKxMKBQ6OjqSyWTZoxDq6+vxjaysLKIwPDw8PDyceGlpaTkWfqvAuB0YYWB6aMzBMEF3d5tU2oxQk2z6dksLn89X8D48Wdvc3LxHsjaRl52dnY3nZTs7O6enp586dYrFYp05c4ZowdLSMi0tjc1mx8TE8Hg8gUCgoFn8LbNmzbKzs2MwGCtWrEhOTh7QiYaEhODzpLGxsaGhobK73N3dWf+FZ6b/+OOPT58+9fPzi48bK6JeAAAgAElEQVSPt7e3VzDVdf78eRcXl5SUFD09vdjYWOLReQoOhxBKTExMSEhgs9m7d+/+8ssvB3QiYHSjUCh62tozJk+2trY2NDSU7dj1hUwmOzs7Ex27funr6zs7OxPPisTZ2to6OzsPwzulhiEYtwMjDKQ8jmIYhhGThgRXW1ves2eVZWWYrW0zhrXzeN2FhTaNjfbm5oq/5ftK1ibyshFCnp6e9vb2np6e165du3LlSmBg4Jw5c4jUCzabvXjxYj8/v6lTp+I37iloFkfcEmhoaNje3j6g07e0tEQIVVZWJicnR0VF3bx5k9j1/vvvy64N+/Dhw8bGxkWLFn300UcfffTRr7/+euTIkV4Xg5BIJDExMfPnz79y5QpCSENDIykpacKECYoPhxA6fvw4PBYP9IVCoeApAWB4gv4vAOAt2bVrV19dcwzD8Lxp+SEiJdO3lX8GpXxe9unTp0tLS6Oioh4/fnzmzBniiZZxcXELFy48duzYsmXLGhoalGn89u3b+NOHExISXF1dlQyJEBoaumnTJldX1x7Pvuuho6Pj22+/xccREUJdXV1aWlp9xWNqanrmzJmTJ0+ePHly/fr1Fy5cGOjhAAAjC4zbAQCG2O3bt7/77rvOzs4dO3YsWbKkx9MkifRtYXl5cWur9atXziYmZmZmsunbampqLS0tBw8edHd37/dwwcHBZ8+e9fHx0dDQ6Ozs3LZtG5lMDgwMPHfuXGNj4yeffKKuro63NmvWrPDw8FevXtXX1xsaGkZFRW3cuFFx47q6uj4+PuPHj6+pqbl79+5AL0VISMhXX3117dq1HuWmpqbE6OD06dP/+OOPsLAwe3t7JpPZ3t7e1NR0/fr1Xhs8f/78smXLiJehoaF79+7dtGmT4sMBAEY2DAwEXLEht3PnzqEOAbymnTt39vj4bt26NWXKFCcnp8uXL0ulUrxw165d8u8Vi8Xcly9vZGXl5+dXVVUJBAKiPq6urq6oqEj5YEpLS588eSKRSPCXLS0tmZmZAoGgR2tdXV15eXkdHR3t7e1PnjxR3ObPP/+8ffv2xsbGvLy87u5u5YN5Pe3t7dnZ2c+fPyfOYqj0+pGBUQA+2eGp388Fxu3ACBMZGQkpd6NAj7G6fnOxifRtsVhMo9HodHqPtxgbGxsbGysfAJE/h9PW1iYeECzbGo1GI6ZWnZ2dlWlZX19fX19f+UheG4PBUGacEgAw1kDfDgDw9mAYFh8fj9+ssHPnzsDAQOUfaTX807dnzpxJ5MABAMBQgXspBgYW4BgOSHJkR/J27dolXwFqDqua9fX1ubm5CxcuxB9X2oPy/ycMN/b29jCQBgAYciRM6ZvLAADg78C7d/h/FczJRkZGwo+okQU+stEKPtnhqd/PBcbtAABDwM/PLzMz88iRI4cOHXJxcYmNjYXfmQAA8EZA3w4AMGSghwcAAG8c9O0GBu7QBOCN8/Pzy8jI2Lt374EDB1gs1lCHAwAAIxv07QaGeBgRAGCgFDyXgkQiBQUFZWdnEw8XBwAA8HqgbwcAGC5IJNKMGTOGOgoAQD86urrySksFHR1SqfRtHlcikfTYkH0pkfOWwxs+oG8HAAAAAGUJOzsLa2o4GPa4rKy5tbVHN2tQmZmZlZeXFxcXU6nUpKQkotze3v7FixchISFWVlZmZmZ0Ot3KysrKyurw4cNvLbZhBdYuBgAAAIBS8I5dK52ubWZWWlbWUlY208ZGV1ubQqG8zTB0dHQiIiIKCgo0NDSIwqtXryKEqqurvb29ORzO24xnuIFxOwAAAAD0j+jYaVlYdJDJara2z7S0bpSXv5QZvSssLNy2bVtYWNjkyZP37du3a9cuFxeXsLAwkUiEEDpx4oSrqyuTyTx58iRC6NNPP83Ozsbf+OGHH5aUlCCEYmNjWSyWh4fHqVOn+orExsYmMDBw+/btg37OIxOM2wEAAACgf7mlpW2amtoWFu0ItSLUTCIhG5usJ080i4v/4eSkqamJEOLxeNHR0fn5+aqqqtbW1gcPHszOzvb3979165ampmZ0dHRaWhpCyNfX18nJycbG5sKFCywWq7Ky8vHjxxMnTnz69OmWLVsSExPV1dUXLVpkYWEREBDQazB79+51cXFZtmyZh4fHW70KIwGM2wEARoZuoaAi/VGngN9XfrREIsEw7I1nTw9SOrZ8qBiGyS/vB8njYBjBMEF3d5tU2oxQE4Y1S6V8Pp8iEPBaWvh8PlFr5syZdnZ25ubmRkZGH3/8sYqKipubW1NTU1JS0qJFi/T09PT09FavXp2cnPz+++9fvXoVw7CLFy9+9NFHCKGEhARHR0c2m52dnT158uSEhIS+YmEwGMePH1+zZg0+IghkQd8OADACdPHbOblZ0g5hRVpq66uX8unby5cvX7p06c2bN5cvX664KZFIlJiYqORx79+///77779OxP2RD/XgwYM//vhjj2qQPA6GD1dbW0Z7e2VZ2UuptFkqbefxugoKbBob7XV1yeT/7U7Q6XR8g0Qi4dv4QwWFQqGenh5Rjc/nm5iY2NjYZGRkXL58ecWKFXghhULhcrlcLtfT03PRokUK4gkICHB0dDx06NBgnOyIBnOyAIDhrovfzsnLptPpJm5TKrPSq1LvWnrN1NbTJ9K3u7u7Hzx4wOFwhEKhq6ur4taEQuFXX3317rvvDn7givj4+PQbqixIHgdDTl1V1cPaWlBWlltaKjYwEBUVTWhoYBobGxkZ4ROyirm6up47d27z5s0IoRs3boSFhSGEwsLCdu3aZWpqampqihBiMpm5ubkREREIoT179qipqSluMzo6mslkyo4aAgTjdgMFT00G4C3DR+zodFUz5hSKusaEad4MdfWqu7daXzYRo3effvrpy5cvP/zwQzabjedoFxYWRkVFrVy5cseOHZs3b3ZzcwsODs7MzEQIbdiwoaamZt26dfLHiouL++GHHxYsWODg4LBt2zbZ+c09e/Y4OTnZ2dlt3boVL4mMjLx37x6+HRoayuVye+SAEzHs27dP/lh4qBiGRUZGOjg4+Pn5lZaWKrgOkDwOhhyZTNYZN26mjY09j6dSUjLx1St3ExNzc3MDA4N+O2EIobCwMAzD/vGPf/j5+WEYhvftFi9efO/ePXxCFiEUHBxMo9F8fHzmzZuXkpLi6empuE19ff39+/e3tbX9/bMbVTAAABhOdu3aJfvy6c0bVal3pd3dRIlYKMj75efMP2J4PB5e0tnZaWVlhWHY7du3ly5dimHYw4cPGQxGQkLCDz/8EBoa2t3dHRsbu2rVKgzDWltb7e3tez30zz//PG7cuJKSkvb2dm9v799+++3evXtLliypqqpiMpmtra08Hs/Gxqa0tBTDsPPnz+MN5ufns1isoqIiKysrNptdVVXl5uaWmJhIxNDR0SF/LDzU8+fPs1istra2qqoqXV3d6OjoHtWMjIzKysqeP3/OYrHa29snTJiQkZGBYZitrW1tbS1ep6qqyszM7DUu9ZvS4yMDo0avn6xYLOa+fHkjKys/P7+qqkogEEilUiUblEqlz549e/78ueK3lJaWPnnyBM+gBfL6/YuDcTsAwPBGJom7uzHsf4fQugT8bhKpuZ2veCLG3d19/vz5Hh4e6enpp06dYrFYZ86c6fdos2bNsrOzYzAYK1asSE5OxgstLS3T0tLYbHZMTAyPxxMIBAihwMDA5ORksVh8/vz5Dz/8sNcccDwGVVXVvg6XlJQUHh6upaVlaWk5d+5cxbFB8jgYDigUip629ozJk62trQ0NDdXU1PB0OmWQSCR7e/t33nlH8VtsbW2dnZ1lc/jAgMCFAwAMa9Ye0/mdnRUP7ko6hAgh4cvGZynJ9R3d495xUPzVr6OjgxDy9PS8du1afX19YGDgF1980e/hiFxvQ0PD9vZ2fJvNZjOZzAsXLqipqdna2uKFmpqaU6dOvXPnzh9//LF06dJec8DxGBTo7OwkjmhgYNBveJA8DoYDCoWirq6upaWlqqqqfMcOvDXQtxuYvp50DgAYJHQNDfMpnjxeW3lKUjun+llKcm1L23hHFyXTt0+fPl1aWhoVFfX48eMzZ85gGIYQwuSWGiHcvn1bLBYjhBISEoh7HeLi4hYuXHjs2LFly5Y1NDQQlUNDQzdv3uzs7Kynp8dkMkUiUURERERERHNzszLpRwghJpP5119/IYSkUikxTKhYdHT0iRMnmpqalKkMABiDoG83MJGRkUMdAgBjC5lMHjde19JrZjufX5p6t6FdqOvoqnz6trOzc0RERFBQkJ+f3yeffEIikdTU1FpaWg4ePNhrfV1dXR8fn/nz5z9+/Hjjxo144axZs65cubJmzZqFCxcaGhpGRUXh5QsWLCgvL//www/RwHPAcRs2bHj27Jm/v7+Xl5e1tbUyb4HkcQCAYiQFv1+BPBIJrhgAgysyMlL+hnSJRNL6somTl0MyNtPW1tbX11c+y6e1tbW0tNTBwUFdXR0vqa+vb25udnBw6FHz1KlTtbW1n3/++YsXLxwcHFRUVIhd3d3dbDbb3t5eLBZXVFQ4OzsjhHg8nqOjY3l5OVGzrKxMKBQ6OjoqnyokFovZbLaRkZEyc7LDU68fGRgF4JMdnvr9XGB9OwDACEChULT19NVm+IrFYhqNRqfTlc/y0dbWnjJlimyJsbFxV1fX119/3aMmj8czMDDQ19fX19fvsYtGoxFTtHjHLiMjY+fOnevWrZPtAhLZeLKqqqp++umnHoXLli1zc3NDCFGpVLxBgBCKj48/efLkpk2bHjx4sGfPnqEOZ1grKSk5cuTIzz//TJQIBIKlS5dev359CKMCwwH07QAAIwOevv2mWrOyspK/I+H58+f4PbDKMDIy2rhxY783t/Z1LNCrTZs2/fvf/+bz+UVFRUMdy3DHYDBcXFxkS8Ri8cOHD4cqHjB8QN8OAAD+w97eXvnKlpaWlpaWgxfMGJSens7lcltbW2UHZdPT0/X19W1sbOTrCwSCoqIiQ0PDmzdv2tnZ+fr6Jicn19XVLViwAB95FYlEf/31F5fL9fb2dnR0RAg9evRo4sSJ+N76+vqampqpU6diGJacnMzhcHx9ffGRVw6Hk5iYSKFQgoKCFMyVd3R0xMXFkclkfOnpqVOnIoSEQuH169cbGhqcnJx8fX37DVL+6EoGwGAw8LHktrY2fM0db2/v17vyYJSBeykAAAAMC7m5uWKxODU1Fb9VGSF07NixjRs36urq9lq/trZ2yZIla9eurampWbx48ezZs2NiYlJSUry8vBBCEonE19f3X//6F4fDCQgIOH/+PELo999/J+bH9+/fHxcXhxAKCQk5cuQIh8Px9/ePiYkpKSlhMplsNjs1NdXV1ZVYCqcHiUTi5+cXFxeXlpYWEBCAP0qrs7PTzc3t0qVLXC531apVP/30k+Ig5Y+OEFIygNLS0s8//5zH47FYrNjY2JycnKCgoNe99mB0GezVk0cZuGIADDZ4yMGI8wY/Mm1tbT6fn5CQEBwcHB0dzWKxWltb+6r8/PlzGo328uVLDMPWr1+/YMECDMMkEomurm5lZeWVK1emTZuG13z06JG5uTmGYXfv3nVwcMAwTCwWGxkZlZSU3L1718LCAn8EwqNHjzQ1NX/77TdfX1/8jceOHauvr+/16H/88cecOXPw7e+++87b2xvDsBcvXnz77bf4QxdOnz69bNkyxUHKH10kEp09e1aZALKzs1ks1qFDh4KCgvCSX3/9VVtbW9lrrQT4Yxye+v1cYE4WAADAsHP//v3CwkIGg6GhoaGgmrW1NT6qp6uri89dkslkHR0diURSUFAwe/ZsvNq0adMaGxtbW1tnzJjR2tr67Nmz2tpaOzs7Ozu7+Ph4Go22evVqhJBUKhUIBG5ubrt373Z1dZ0/f35oaKiRkVGvh87Ly5s+fTq+PX369AcPHiCETExMPvjgg6ioqJKSkjt37vj4+CgOMicnp8fR6+rq5s+fv3Pnzn4DwBUUFMybNw/fJs4XjHHQtwMAADDs4M95mzNnztGjR+XvaCbIZub1uHWaRqMRqwBKpVKpVEqlUslk8tKlS//444+KiopVq1YhhCgUypQpU4hnlmzatGnixIklJSVpaWnJycmzZ89OSkrqcZ81jkwmd3d349vEU+CysrKCg4O3bt26ZcuWd999F5/zVRCk/NENDQ3pdLoyAeBUVVWJMOrq6vqq9nrc3d3xTD4wrLi7uyuuAH27gYGVfgAA4C2wsrJSU1M7ffq0t7d3SEiIlZXVQFvw9PTcsGFDZGSkmpralStXJk2axGAwEEJhYWHh4eE8Hu/YsWMIoenTp588edLa2lpLS+vOnTvfffddaGhoc3Pz3r17fXx8nj9//vDhw167Vl5eXt98882ePXuoVGp8fDxemJqa6u3t/emnnyKELly4gPW3Hqr80dPT048cOaJMALItrF+/nkajXbt2baBXqV/jx49/422Cv6m5uVlxBejbDQw8cwwAAN4aR0fH9evXr1+//saNGwN975w5c2bMmOHk5GRvb5+Xl3f58mW83M3NTSKR+Pv747O9Hh4eQUFBjo6ODg4Oubm5v/zyi62trZeXV2Jiorq6elNT048//thr+3Pnzr1w4YK7u/v48eMNDAzwjuO8efOOHj363nvvtbe3m5qa3rlzZ8GCBQqClD86Qmj+/PnKBIBbvnz5pUuXnJyczMzMtLW1lXzYHRjd4CkLAIDhBZbCH3GG80dWUVGBL0eC9736UlNTU11d7ejoqKOjgxDi8/lPnjyh0+murq5Uau+DIFwu98WLFzQaTVNT8/79+/fv38d7ZhKJJDc319LS0sDAIC8vz9TUtN8njvQ4upIBEDAMY7PZUqnU0dFR+TW9lZGQkADjdsNQc3Oz4t8MMG4HAABgWKuqqsJXMJFFp9PxZUcUmzBhwoQJE/qtZmFhYWFhQbxkMBjEGiV9HX3x4sUBAQGHDx/W0dE5ePDgyZMn8V14Ch2+zWQy+z20/NGVDIA4fRKJJP8APTCWQd9uYHbt2gXTsgAA8DYZGxuvXLmyR+GbHaB6jaObmJjcunXrwoULZDL5zJkznp6ebzmAQTocGAWgbzcwkZGR0LcDAIC3iU6nm5qaDsOju7i49Hjq11sOYEiQSMpmcylfE7xZ0LcDAIwM3UJBbUG+iZMLTU2dTH7bz9TB/4lSfrBEKpUORpD4wqSyLcsHJpFIKBSK7IZsuUQi6dEmiUR6+9cTjFDjx4+3t7cvKSl5+fKl4ppWVlYmJiZpaWlvJ7ARra2tjcPh9LrL3Nx83LhxA20Q/p4BACNAF7+dk5sl7RBWpKW2vnop30EZbAcPHlR8u6Ks+/fvv//++4MRxs2bN5cvXy5bIh+YmZlZeXl5cXExlUpNSkoiyu3t7V+8eIGvJ2JmZkan062srKysrA4fPjwYoQIAlMRgMJ49e5Yj59mzZ+rq6q/R4PDq28XHxwcEBNy4cWPHjh1DHcvwIhAIAgMDla9fXl6OL8s5SEpKStatW9ejcKBBDpLhHBt4PV38dk5eNo1Gs546nUajVaXebX3Z9Pa7d8OBj49PdHS0kpV1dHQiIiIEAoFs4dWrVzkcTnp6urGxMYfD4XA4ClYGBqAvOjo6Hh4e1tbWU6ZMmTp1qqGhIV5uYWExdepUNzc3olNCIpGsrKw8PDzc3d3Nzc0RQiYmJh4eHjo6OlpaWh4eHubm5vJ1yGTyxIkTPT09PT09J06cOLqHlikUSq+33bi5uamoqLxGg8PrYm3atOmbb74Ri8VFRUVDHcvwIhaLHz58qHx9Pp+flZU1ePEwGAz5LJOBBjlIhnNs4DXgI3Z0uqoZcwpFXWPCNG+GunrV3Vuy3buOjo7Nmze7ubkFBwdnZmbihbGxsSwWy8PD49SpU3jJ8ePHXV1dWSwW/rSAEydOuLq6MplM/A7HwsLCvXv3fvrpp25ubuvXr8dnPyMjIx0cHPz8/EpLS/uKMC4u7ocffliwYIGDg8O2bdukUimxa8+ePU5OTnZ2dlu3bkUIRUZG3rt3D98VGhrK5XLl4ywsLIyKilq5cuW+ffvkj8Vms0+ePKlkYDY2NoGBgdu3b1f6YgOgLBKJRKVSNTQ0qqqqRCIRfp+vjo6OmZlZY2NjbW2tlpYWXtPAwMDExKSysrK2ttbc3FxfX7++vr67u9vS0tLS0lIsFr948UK+jp6enp6eXkVFRVlZ2fjx44m+42hlY2ODP5iOMH78eGVu8e7VMMq3S09P53K5+GOhZQv19fVtbGx6fUtHR0dcXByZTMa/4KZOnYoQEgqF169fxxc08vX1FQgERUVFhoaGN2/etLOz8/X1TU5OrqurW7Bggb6+PkIIw7Dk5GQOh+Pr62tra4u3zOFwEhMTKRRKUFCQgqWJ5KvJt9bV1ZWQkNDS0uLn54cvrS4Sif766y8ul+vt7e3o6IgQwoO0tra+ceOGubn5zJkz8SyZtrY2/Hkv3t7efcVQX1/f2tpKIpHu378/adKkGTNmyO7tcTUQQjk5OSYmJsbGxgih2trapqYmJpMpHzafz3/27JmJicm9e/d6zAEhhBgMhqurK76tTJBtbW3Pnj3D7yOT3VbmAvaIpN+PZqCxgWGu/PEjDTVVMyaLpKKCECLT6DYz5xTGnK14dN/+H+9qamoihM6ePcvhcDIyMuLi4k6dOuXh4fH06dMtW7bgq78uWrTIwsJCVVX13LlzqampNTU1s2bN0tTUjI6OxpOBfH19nZycSCTSnj17cnJyDh8+PHv27JSUlMbGxoSEhMePH7e0tLi7uzs5OfUaIZfL3blzZ1ZWlrGxcUBAwNmzZ/G/9Orq6j///PPhw4dkMpnJZK5evdrOzu7s2bOzZs168uRJZWWlkZGRfJxaWloHDhyIiYmZM2eO/LHa2tqKi4svXryoTGAIob1797q4uCxbtszDw+NNfBpgrMAwLDU1td9qtbW1ra2tGhoaJiYmCKHx48djGFZTUyORSHR1dfHl+rS1tSUSCb6oslQqHT9+fFNTU1lZGf5HV1RUJJVK5es0NDQghMzMzJqbm58+fdre3j64JzzUSCQSi8VKTk4mSlgs1mvfDT2Mxu1yc3PFYnFqairxaLxjx45t3LixR0+WIJFI/Pz84uLi0tLSAgIC8JV+Ojs73dzcLl26xOVyV61a9dNPP9XW1i5ZsmTt2rU1NTWLFy+ePXt2TExMSkoKsXRQSEjIkSNHOByOv79/TEwMQqikpITJZLLZ7NTUVFdX177+l+q1Wo/WRCLRzJkzL126lJeXN23atPz8fIlE4uvr+69//YvD4QQEBOCrFtXW1q5YsWL9+vV1dXVffvnl2rVrEUI8Ho/FYsXGxubk5AQFBfV13e7cuRMWFrZq1aqqqqqVK1fu3r2b2CV/NRBC169f//7/t3fncU1ca+PATxK2sBkUlD0gYBECYRNwYVMUEFDEmitQtNbWVvHW5bXaSv0BWqxLa61ovWDx1gWk4L2KBmVRKWpBwAXFxsoiYFQQFSGyk+X3x3nv3LxJCEFFAn2+f/gZh2fOeWai8HBm5pydO3HAli1b8CiC9EVoaGhYvnx5eHj4zZs3pTutrq7+/PPPFU/yzz//XLduncS2IhdQIhNFPprB5gaUHZnE7+0Vif47GNbT0d5LIrW8am9vb8d7HB0dr127lpyc7ObmlpqaihBis9kMBoPD4Vy/ft3Ozo7NZp89e3bFihU6Ojr29valpaX5+fnh4eF4bGD58uX4WyqTyWQwGOrq6u7u7k+fPs3NzY2OjtbV1aXT6XPmzJGTo6+vr42Njba29pIlS4jvznhFVA6Hk5GRwePx8IMBeXl5fD4/LS1t6dKlMvNECLm6ugYHB2toaPTXneKJaWtr79+//5NPPiEWPAUAyZ3PSyQSnTlzxs3NjfimLQceOydGZMhkMl66l/gSQohCoRCD2U+ePGltbRU/pL+Y1tZWDofD4/EMDAwcHBzweMToZmhoSExzSKfT3+SUlWjcbtWqVbGxsVu3bsXVxo8//nj8+PELFy7094ZIdnY2lUo9ceIEQig2Nvby5csIoZaWlgULFmzfvp1EIllaWhYWFvr7+zc3N1dUVIwbN66lpYXL5f7zn/8UCoXjx4+vr6+vr68vLy+vq6sjk8mBgYGBgYHvv/9+WVmZo6Pjjz/+iBDav39/R0cHHhuQIB1248YNida6urpoNBpe68bS0rKoqKi2tlYoFObk5CCEgoODFy9ejEfFqqqqzp49O2nSJC8vrxUrViCEUlJS7Ozs8PqAv/zyi5z/Zlwut6GhQUtL67PPPnNwcMCVjcyrERMTw2Kx5syZ88MPP/T09Jw5c2bHjh2//fab9EVACHE4nOrqaktLSzmfmuJJvt4FlMjk+PHjinw0b54bUB6W7tOqrhQ+uFxoOd2bQtXsfN5872JeY1fvBGc34hEcT0/P06dPnzx5MjQ0dNasWXv37m1vb6dQKPimp6enp62t7YkTJ4hfgidOnNjT0yM+rwQuEyVmmuju7tbX18fb8pcWIMImTJhA/MrB4XAWLlzo7+/v4eGBB6F1dHQ8PDwuXbr0r3/9q7S0FPcrkSdCiFicoD+KJ4YQCgoKOn78+O7du+WHvUW4aJD+Eyi/CxcubN68ubu7e8uWLe+//z7+UaW4V69eGRgYGBgYvHr1ikaj4Z3t7e06Ojr4H7mFhUVXVxeJRLK2tu7q6hIIBNbW1hUVFdIxxsbGY8aMqampqa+vd3V1lb+syKjh5ub26NEjhJCLi8ubtKNE43biioqKkpKS+vr68Hp/Mt26dWvatGl4m9gwNjb+4IMPEhMTlyxZkpCQgH8zsLS0xIN/48aNc3V1RQiRyWQ9PT2BQHDjxg01NbXly5cvW7YsOTm5o6PjyZMnwcHBDQ0NTk5OsbGxXl5ehoaGMhOQDpNujc1m+/j44PgNGzasWbPmzp07M2fOxHumTp3a3NyMf4e1n98AACAASURBVIkxMzObNGkSQsjAwACnfefOncDAQBxJHCKTp6cnvlD48YX79+/LuRp2dnY0Gu3atWtsNnvq1KkTJkyQeREQQqampvILu0El+XoXUCITBT+aN88NKA91LS2zKZ48XlvtxdxX3IZ7F/MevWwby2AaGhoSlX1KSkp1dXViYmJJSUlqaqpIJHJ2du7r64uJiYmJiWlpaaFSqU5OTvn5+QghgUBgZWVlYmJCDLCdP3+euI8vztnZGf9sEwqF4vdKpF24cIHP5yOE2Gw20VR2dvb8+fOTkpIiIiLwDSaEEIvF2rBhg6OjIy7OpPNU5Joonhi2d+/en3766dmzZ4o0Dv6aLly44O7uvn79+i+++OL27duLFi16jRuCzc3NPB7P2traycmJuAX35MmTrq4uV1dXV1dXKpXa2tpqamqqpaXV0NDQ0NCgoaFhbm4uHcPj8bS1tadMmeLu7i4SiXDZN+rp6OjY2tra2toSTyu+HiUatxOH72XMmjXrhx9+6O8dLjKZTPzTIW43lJeXh4WFffXVVxs3bpw7dy5+Ylr8H6jEP1a8OMzatWvxX9evXz9hwgR1dfWqqqri4uK8vLyZM2fm5uYSC8iIr5mop6cnESbd2qFDh4hx5vb29ra2NjU1tba2NrwHj13jtQKlq1gNDQ3x/xtyLhcu84lLQSw+KPNqIIRYLNbJkycfPHiwZMmS/i7Cq1evFPkxo3iSBOIHjCIXUCIT6UOIj+at5AaUEJlMHjN2HH26T31hfvuVwqedPeMYTqampuPHjyf+YTg6OoaGhh4/fry5uXnFihUkEiksLOzYsWNeXl5aWlrd3d2xsbHOzs4ZGRkhISGPHz/29/dfs2ZNbm7u7Nmz8XRxkZGRxEsYhFWrVvn5+QUEBPB4PPm/54wbN87Ly2vs2LEPHz4sLCz8448/EEK+vr7R0dEvXrxobGycMGFCYmJiZmZmSEjIRx99RDw7IZ1nSUnJgNdE8cQwAwODb7/9Fv9/B0CCxFid/JKupaWFmLKO2MBVGkJIKBTevXtXU1OTz+cT3375fH5lZSX+39rZ2YkQwi9oSzQiEdPX13fjxg0qlUoikfAI39s+byXl6Oj45o0oaW1nYWFBpVJTUlJmzJiBZ2OSjpk+ffqmTZu2bdumoqJy5swZvPPKlSszZsxYvXo1Qig9PX3AGbGnTZt28OBBS0tLXV3dS5cubd68+dq1a3v27Glpafnmm2+8vLz+/PPPq1evEgWE+J0F6bDp06dLtPbFF1/s3Llz06ZNKioqmzZtUlNTCwkJWbVqVUJCApVKPXny5OTJk/sbasa5rVy5Uk1NDd9Y7M+dO3cePHgwceLEa9euNTc329ra1tTUyLkaLBZr5syZAoEA39GWeRHkX7fBJqmiolJfX4+nTj179qziF1AiEzkfzZtcQKDkKBQKTd/Awm8O99YNE3tTGo1mYGCAv+njAE9Pz+rq6urqant7ezzzAplMPnXqVE1NTWdnJ4PBIJPJVCr18uXL9+7dU1NTs7GxQQgVFBTcv3+fRCJNmjSJRCJNnz6deAz3hx9+wBtlZWUcDsfQ0FD+rc+5c+d+/vnnjx8/tre3V1VV9fHxwQP2HA6Hw+HY2try+fwHDx4ghPAz5sHBwfhA6TzF05A2a9Ys/I6FnMQaGxvxhvjL8tHR0dHR0cRf6XR6f3Olgr8I/FxdQkICQiguLi40NPRtrWOGizOJvqR3DhgjFAolZvD5K1BXV3/zRpS0tsMYDMbKlStXrlx5/vx56a/OmTMnPT3d1dV17Nix48ePxxVSYGDgDz/8sGDBglevXpmYmFy6dEn+zTh3d/d58+YxGAx7e/ubN28ePnwYIRQcHDx9+nT85tqzZ8/6m7BUOszY2Fiitblz52ZlZTGZTD09vcePH1+5csXU1NTb29vBwcHW1vbWrVv4UTyZoqKifv31VwcHB1NTUxqNJmcUjcFghIaGmpubl5aW7tu3jxgClL4aRUVFPj4+tra2BgYGHh4e+GFtmRdBQQomaW9vP378eHd3dxMTE/w6lYIXcMBr/ua5gREBl3dUbz8+n6+mpqauri7xc4hGo0kX+sSb7xiZTBZfUp1EIuHn2+RQUVEhfo2ur6/HLySJi4iIwBv4MSOJr6qpqRG3aB0dHUtLS+Pi4j777DOJOask8pTfHX4QRzwxZUB8HOI3N+Lj43HpgP+UEBcXR/y2TETKBJFvPZLYbmxsbGxsnD9/vsxI4ldxMLKM4LXempqaHj9+rKampqOjU1RUVFRUhEsBgUBw8+ZNOp0+fvz4W7dumZiYDPis8cOHDxsaGhgMBvEIc3t7++3bt9XV1Z2cnIhbnNJkhkm3VlVV9eLFC2dnZ+LFtwcPHuB5SeQ/HyoSiTgcjlAoZDAY/f1GlZaWxmazU1JSKisrra2tJU62v6vBZDJ/+ukn8eEB6bQVpEiS2J07d2g0GvEeEFL4AopT8KMZbG5AeSQkJIj/7FF+f/75Z0dHB36WV76GhgYOhzNnzhzxpcBGAYmPDN6lUH7in4uce7JsNnvs2LHDlCPoV0tLS0hIiJwApR63w+rr6/FEIeLU1dUXLlwYFBT0/fff6+np7dq1C88+iv7z9BjeljnRszRzc3PxggMhpK2tTdQ94gm0trbid3/U1dU3bNggHianNfyShLiJEycqMichiUQihhn6uw74NWkdHR3ihRJx0lejqqoqNTWVz+dLZC6dtvx+8aQzEknKj5ceZlDwAvZ3yGBzA2AoDDj4R8BvOw1pMgAMlr+/v7+/P67wtm3bpshTd0DJjYDazsjI6MMPP5TYSSKRjI2NCwoK0tPTyWRyamoqngt3qBM4cuQInpXq3f+77+86PHz4EE9KrKCenh4KhUI8ofja/b6t+DfxLvsCAIBRTGaFN9xJgdc0gu/JDgtTU1Pxl1IBAG/diLsnC+AjG3Hk3CsXiURnz54lHpSEe7JKaDTck1Uqjx8/Hu4UAAAAgDci5wlIEok0b9680NDQK1eu8Hi8lpaWd5gXeDugtgMAAADA/0Eikby9vWFEVjklJCTIH7dT0nUpAAAAAADAa4DaDgAAAABg9IDaDgAAAABg9IDaDgAAAABg9IB3KQAAAAAwMIFAgDfIZDIxkyixEyEkvuAKXkAcb4jHK7JHZpuKtAMwGLcbHHhjCAAAwIA6OjpCQ0MViayqqvrss8/wNq5puFwuniRf2aioqNDpdAsLCz09PT8/Py6XixDS0NAwNze3sLAwMzMzNzc/dOgQDjY1Na2trf3jjz9UVFTEV0a+du2aiorK0aNHiT21tbUqKipffvklsUdmm7GxsXPnziViCgsL6XR6e3v7UJ/1SAS13eDAqogADJeOnp6r1dXt3d1CoVDBQ0QikeLBgyXduEgkkpgNnhh+EB+HIP4qkDJ02YJ3jM/nX716VZFIbW1tJpOJtzU0NAQCQWdnZ1lZ2VBm9/pqa2u5XO6TJ0+MjIyIwY6qqiq8Mz09fdWqVa9evRI/xMDAIDMzk/hrVlaWxLrnaWlpwcHBJ06cEP/vI91mXFxcdXX1qVOnEEICgWDNmjU//vijjo7OEJ7tiAW1HQBgBHjV3V3W0NApEl2urX3e2ipRKvUnPz8/KipqiFKSbnzXrl379u0T34OHLu7fv6+iopKbm0vst7W1ffz48aJFiywsLExNTdXV1S0sLCwsLL7//vshynZU6unp+de//vXzzz/X19fjPX19fadPn/7HP/5x9+5dvKejo6O0tLS+vj4lJaWwsBAhlJeX989//vPZs2cIocbGxnv37v3555/JycmXL1/urxGEEJfLTU5O/vnnn5ubm/EekUiUm5t76NChmpoaIqytrS0tLS0tLa21tVUi26KiIh6PhxB6/PjxpUuX8M7bt2+3tLQ4OTkhhH7//XehUJiXl4f/eTc2Nh4+fPjSpUt8Pv+tXra3QFNT09fXF4/biXNxcVFRUZH470mn03t6evCSTiKR6Pz58wEBAeIBaWlpiYmJY8aMuXLlinRfRJtUKvUf//jH2rVrOzs7Dx48aGZmtnDhwrd9ZqME1HYAAGX3qru7vKFBXV19hrW1mppa4YMHzxQr77y8vPbu3TtEWQ2qcT09vZiYmI6ODvGd//73v7lc7rVr14yMjLhcLpfL/eKLL4Yg09Gpr6/Px8fn119/vXXr1tSpUysqKgQCgZ+f36FDh7hcblBQUFpaGkLo0aNH77///qeffvrw4cOFCxfOnDkzIyPj4sWL06dPRwhdunQpMjLyo48+qq+v//DDD7du3SqzkaqqKmdnZw6Hc+XKFScnJzwutWjRoj179nC53ICAgIyMDIQQj8dzc3PLysq6cePGvHnzJBL+/vvv8ZjTvn37Zs2ahWvEDz744MqVK59//jlCqLy8XCQSFRUVCYXC58+fr1ix4unTp+vWrVu5cuU7vbJynTt3Licn5+DBgzt37gwKCsI7MzIy0tLSUlNTo6KiPv/8cxqNJnHUokWLsrKyEEKlpaVMJlNLS4v4Unl5ubq6OpPJZLFY6enpxH6Zbfr7+/v6+q5bt27Hjh379+8f8rMdseBdisGJj4+H27IAvEu4sKNqaLjR6aoIeVlZ5dfUFNTVzba0NKDR8HPWS5YsiY+Pnzhx4tq1a+l0+rp16y5cuHD58uV58+ax2eyFCxdmZ2c3NTUVFxd7eHj89NNPJBKpsrJSemdWVtbOnTvJZPLy5cs//fTTysrKM2fOVFdXT5o0afPmzRKJcTgcNpsdFxe3devWzMxMIyMjCwsLBwcHmWdhZWU1ffr0r7/++ocffhjyS/bXkJGRQaPR8M0+S0vLoqKi2tpaoVCYk5ODEAoODl68eDEeWG1ubq6oqBg3blxLSwuXy/3nP/8pFArHjx+PR/u4XG5DQ4OWltZnn33m4OBgYWEh3UhZWZmjo+OPP/6IENq/f39HR8eNGzfKy8vr6urIZHJgYGBgYOD777+fkpJiZ2d3+vRphNAvv/yybt068YTnzp178eLFpUuXFhUVeXp6/vbbb35+fg8fPnR2dsYBa9eu/eKLL7Zv315TU/P8+fPvv/9+0qRJ06ZN+/vf//4uL6x8586dU1FRUVFR2bp1a2RkJN55584dNTW1vr6+qqoqHx8f6aMWLVq0ePHidevWZWVlsVis/Px84ktpaWlMJvPixYv6+vp79+5NSkpSVVWV0+aePXvee++99evXW1paDvG5jmBQ2w1OQkIC1HYAvEtXqqu1dHRwYYcQUieT/a2tj1ZWFtXWzp08GT9tQ6PR8vPzP/nkk9OnT+vr669bt+7MmTN2dnZtbW3379/n8Xjbtm27cePG999/P3PmzIsXL/r7+0vvNDIy2rhx47lz5zQ1NcPDw83NzXV1dXfs2JGRkTFr1izpxHDjJ06cYLPZJSUlL1++dHV17a+2Qwh98803TCYzIiLC3d19qC7WX8nNmzeJH/kbNmxACMXFxc2cORPvmTp1anNzM74xamlpOW7cOITQuHHj8JNeZDJZT08PD/16enriYSQ6nU6n0y9fvizdSHBwcFxcnJOTU3BwMIvFMjQ0TEtLU1NTW758OUJIKBR2dHQ8efLkzp07gYGB+FiiEUJQUNC2bdva29ufPXv25Zdf4hvEs2fPxqWMBDMzs0mTJiGEDA0NJR7iHF779+9XV1eX2Ll9+3Z8DWtra6dMmbJ27VqJADqdjhCqq6vLy8tLTEwkajuBQJCRkREcHHzy5EmEkJaWVm5uLn4Hpb82x40bN3nyZDzsCvoDtR0AQKmREerh84VCISL/7zMkr7q7yT097S0t7e3tuLYLDg7++eefp0yZ4u3tXV5e3tbWVlhYuGHDhurqanwIk8lkMBgIIXd396dPn8rceePGDQaDweFwEEJ2dnZsNjsyMtLV1TU4OFhOerm5udHR0bq6urq6unPmzJETqa2tvX///k8++eT69etvelEAQmQymXj1pL29va2tTU1Nra2tDe8RCoVCoVBFRQUhJD5HhvR8Gfg5MKyvr09dXb23t1eiEW1t7aqqquLi4ry8vJkzZ+bm5lIoFPGCY/369RMmTNDQ0CCOffLkiURHdDpdT08vNTV12rRps2bN2rNnD0Kov1VBxe9ajiBWVlY8Hq+vr0+6YGWxWOvXr3dyctLQ0CB2XrhwwcTEJDU1Ff/122+/TU9Pl3i/WE6boD/wvB0AQKlNt7LqevXqUm1tl1CIEGru7MzjcHqePLGn0cj/qfZ8fHxKS0svXbrk6+vr4+Nz8uRJMplsbm5ONGJiYiLdssTO9vZ2CoXS1NTU1NTk6ekZHh6OENLT05OfXnd3t76+Pt6WePtPWlBQEIPB2L179wDnDBQwbdq07Oxs/J7Bpk2bvvvuO09Pz+zs7K6uLoTQyZMnJ0+erK2tPWA7d+7cefDgAULo2rVrzc3Nc+fOlW5kz549cXFxXl5e33zzjZ+f39WrV6dNm3bjxg1LS0smk/nixYtPP/1UXV192rRp6enpuLzDd2YlzJ07d8eOHT4+PhMnTuzu7s7OziYeWSMo1Sjda6DT6XhIUsKiRYuys7NZLJb4zrS0tIiICOKvLBbrzJkz0tOa9Ncm6A+M2wEAlJqWhsZUOv3Sgwe5tbUuRkZX/vyz9dEjp3HjDA0NiekPNDQ0mEzmwYMHL1y4oK2t/eWXX/7tb38bbEfOzs43b96MiYlBCG3bto1KpSryU9bZ2TknJycyMhK/4UhMVNafvXv3Ojs7w6Rcby48PDwrK4vJZOrp6T1+/PjKlSumpqbe3t4ODg62tra3bt0Sn3dDDgaDERoaam5uXlpaum/fvuDg4NOnT0s0EhwcPH36dHy//tmzZ/v27TM2Np43bx6DwbC3t7958+bhw4cRQlFRUb/++quDg4OpqSmNRqNSqRJ9zZ07d/fu3d7e3gihmTNn3r17d8KECeIDh6amphEREf/v//2/t3aZ3iqZ/yP6+vrE/1pbW4s3Ghsb8UZ5eTlCyNTUlBhnPXjwIN4Qn+UOIWRlZYXfN+qvTUzm67RAHNR2AAClRiaTx40Z42tpmV9XV/jqVc/Tp876+qampuPHjxf/2Tl37tyKioqJEydqa2vX19fLv5EqU1hY2LFjx7y8vLS0tLq7u2NjY0tKSgY8atWqVX5+fgEBATweT5GHuw0MDL799tslS5YMNj0ggUQiZWRkVFVVvXjxwtnZGd/pO3To0IMHD54+ferg4IAH7d5777179+7hQ7Zt20Ycju/XX7t2zd7ePiUlpbKy0traGo+8ymykvr7+9u3b6urqTk5O+Fbv7t27//73vzc0NDAYDDy+q6qqeu7cOQ6HIxQKGQyG9P1fX19fojwibkS6urri6gchVF5efu/ePXt7eyLn9957r7KycgiuHxjNSCN9+PcdI5HgigEwtBISEqQXgBEIBM9aW68/fGhGJtNoNAMDAyqVOhRrDdXU1HR2djIYDOKG74D4fD6HwzE0NBzwnuxoJfMjGxHS0tLYbPaJEyeGOxElNXI/2dFtwM8Fxu3ehdra2sTERDxoDwB4DRQKxYBGm0ml8vl8NTU1dXX1IVpE0traWmJPfX29+IpJWEREhIuLC95WUVFxdHQcimTAULOysvLz8xvuLAB4y6C2exfa29uJIXcAwOuhUCiamprvvl8LCwt4+2G08vT09PT0HO4sAHjLoLZ7yxobG1tbW0kkUlFR0eTJk/Ezs4TOzs6zZ8/ixzjwL4s3btwwNjY2MjJCCD169OjZs2fEPJYIoa6uruzsbDKZ7O/vX11d7eHhIbORjo4O/Exufn6+jY2Nn59fXl7ekydPQkJCDAwMEEIikSgvL4/L5fr5+UkPSwAAAABg1IA5UAZnwCcPpFewIb7U3d3t4uLy66+/NjU1ffTRR/guz9mzZ3fu3IkDtmzZ8ttvvxHxAoHA398/Ozu7uLg4KCgIT84psxH5i+ogWWvjAAAAAGBUgnG7wVFkUQqJFWzwQoEIoZaWlgULFmzfvp1EIllaWhYWFsbExLBYrDlz5vzwww89PT1nzpzZsWMH0U52djaVSsUP+cbGxuJ1rGU2guQuqlNfXy+9Ng5+zwsAAAAAowz8gH/7JFawuX//Pn4539jY+IMPPkhMTKyqqrp06ZKXlxdCyM7OjkajXbt27fHjx1OnTp0wYQLRzq1bt6ZNm4a3p02bhms7mY0guYvq3LhxQ3ptHPFpXQEAAAAwasA92bdPYgUbYoSsvLx8zpw5NBpt48aN3333HRHDYrFOnjyZlpYmMeUVmUwm5m8kNvprRM6iOsTaOGvXrl2/fv3NmzfFK0gAAAAAjCZQ2w2OIvdkJVawsbW1xfuvXLkyY8aM1atXMxiMO3fuEPPksVisEydOFBcXz5s3T7yd6dOn5+bm4hV1zpw5I78ROWSujTOIcwYAAADAyAG13eAkJCQMGINXsAkKCpo7d+6+ffuIJZ8DAwOLi4sXLFjg7+//+PHjS5cuFRUVIYRsbW0NDAzmz58vvoIyQmjOnDlMJtPV1dXPz6+jowNPj95fI3K4u7vjtXGCgoIiIiK2bNnymicPAAAAAKUHz9u9fdIr2DCZTLxoTH19/c2bN+l0+vjx42/duiW+VPnSpUsl2mlqavr73/+upqamo6NTVFSEazg7OzvpRsaPHy9nUR0ka20cAAAAAIxKUNsNCR0dHeI1CHH40Te8jeexq6qqSk1N5fP5xHwlhK6urqCgoO+//15PT2/Xrl3E4srSjSjC3Nwc3p8AAADwJgQCAZlMFolEii/KN4qJRCLpS4GflZJeOEc6uL/INwefzVs22BVsenp6KBQK8TidOEtLy4KCgrt37/7++++pqakS0yADAAAA71JUVNTixYvT09M3bdo03Lkohfz8/KioKImdu3bt2rdvnyLB/UW+ORi3e8sGu4KNg4ODg4NDf19lMplMJvNt5AXAiOHq6spms4c7CzAIrq6uw50CGHK9vb2XL1/mcrlpaWnDnYuy8PLycnJyGorgNwS1HQBA6YwdO3a4UwCD0NLSMtwpgCG3evXq58+fL126dM6cOXhPTk5OTk5OUlIShUKRCK6srMzIyKirq6uoqPjggw96e3tPnTplb29/5MgRVVXVn376KSUlhUQirVixYuXKlatXr/7www/d3NwQQkuXLo2Njb19+/bOnTvJZPLy5cs//fRThFBXV9eWLVsuXbpkbm6+efNmd3d36QwPHDiQnJw8ceJEZ2fn2bNnT5s2bdu2bZmZmd3d3e+///63334rPyuEUFZWlni/A3bK4XDYbHZ8fLxIJNq6dWtmZqaRkZGFhYXMIRscHBcXJx2ZmZnZ0NDwxRdfPHz48Kuvvjp69Kj0JR0UqO0AAAAAMICkpKSCgoIjR47gcTtc05w/f15mFcLj8fbu3VtRUaGhoWFpablr167r168HBAQUFBTo6Ojs3bu3uLgYIeTn5+fg4GBlZZWenu7m5lZXV1dSUtLX17dx48Zz585pamqGh4ebm5sHBQUdO3aMy+WWlpZmZ2cnJydLl1mlpaU///xzcXFxQ0PDlClT3NzcGhoaTp06dfXqVTKZ7OzsvHz5cjlZzZ07948//pDol8vlyu+0ra3t/v37CKETJ06w2eySkpKXL1+6urrKrO1wsMzIsLCwqVOnzpw58+uvv16/fv0bFnYInrcDACgPkUiE118BACizwsJCFosVExNjYGDQX4yPj4+NjY2ZmZmhoeHHH3+sqqrq4uLy7Nmz3Nzc8PBwfX19fX395cuX5+Xl/e1vf/v3v/8tEolOnDixbNkyNpvNYDA4HM7169ft7OzwExqOjo7Xrl1LTk52c3NLTU2V7o7NZoeFhWlra9vb2+PH0+l0enFxMYfDycjI4PF4HR0dcrLCLUj0O2CnhNzc3OjoaF1dXTqdToxrKh6ppqZ2+PDhkJAQGxub2bNnD/wBDARqOwDAOxIfH9/f7N8ikejMmTNubm7r1q17t0kBAAaNQqHk5+fHxcXxeLz+YohJ8kkkEt7GL4R2dnbq6+sTYe3t7cbGxlZWVqWlpZmZmUuWLGlvb6dQKE1NTU1NTZ6enuHh4QghT0/P06dPNzY2hoaGrl27Vro7Ho9HPMuB3z/lcDjOzs7p6elUKtXa2lp+VjgTiX4H7JTQ3d1NnBSe+2ywkTo6Onw+X2Ka29cGtd3gxMXFDXcKAIw2Fy5c8PDw+Prrr7/88svr168PdzoAgAF4e3vPmDGDxWJt3rx5sMc6OTnl5eXh7fPnz+PXCyIjI+Pj401MTExMTJydnfv6+mJiYmJiYlpaWqhUKkIoJSWluro6MTGxpKQkNTVVek0mJpOJZ4Ht6ekpKSlBCGVnZ8+fPz8pKSkiIuLp06cDJibd74Cdih+bk5ODEBIKhcTZKR4pFAqXLVt28uTJgoKC0tLSAVMdEDxvNziKrDkGAFDQhQsXNm/e3N3dvWXLlvfff1/OPE8kEkmRFfYGFQkAeBMJCQkODg5lZWUy32zoT2Rk5LFjx2bPno0ne4uMjEQILVy4MCYm5vjx4wihsLCwY8eOeXl5aWlpdXd3x8bGIoQcHR1DQ0OPHz/e3Ny8YsUK6e8V0dHRR48enT9/fldX16RJkzQ1NX19faOjo1+8eNHY2DhhwoTExMQ1a9bISUy6XzKZLL9TwqpVq/z8/AICAng8nqWlpZxeZEbu3r3bxcXFx8fn0KFDH330UXl5+RsuDQrfBAEA7wj+1Qj/KaeqY7PZEu/Jjh071tbWtqqq6vnz5/K7sLCwMDY2xo9pg9fW1tbG5XJlfsnMzGzMmDESO1taWkJCQoY+L/CuJSQkDMXdKpFIdP/+fRKJNGnSpP4Kppqams7OTgaDQUz229raWl1dbW9vr6mpKR1fV1fX3NxMpVItLS0DAwN/+eUXGxub3t5eDodja2vL5/MfPHjg6Og4YG4S/crvVByfz+dwOIaGhvLvyQ4qsj8Dfi4wbgcAeHfwc3V4Xea4GHDSBQAAG1BJREFUuLjQ0NChmJMdvCFtbe179+51dnZK7NfU1HzvvfeGJSWgtOrr6w8cOCCxMyIiwsXFpb9DSCSSra2t/GaJJ+QINBoNr8kks0d3d/fNmzevWLGiqalp3LhxNjY2CCE1NTViSjlFCjvpfuV3Kn6aKioqRBfyg8Ujhwg8bzc4vr6+pP6J37GNj4+HSIiESJmRjY2NN2/enD9/PplMlo5E/dPT03N3d7e0tJwyZYqHh8eECRPwfnNzcw8PDxcXF+J3axKJZGFh4e7u7urqamZmhhAyNjZ2d3fX09PT1dV1d3c3MzOTjiGTyZMmTcIzkE+aNOkvu6oShUKRuZ6hi4sLngYMAIKFhcVuKXIKuyHqcdGiRRUVFZMnT547d+6pU6feTaf9nea7vyYS4J4sAOAdefN7skKh0NbWlsfjPX361MzMjEKhlJeX6+npTZ48ubGxsaOjY+LEiWQyubi4eMKECVZWVtXV1WQyGW88f/4cr/IiEAhUVVUrKioMDAwkYkgkkrW1dU1NjVAotLa2bmhoaGxsfJeXSHmIRKKcnJwXL14Qe8aOHRsSEiKz+IZ7sqPVEN2TBW9owM/lL/pbKQBgePn7+5eVle3Zs2f37t1MJjMrK0vx3zMfPXr07NmzlpYWPIY0duxYkUj08OHD5ubmtrY2HEOj0QQCAZVKVVdXFwqFOKampoZKpero6ODqTTqmt7cXIWRqaqqtrf3HH3/8ZQs7hBCJRMLrBBDc3Nzkj6oCAJQE1HYAgGHzehWeQCBA/5nCCiFEJpOFQqFQKCS+hBCiUCh4D0LoyZMnra2t4of0F9Pa2srhcHg8noGBgYODg5GR0ds5z5HJ0NDQ3Nwcb9Pp9L/41QBgBIHaDgAwzPz9/UtLS7/55psdO3ZIjBUp4tWrVxQKxcDAgEql0mg0vLO9vZ1MJuNpSDU0NIRCIb7f2tXV9erVK2trazKZLB1jbGxsZGTU0NBw69YtgUCgra39ts91hHFzcyOTyWQy+V0+KgQAeEPwniwA4B2RMz0kiUSaN29eaGjolStX5Mx0L1Nzc7O+vr61tbVIJOrq6lJRUUEIPXnyhEajubq6IoQ6Ozvr6upMTU21tLTu3bsnEAgYDIa5ufmjR48kYtTV1U1MTPBrcXw+v6mp6U3OdxTQ0dHB7zPq6uoOdy4AAEVBbQcAUBYkEsnb2xsvHymupaWFmLKO2GhoaGhoaEAICYXCu3fvampq8vl8/MAcQojP51dWVuIZ7fFcHnjZb4lGJGL6+vpu3LhBpVJJJFJXVxdxh/evbKgnawAAvHVQ2wEARgPpydhEIpH0zgFjhEIhXlMcYG84Pz4A4N2D5+0AAAAAAEYPqO0AAAAAAEYPqO0AAAAAAEYPqO0AAAAAoBCBQCASiYiJIf9SZJ64SCSSOSundHB/kUMBajsAAAAADCwqKmrx4sXp6embNm0a7lyGQX5+flRUlMTOXbt27du3T5Hg/iKHArwnCwBQOi0tLcOdAgDg/+jt7b18+TKXy01LSxvuXIaHl5eXk5PTUAS/dVDbAQCUy40bN2B58pElISEhJCRkuLMAQ2v16tXPnz9funTpnDlz8J6cnJycnJykpCQKhSIRXFlZmZGRUVdXV1FR8cEHH/T29p46dcre3v7IkSOqqqo//fRTSkoKiURasWLFypUrV69e/eGHH+I1aZYuXRobG3v79u2dO3eSyeTly5d/+umnCKGurq4tW7ZcunTJ3Nx88+bN7u7uEj2WlpZevHhx8+bNCKGdO3d6eXk5OztLH5KVlSXecmVl5ZkzZ6qrqydNmrRu3Tr5XXA4HDabHR8fLxKJtm7dmpmZaWRkZGFh4eDgIH25cHBcXJxEZGZmZkNDwxdffPHw4cOvvvrq6NGj0lfvzUFtBwAAAIABJCUlFRQUHDlyBI/b4Srn/PnzMksTHo+3d+/eiooKDQ0NS0vLXbt2Xb9+PSAgoKCgQEdHZ+/evXj+cD8/PwcHBysrq/T0dDc3t7q6upKSkr6+vo0bN547d05TUzM8PNzc3DwoKOjYsWNcLre0tDQ7Ozs5OVm68Gptba2ursbbNTU1DAZD+pA//vhDomVdXd0dO3ZkZGTMmjXr6NGj8rtoa2u7f/8+QujEiRNsNrukpOTly5eurq4yazscLB0ZFhY2derUmTNnfv311+vXrx+Kwg7B83YAAAAAGJTCwkIWixUTE2NgYNBfjI+Pj42NjZmZmaGh4ccff6yqquri4vLs2bPc3Nzw8HB9fX19ff3ly5fn5eX97W9/+/e//y0SiU6cOLFs2TI2m81gMDgczvXr1+3s7PBCNY6OjteuXUtOTnZzc0tNTVUkSelDZLbs6uoaHBysoaGheBe5ubnR0dG6urp0Op0YxVQwUk1N7fDhwyEhITY2NrNnz1bkRF4D1HYAAAAAGAQKhZKfnx8XFydn9WdiRRMSiYS3SSQSQqizs1NfX58Ia29vNzY2trKyKi0tzczMXLJkSXt7O4VCaWpqampq8vT0DA8PRwh5enqePn26sbExNDR07dq18tPDi81IHyKzZT09PXyU4l10d3cTpzB+/PjBRuro6PD5fA0NDfln8SagtgMAAADAIHh7e8+YMYPFYuHn2wbFyckpLy8Pb58/fx6/cBAZGRkfH29iYmJiYuLs7NzX1xcTExMTE9PS0oJXfE5JSamurk5MTCwpKUlNTZWeTERVVbWpqQkhJBQKL168KPMQmS0TBuyC4OzsnJOTg/sizkXBSKFQuGzZspMnTxYUFJSWlg726ikIajsAgFIT/If4t1qBGIlgYkPiW/OAe2S2qUg7APw1JSQknDt3rqysbFBHRUZGikSi2bNn+/v7i0SiyMhIhNDChQt/++23ZcuWIYTCwsLU1NS8vLwCAwMvXrzo6emJEHJ0dIyJiZk3b56/v/+KFSvwEKC4GTNmPHjwgMVihYaGMplMmYfIbJkwYBeEVatW3bt3LyAgYPr06ZaWlnJOVjpy9+7dLi4uPj4+hw4d+uSTT3p6egZ19RQlAgAAZYJfQyMghExMTExNTceMGePr6/vw4UORSKSiomJsbGxqampkZGRmZpaSkoKDDQ0Na2pq7t69ixBKSkoiGikpKUEI/fLLL8SempoahNDGjRuJPTLb3LRpU2BgIBFz6dIlExMTHo83NKc+Ukl8ZGDUGKJPVigU3rt3788//xQKhf3FVFdX3759G/8qhb18+bKsrKyjo6O/QwQCwe3bt1+9eiX/EOmWFe+C0NfXd/v27adPn77FSMUN+LnAe7IAAGVXW1urrq7e2dn58ccfx8XFHT58GCFUVVWlpaWFELp69aqfn9/ixYt1dHSIQwwMDDIzM1evXo3/mpWVJfFYTFpaWnBw8IkTJ3bs2EH8gi7dZlxcnIODw6lTpxYsWCAQCNasWfPjjz+KdwTAX1x9ff2BAwckdkZERLi4uPR3CIlEsrW1ld+stbW1xB4ajTZlyhT5PTo6Oso8RH7Lg+oCb6uoqBB9yQ8Wj3xnoLYDAIwMmpqavr6+WVlZEvtdXFxUVFQkbs7S6fSenp5Hjx6ZmpqKRKLz588HBASIB6SlpWVmZn7wwQdXrlzx9vbur00dHZ1//OMfy5cvDwgIOHz4sJmZ2cKFC4fi7AAYoSwsLHbv3j3KehxUF+/+CgwIajsAgLI7d+6cmpraw4cPv/vuu5iYGLwzIyNDQ0Oju7ubzWZ//vnnNBpN4qhFixZlZWWtW7eutLSUyWTiATmsvLxcXV2dyWSyWKz09HSitpPZpr+/v6+v77p163Jycq5cufJOzhgAAF4fvEsBAFB2586dY7PZHA5n69at69atwzvv3LlTUVFRWVlZVVVlZGQkfdSiRYsyMzMRQllZWSwWS/xLaWlpTCbz4sWL+vr6WVlZfX198tvcs2fPv/71r1WrVsl/bhoAAJQBjNsBAJTd/v37ibmyCNu3b8dDcbW1tVOmTJGej4pOpyOE6urq8vLyEhMT8/Pz8X6BQJCRkREcHHzy5EmEkJaWVm5ubmhoqJw2x40bN3ny5OnTpw/hSQIAwFsCtR0AYGSzsrLi8Xh9fX2qqqoSX2KxWOvXr3dychKfJvTChQsmJibEvPPffvtteno6ru0UaRMAAJQc1HYAgBGPTqcXFhZKL/6zaNGi//mf/zl9+rT4zrS0tIiICOKvLBbrm2++aW9vV7BNAP46nF1c8MJcQKk49/8OMga1HQBAqYlkTRRMPCGH1dbW4o3Gxka8UV5ejhAyNTUVCoV4z8GDB/HG0aNHxY+1srLq6OiQ0yYGb1GAvyChCDVrWwtIQ7KePXg9FBFf/1WN/Bh4lwIAAAAAMohEIlVB13BnAf4PVUHXgCvjQG0HAAAAABn0xozR4rcNdxbg/9Dit42l6cqPgdoOAAAAADK4u09R6X2lKuwe7kTA/1IVdKv0tnt4eMgPg9oOAAAAADJoamoaTRg/tpNLFvGHOxeAyCL+2C6uiZGh+Iv/siPfTUIAAAAAGHE8PDy0NdQNOurUYPRuWKkKug066nQ0NaRXyJUG78kCAAAAoF/+/rPKyspJTfW9qtpdarQesoaQREGINNx5/RWIyCKBmqBLq69Nta/d2MhQkcIOQW0HAAAAAPnc3ad0dnaWl5e3tD4aQ0IUMhR274hAKBKK0FiarofH7AFvxRKgtgMAAADAADQ1NX18fIY7C6AQeN4OAAAAAGD0gNoOAAAAAGD0gNoOAAAAAGD0gNoOAAAAAGD0gNoOAKDsBAKBSCQSCoXDncjwkD53kUgkkrWipMyr1F8wAGC0gtoOAKDUoqKiFi9enJ6evmnTpuHOZXjk5+dHRUWJ79m1a9e+ffsUiZQTDAAYrWAOFACA8urt7b18+TKXy01LSxvuXIaNl5eXk5PT240EAIxiMG4HAFBeq1evfv78+dKlS4k9OTk5q1atEggEMuMPHDjg6OgYFhaWkJBQXFyMENq2bZuDg4ONjc1XX32FEKqsrIyNjY2MjLSzs9u+fXt8fDyTyYyMjOzr60MIZWVlubm5ubu7JycnI4S6uro2bNjg4uISFhZWVlYms8fS0tLt27fj7Z07dxYXF0sfJdEsTiMxMfHDDz/csmXLgF1wOJyDBw+KRKKEhAR7e3t/f//q6mo5kQgh6eDMzMzdu3cjhB4+fBgVFdXfBQQAjAIwbgcAUF5JSUkFBQVHjhzB43ZsNjs+Pv78+fMUCkU6uLS09Oeffy4uLm5oaJgyZYqbm1tDQ8OpU6euXr1KJpOdnZ2XL1/O4/H27t1bUVGhoaFhaWm5a9eu69evBwQEFBQU0On0jRs3njt3TlNTMzw83NzcnMvlcrnc0tLS7Ozs5ORkd3d36U5bW1uJSqumpobBYBw7dkz8KC0tLYlmg4KCeDzejh07MjIyamtrf//9d/ldtLW13b9//8SJE2w2u6Sk5OXLl66urg4ODv1FIoSkg8PCwqZOnTpz5syvv/56/fr1Mi8gAGB0gHE7AMDIUFhYyGKxYmJiDAwMZAaw2eywsDBtbW17e3tvb2+EEJ1OLy4u5nA4GRkZPB6vo6MDIeTj42NjY2NmZmZoaPjxxx+rqqq6uLg8e/aMzWYzGAwOh3P9+nU7Ozs2m+3o6Hjt2rXk5GQ3N7fU1FQF85Q4SrpZHObq6hocHOzu7q5gF7m5udHR0bq6unQ6fc6cOfJzkA5WU1M7fPhwSEiIjY3N7NmzFTwXAMBIBLUdAGBkoFAo+fn5cXFxPB5PZgCPxxs7dizexm+GcjgcZ2fn9PR0KpVqbW2Nv6Suro43SCQS3iaRSAih9vZ2CoXS1NTU1NTk6ekZHh7u6el5+vTpxsbG0NDQtWvXDphhZ2cnQkjiKOlmcbCenp50sJzGu7u79fX18fb48ePlZyIzWEdHh8/nK74kJQBghILaDgAwMnh7e8+YMYPFYm3evFlmAJPJLCoqQgj19PSUlJQghLKzs+fPn5+UlBQREfH06VP57Ts7O/f19cXExMTExLS0tFCp1JSUlOrq6sTExJKSktTUVJkziaiqqjY1NSGEhELhxYsXEUISRzk5OUk0K364Il0Q6eXk5OCO8vLyBjwXiWChULhs2bKTJ08WFBSUlpbKPxwAMKLB83YAgJEkISHBwcGhrKxM+tG06Ojoo0ePzp8/v6ura9KkSZqamr6+vtHR0S9evGhsbJwwYUJiYuKaNWv6azksLOzYsWNeXl5aWlrd3d2xsbFkMjk0NPT48ePNzc0rVqzAw3sSZsyYsXLlShaL1dHRwWQyEUKOjo7iRy1YsOD48ePizYofLhEsswts1apVfn5+AQEBPB7P0tJS/lWSDt69e7eLi4uPj8+hQ4c++uij8vJyYvwSADDKkGBOSwCAUklISIiLi3uNA+vq6pqbm6lUqqWlZWBg4C+//GJjY9Pb28vhcGxtbfl8/oMHDxwdHeU3UlNT09nZyWAwyGQy+s+rEvb29pqamv0dIhQK7969O3HiRG1tbbxH+iiJZsUp0gXG5/M5HI6hoeGA92QHG/yGXvsjAwAMBRi3AwCMPPX19QcOHJDY6e7uvnnz5hUrVjQ1NY0bN87GxgYhpKamRkz5NmBhhxAiHsvDaDTalClT5HQaERHh4uIi0bL4UTKbfY0uEEIqKipER/IjJYIBAH8pMG4HAFAubzII1NHRUVhYSKVSfX19YZqPdwbG7QBQKjBuBwAYPbS0tEJCQoY7CwAAGE7wniwAAAAAwOgBtR0AAAAAwOgBtR0AAAAAwOgBtR0AAAAAwOgBtR0AAAAAwOgBtR0AAAAAwOgBtR0AAAAAwOgBtR0AAAAAwOgBtR0AAAAAwOgBtR0AQNkJBAKRSCQUCoc7keEhfe4ikUjmcpEyr1J/wQCA0QpqOwCAUouKilq8eHF6evqmTZuGO5fhkZ+fHxUVJb5n165d+/btUyRSTjAAYLSC9WQBAMqrt7f38uXLXC43LS1tuHMZNl5eXk5OTm83EgAwisG4HQBAea1evfr58+dLly4l9uTk5KxatUogEMiMP3DggKOjY1hYWEJCQnFxMUJo27ZtDg4ONjY2X331FUKosrIyNjY2MjLSzs5u+/bt8fHxTCYzMjKyr68PIZSVleXm5ubu7p6cnIwQ6urq2rBhg4uLS1hYWFlZmcweS0tLt2/fjrd37txZXFwsfZREsziNxMTEDz/8cMuWLQN2weFwDh48KBKJEhIS7O3t/f39q6ur5UQihKSDMzMzd+/ejRB6+PBhVFRUfxcQADAKwLgdAEB5JSUlFRQUHDlyBI/bsdns+Pj48+fPUygU6eDS0tKff/65uLi4oaFhypQpbm5uDQ0Np06dunr1KplMdnZ2Xr58OY/H27t3b0VFhYaGhqWl5a5du65fvx4QEFBQUECn0zdu3Hju3DlNTc3w8HBzc3Mul8vlcktLS7Ozs5OTk93d3aU7bW1tJSqtmpoaBoNx7Ngx8aO0tLQkmg0KCuLxeDt27MjIyKitrf3999/ld9HW1nb//v0TJ06w2eySkpKXL1+6uro6ODj0F4kQkg4OCwubOnXqzJkzv/766/Xr18u8gACA0QHG7QAAI0NhYSGLxYqJiTEwMJAZwGazw8LCtLW17e3tvb29EUJ0Or24uJjD4WRkZPB4vI6ODoSQj4+PjY2NmZmZoaHhxx9/rKqq6uLi8uzZMzabzWAwOBzO9evX7ezs2Gy2o6PjtWvXkpOT3dzcUlNTFcxT4ijpZnGYq6trcHCwu7u7gl3k5uZGR0fr6urS6fQ5c+bIz0E6WE1N7fDhwyEhITY2NrNnz1bwXAAAIxHUdgCAkYFCoeTn58fFxfF4PJkBPB5v7NixeBu/GcrhcJydndPT06lUqrW1Nf6Suro63iCRSHibRCIhhNrb2ykUSlNTU1NTk6enZ3h4uKen5+nTpxsbG0NDQ9euXTtghp2dnQghiaOkm8XBenp60sFyGu/u7tbX18fb48ePl5+JzGAdHR0+n6+hoTHgiQAARjSo7QAAI4O3t/eMGTNYLNbmzZtlBjCZzKKiIoRQT09PSUkJQig7O3v+/PlJSUkRERFPnz6V376zs3NfX19MTExMTExLSwuVSk1JSamurk5MTCwpKUlNTZU5k4iqqmpTUxNCSCgUXrx4ESEkcZSTk5NEs+KHK9IFkV5OTg7uKC8vb8BzkQgWCoXLli07efJkQUFBaWmp/MMBACMaPG8HABhJEhISHBwcysrKpB9Ni46OPnr06Pz587u6uiZNmqSpqenr6xsdHf3ixYvGxsYJEyYkJiauWbOmv5bDwsKOHTvm5eWlpaXV3d0dGxtLJpNDQ0OPHz/e3Ny8YsUKPLwnYcaMGStXrmSxWB0dHUwmEyHk6OgoftSCBQuOHz8u3qz44RLBMrvAVq1a5efnFxAQwOPxLC0t5V8l6eDdu3e7uLj4+PgcOnToo48+Ki8vJ8YvAQCjDAnmtAQAKJWEhIS4uLjXOLCurq65uZlKpVpaWgYGBv7yyy82Nja9vb0cDsfW1pbP5z948MDR0VF+IzU1NZ2dnQwGg0wmo/+8KmFvb6+pqdnfIUKh8O7duxMnTtTW1sZ7pI+SaFacIl1gfD6fw+EYGhoOeE92sMFv6LU/MgDAUIBxOwDAyFNfX3/gwAGJne7u7ps3b16xYkVTU9O4ceNsbGwQQmpqasSUbwMWdggh4rE8jEajTZkyRU6nERERLi4uEi2LHyWz2dfoAiGkoqJCdCQ/UiIYAPCXAuN2AADl8iaDQB0dHYWFhVQq1dfXF6b5eGdg3A4ApQLjdgCA0UNLSyskJGS4swAAgOEE78kCAAAAAIweUNsBAAAAAIweUNsBAAAAAIwe8C4FAEC5nDl7ltz/NG9ACQlFonmhocOdBQDgf8G7FAAA5SIUoWZtawEJ3nIdGSgivv6rmuHOAgDwX3BPFgCgXEQikaqga7izAIpSFXTB7R8AlArUdgAA5aI3ZowWv224swCK0uK3jaXpDncWAID/gtoOAKBc3N2nqPS+UhV2D3ciYGCqgm6V3nYPD4/hTgQA8F9Q2wEAlIumpqbRhPFjO7lkEX+4cwHykEX8sV1cEyNDDQ2N4c4FAPBfUNsBAJSOh4eHtoa6QUedGozeKStVQbdBR52OpobEyrkAgGEHc6AAAJRUWVl5Y1NTr6p2lxqth6whJFEQgrlRhpeILBKoCbq0+tpU+9qNjQyhsANACUFtBwBQXp2dneXl5S2tPDIJUchQ2A0/gVAkFKGxNF0PDw+4FQuAcoLaDgAAAABg9IDn7QAAAAAARg+o7QAAAAAARg+o7QAAAAAARg+o7QAAAAAARg+o7QAAAAAARg+o7QAAAAAARg+o7QAAAAAARg+o7QAAAAAARo//DwztTvneaExYAAAAAElFTkSuQmCC;" parent="WIyWlLk6GJQsqaUBKTNV-1" vertex="1">
          <mxGeometry x="2010" y="1520" width="1008.97" height="780" as="geometry" />
        </mxCell>
        <mxCell id="y-TM4PaC9Gw5QKrrRANq-3" value="Use" style="endArrow=open;endSize=12;dashed=1;html=1;rounded=0;exitX=1;exitY=0.351;exitDx=0;exitDy=0;exitPerimeter=0;entryX=-0.002;entryY=0.29;entryDx=0;entryDy=0;entryPerimeter=0;" parent="WIyWlLk6GJQsqaUBKTNV-1" source="PqHHg7SWkQRDzhW8_tbn-37" target="y-TM4PaC9Gw5QKrrRANq-0" edge="1">
          <mxGeometry width="160" relative="1" as="geometry">
            <mxPoint x="1470" y="1580" as="sourcePoint" />
            <mxPoint x="1800" y="1749" as="targetPoint" />
          </mxGeometry>
        </mxCell>
        <mxCell id="HCwJ4sYrbOe70zMka582-0" value="@Inject" style="endArrow=open;endSize=12;dashed=1;html=1;rounded=0;entryX=0;entryY=0;entryDx=0;entryDy=0;exitX=0;exitY=0;exitDx=411.06557377049177;exitDy=137.53;exitPerimeter=0;" parent="WIyWlLk6GJQsqaUBKTNV-1" source="9VJXzauV7f5AglM0kGEg-10" target="PqHHg7SWkQRDzhW8_tbn-16" edge="1">
          <mxGeometry width="160" relative="1" as="geometry">
            <mxPoint x="560" y="800" as="sourcePoint" />
            <mxPoint x="358" y="1032" as="targetPoint" />
          </mxGeometry>
        </mxCell>
        <mxCell id="PqHHg7SWkQRDzhW8_tbn-37" value="" style="shape=folder;fontStyle=1;spacingTop=10;tabWidth=160;tabHeight=31;tabPosition=left;html=1;whiteSpace=wrap;" parent="WIyWlLk6GJQsqaUBKTNV-1" vertex="1">
          <mxGeometry x="777" y="1634" width="500" height="328" as="geometry" />
        </mxCell>
        <mxCell id="PqHHg7SWkQRDzhW8_tbn-38" value="package consumer.dao" style="text;html=1;align=center;verticalAlign=middle;whiteSpace=wrap;rounded=0;" parent="WIyWlLk6GJQsqaUBKTNV-1" vertex="1">
          <mxGeometry x="787" y="1637.66" width="130.55" height="16.34" as="geometry" />
        </mxCell>
        <mxCell id="PqHHg7SWkQRDzhW8_tbn-44" value="&lt;font style=&quot;font-size: 25px;&quot;&gt;NON DÉTAILLÉ&lt;/font&gt;&lt;div style=&quot;text-align: left; font-size: 25px;&quot;&gt;Gère la communication avec la base de donnée &quot;onlineplay&quot; contenant les tables suivantes :&lt;/div&gt;&lt;div style=&quot;text-align: left; font-size: 25px;&quot;&gt;&lt;ul&gt;&lt;li&gt;- users&lt;/li&gt;&lt;li&gt;-connections&lt;/li&gt;&lt;li&gt;-moves&lt;/li&gt;&lt;li&gt;-users&lt;/li&gt;&lt;/ul&gt;&lt;/div&gt;" style="text;html=1;align=center;verticalAlign=middle;whiteSpace=wrap;rounded=0;" parent="WIyWlLk6GJQsqaUBKTNV-1" vertex="1">
          <mxGeometry x="810.81" y="1754" width="466.19" height="150" as="geometry" />
        </mxCell>
        <mxCell id="9MQ1mO5dJ6APU3O_9G2U-0" value="" style="group" parent="WIyWlLk6GJQsqaUBKTNV-1" vertex="1" connectable="0">
          <mxGeometry x="2166" y="440" width="590" height="240" as="geometry" />
        </mxCell>
        <mxCell id="meUaEyug3TkI90eewDag-20" value="" style="shape=folder;fontStyle=1;spacingTop=10;tabWidth=139;tabHeight=30;tabPosition=left;html=1;whiteSpace=wrap;movable=1;resizable=1;rotatable=1;deletable=1;editable=1;locked=0;connectable=1;" parent="9MQ1mO5dJ6APU3O_9G2U-0" vertex="1">
          <mxGeometry width="590" height="240" as="geometry" />
        </mxCell>
        <mxCell id="meUaEyug3TkI90eewDag-21" value="package webapp.filter" style="text;html=1;align=center;verticalAlign=middle;resizable=0;points=[];autosize=1;strokeColor=none;fillColor=none;movable=0;rotatable=0;deletable=0;editable=0;locked=1;connectable=0;" parent="9MQ1mO5dJ6APU3O_9G2U-0" vertex="1">
          <mxGeometry width="140" height="30" as="geometry" />
        </mxCell>
        <mxCell id="yjNA9l3iNRT8KO7YcT5a-1" value="&lt;font style=&quot;font-size: 25px;&quot;&gt;NON DÉTAILLÉ &lt;/font&gt;&lt;font style=&quot;font-size: 15px;&quot;&gt;(détaillé dans class_diagram_presentation.drawio)&lt;/font&gt;&lt;div style=&quot;text-align: left; font-size: 25px;&quot;&gt;Gère les prétaitements avant les servlets :&lt;/div&gt;&lt;div style=&quot;text-align: left; font-size: 25px;&quot;&gt;&lt;ul&gt;&lt;li&gt;redirection de l&#39;HTTP vers l&#39;HTTPS&lt;/li&gt;&lt;li&gt;définission de la session&lt;/li&gt;&lt;li&gt;discrimination d&#39;IP&lt;/li&gt;&lt;/ul&gt;&lt;/div&gt;" style="text;html=1;align=center;verticalAlign=middle;whiteSpace=wrap;rounded=0;movable=0;resizable=0;rotatable=0;deletable=0;editable=0;locked=1;connectable=0;" parent="9MQ1mO5dJ6APU3O_9G2U-0" vertex="1">
          <mxGeometry x="38" y="72.82000000000005" width="552" height="150" as="geometry" />
        </mxCell>
        <mxCell id="9VJXzauV7f5AglM0kGEg-8" value="" style="group" parent="WIyWlLk6GJQsqaUBKTNV-1" vertex="1" connectable="0">
          <mxGeometry x="1370" y="310" width="690" height="328" as="geometry" />
        </mxCell>
        <mxCell id="9VJXzauV7f5AglM0kGEg-4" value="" style="shape=folder;fontStyle=1;spacingTop=10;tabWidth=160;tabHeight=31;tabPosition=left;html=1;whiteSpace=wrap;" parent="9VJXzauV7f5AglM0kGEg-8" vertex="1">
          <mxGeometry width="690" height="328" as="geometry" />
        </mxCell>
        <mxCell id="9VJXzauV7f5AglM0kGEg-5" value="package webapp.servlet.gui" style="text;html=1;align=center;verticalAlign=middle;whiteSpace=wrap;rounded=0;" parent="9VJXzauV7f5AglM0kGEg-8" vertex="1">
          <mxGeometry x="2" y="7.66" width="158" height="16.34" as="geometry" />
        </mxCell>
        <mxCell id="meUaEyug3TkI90eewDag-36" value="&lt;p style=&quot;margin:0px;margin-top:4px;text-align:center;&quot;&gt;&lt;b&gt;&quot;servlet&quot;&lt;/b&gt;&lt;/p&gt;&lt;p style=&quot;margin:0px;margin-top:4px;text-align:center;&quot;&gt;&lt;b&gt;Home&lt;/b&gt;&lt;/p&gt;&lt;hr size=&quot;1&quot; style=&quot;border-style:solid;&quot;&gt;&lt;p style=&quot;margin:0px;margin-left:4px;&quot;&gt;- userManager: UserManager&lt;/p&gt;&lt;hr size=&quot;1&quot; style=&quot;border-style:solid;&quot;&gt;&lt;p style=&quot;margin:0px;margin-left:4px;&quot;&gt;&lt;span style=&quot;background-color: initial;&quot;&gt;Gère les requêtes HTTP GET et POST&amp;nbsp;&lt;/span&gt;&lt;span style=&quot;background-color: initial;&quot;&gt;pour la page d&#39;accueil de l&#39;application web. Elle est responsable&lt;/span&gt;&lt;/p&gt;d&#39;afficher la liste des utilisateurs actuellement connectés." style="verticalAlign=top;align=left;overflow=fill;html=1;whiteSpace=wrap;" parent="9VJXzauV7f5AglM0kGEg-8" vertex="1">
          <mxGeometry x="30" y="164" width="315.33" height="130" as="geometry" />
        </mxCell>
        <mxCell id="9MQ1mO5dJ6APU3O_9G2U-1" value="&lt;font style=&quot;font-size: 15px;&quot;&gt;NON DÉTAILLÉ&lt;br&gt;Gère les requêtes GET suivantes :&lt;br&gt;&lt;ul&gt;&lt;li&gt;&lt;font style=&quot;font-size: 15px;&quot;&gt;Création de compte&lt;/font&gt;&lt;/li&gt;&lt;li&gt;&lt;font style=&quot;font-size: 15px;&quot;&gt;Authentification&lt;/font&gt;&lt;/li&gt;&lt;li&gt;&lt;font style=&quot;font-size: 15px;&quot;&gt;Déconnexion&lt;/font&gt;&lt;/li&gt;&lt;/ul&gt;&lt;/font&gt;" style="text;whiteSpace=wrap;html=1;" parent="9VJXzauV7f5AglM0kGEg-8" vertex="1">
          <mxGeometry x="410" y="54" width="250" height="110" as="geometry" />
        </mxCell>
        <mxCell id="9VJXzauV7f5AglM0kGEg-22" value="&lt;p style=&quot;text-align: center; margin: 4px 0px 0px;&quot;&gt;CurrentModel&lt;/p&gt;&lt;hr style=&quot;border-style: solid;&quot; size=&quot;1&quot;&gt;&lt;p style=&quot;margin: 0px 0px 0px 4px;&quot;&gt;-authentcatedUser: Map&amp;lt;Integer, User&amp;gt;&lt;br&gt;&lt;/p&gt;&lt;p style=&quot;margin: 0px 0px 0px 4px;&quot;&gt;-waitingToPlayUser:&amp;nbsp;&lt;span style=&quot;background-color: initial;&quot;&gt;Map&amp;lt;Integer, User&amp;gt;&lt;/span&gt;&lt;/p&gt;&lt;p style=&quot;margin: 0px 0px 0px 4px;&quot;&gt;-games:&amp;nbsp;&lt;span style=&quot;background-color: initial;&quot;&gt;Map&amp;lt;Integer, Games&amp;gt;&lt;/span&gt;&lt;span style=&quot;background-color: initial;&quot;&gt;Map&amp;lt;Integer, User&amp;gt;&lt;/span&gt;&lt;/p&gt;" style="verticalAlign=top;align=left;overflow=fill;html=1;whiteSpace=wrap;" parent="WIyWlLk6GJQsqaUBKTNV-1" vertex="1">
          <mxGeometry x="1780" y="950" width="280" height="80" as="geometry" />
        </mxCell>
        <mxCell id="9VJXzauV7f5AglM0kGEg-23" value="&lt;p style=&quot;text-align: center; margin: 4px 0px 0px;&quot;&gt;Game&lt;/p&gt;&lt;hr style=&quot;border-style: solid;&quot; size=&quot;1&quot;&gt;&lt;p style=&quot;margin: 0px 0px 0px 4px;&quot;&gt;-grid: Grid&lt;/p&gt;&lt;p style=&quot;margin: 0px 0px 0px 4px;&quot;&gt;-firstPlayer: User&lt;/p&gt;&lt;p style=&quot;margin: 0px 0px 0px 4px;&quot;&gt;-secondPlayer: User&lt;br&gt;&lt;/p&gt;&lt;p style=&quot;margin: 0px 0px 0px 4px;&quot;&gt;-gameState: GameState&lt;/p&gt;" style="verticalAlign=top;align=left;overflow=fill;html=1;whiteSpace=wrap;" parent="WIyWlLk6GJQsqaUBKTNV-1" vertex="1">
          <mxGeometry x="2370" y="1115" width="150" height="110" as="geometry" />
        </mxCell>
        <mxCell id="9VJXzauV7f5AglM0kGEg-24" value="&lt;p style=&quot;text-align: center; margin: 4px 0px 0px;&quot;&gt;&quot;Enum&quot;&lt;/p&gt;&lt;p style=&quot;text-align: center; margin: 4px 0px 0px;&quot;&gt;GameState&lt;/p&gt;&lt;hr style=&quot;border-style: solid;&quot; size=&quot;1&quot;&gt;&lt;p style=&quot;margin: 0px 0px 0px 4px;&quot;&gt;WAIT_OPPONENT&lt;/p&gt;&lt;p style=&quot;margin: 0px 0px 0px 4px;&quot;&gt;WAIT_FIRST_PLAYER_MOVE&lt;br&gt;&lt;/p&gt;&lt;p style=&quot;margin: 0px 0px 0px 4px;&quot;&gt;WAIT_SECOND_PLAYER_MOVE&lt;br&gt;&lt;/p&gt;&lt;p style=&quot;margin: 0px 0px 0px 4px;&quot;&gt;FIRST_PLAYER_WON&lt;br&gt;&lt;/p&gt;&lt;p style=&quot;margin: 0px 0px 0px 4px;&quot;&gt;SECOND_PLAYER_WON&lt;br&gt;&lt;/p&gt;&lt;p style=&quot;margin: 0px 0px 0px 4px;&quot;&gt;TO_BE_CANCELLED&lt;/p&gt;" style="verticalAlign=top;align=left;overflow=fill;html=1;whiteSpace=wrap;" parent="WIyWlLk6GJQsqaUBKTNV-1" vertex="1">
          <mxGeometry x="2195" y="930" width="200" height="139" as="geometry" />
        </mxCell>
        <mxCell id="9VJXzauV7f5AglM0kGEg-25" value="&lt;p style=&quot;text-align: center; margin: 4px 0px 0px;&quot;&gt;Grid&lt;/p&gt;&lt;hr style=&quot;border-style: solid;&quot; size=&quot;1&quot;&gt;&lt;p style=&quot;margin: 0px 0px 0px 4px;&quot;&gt;-matrixOfCells: Cell[][]&lt;/p&gt;" style="verticalAlign=top;align=left;overflow=fill;html=1;whiteSpace=wrap;" parent="WIyWlLk6GJQsqaUBKTNV-1" vertex="1">
          <mxGeometry x="2720" y="990" width="131.03" height="55" as="geometry" />
        </mxCell>
        <mxCell id="9VJXzauV7f5AglM0kGEg-26" value="&lt;p style=&quot;text-align: center; margin: 4px 0px 0px;&quot;&gt;Cell&lt;/p&gt;&lt;hr style=&quot;border-style: solid;&quot; size=&quot;1&quot;&gt;&lt;p style=&quot;margin: 0px 0px 0px 4px;&quot;&gt;-coordinates: Coordinates&lt;/p&gt;&lt;p style=&quot;margin: 0px 0px 0px 4px;&quot;&gt;-cellState: CellState&lt;/p&gt;" style="verticalAlign=top;align=left;overflow=fill;html=1;whiteSpace=wrap;" parent="WIyWlLk6GJQsqaUBKTNV-1" vertex="1">
          <mxGeometry x="2754" y="1185" width="152" height="70" as="geometry" />
        </mxCell>
        <mxCell id="9VJXzauV7f5AglM0kGEg-27" value="&lt;p style=&quot;text-align: center; margin: 4px 0px 0px;&quot;&gt;&quot;Enum&quot;&lt;/p&gt;&lt;p style=&quot;text-align: center; margin: 4px 0px 0px;&quot;&gt;CellState&lt;/p&gt;&amp;nbsp;RED&lt;div&gt;&amp;nbsp;GREEN&lt;/div&gt;&lt;div&gt;&amp;nbsp;NULL&lt;/div&gt;" style="verticalAlign=top;align=left;overflow=fill;html=1;whiteSpace=wrap;" parent="WIyWlLk6GJQsqaUBKTNV-1" vertex="1">
          <mxGeometry x="3030" y="1090" width="110" height="89" as="geometry" />
        </mxCell>
        <mxCell id="9VJXzauV7f5AglM0kGEg-29" value="&lt;p style=&quot;text-align: center; margin: 4px 0px 0px;&quot;&gt;Coordinates&lt;/p&gt;&lt;hr style=&quot;border-style: solid;&quot; size=&quot;1&quot;&gt;&lt;p style=&quot;margin: 0px 0px 0px 4px;&quot;&gt;-x: int&lt;/p&gt;&lt;p style=&quot;margin: 0px 0px 0px 4px;&quot;&gt;-y: int&lt;br&gt;&lt;/p&gt;" style="verticalAlign=top;align=left;overflow=fill;html=1;whiteSpace=wrap;" parent="WIyWlLk6GJQsqaUBKTNV-1" vertex="1">
          <mxGeometry x="2990" y="1240" width="152" height="70" as="geometry" />
        </mxCell>
        <mxCell id="8WT_kRr47N9sK6c0O6Iq-14" value="Use" style="endArrow=open;endSize=12;dashed=1;html=1;rounded=0;exitX=0.003;exitY=0.717;exitDx=0;exitDy=0;exitPerimeter=0;entryX=0.387;entryY=0.087;entryDx=0;entryDy=0;entryPerimeter=0;" parent="WIyWlLk6GJQsqaUBKTNV-1" source="meUaEyug3TkI90eewDag-19" target="9VJXzauV7f5AglM0kGEg-10" edge="1">
          <mxGeometry width="160" relative="1" as="geometry">
            <mxPoint x="490" y="730" as="sourcePoint" />
            <mxPoint x="650" y="730" as="targetPoint" />
          </mxGeometry>
        </mxCell>
        <mxCell id="8WT_kRr47N9sK6c0O6Iq-16" value="@Inject" style="endArrow=open;endSize=12;dashed=1;html=1;rounded=0;entryX=0.25;entryY=0;entryDx=0;entryDy=0;exitX=0.25;exitY=1;exitDx=0;exitDy=0;" parent="WIyWlLk6GJQsqaUBKTNV-1" source="8WT_kRr47N9sK6c0O6Iq-1" edge="1">
          <mxGeometry width="160" relative="1" as="geometry">
            <mxPoint x="1464" y="720" as="sourcePoint" />
            <mxPoint x="931" y="1026" as="targetPoint" />
          </mxGeometry>
        </mxCell>
        <mxCell id="8WT_kRr47N9sK6c0O6Iq-20" value="requête HTTP" style="html=1;verticalAlign=bottom;endArrow=block;curved=0;rounded=0;exitX=0;exitY=0;exitDx=397.62000000000006;exitDy=50.334999999999994;exitPerimeter=0;" parent="WIyWlLk6GJQsqaUBKTNV-1" source="8WT_kRr47N9sK6c0O6Iq-3" edge="1">
          <mxGeometry width="80" relative="1" as="geometry">
            <mxPoint x="460" y="370" as="sourcePoint" />
            <mxPoint x="1370" y="360" as="targetPoint" />
          </mxGeometry>
        </mxCell>
        <mxCell id="8WT_kRr47N9sK6c0O6Iq-21" value="réponse HTTP" style="html=1;verticalAlign=bottom;endArrow=open;dashed=1;endSize=8;curved=0;rounded=0;entryX=0;entryY=0;entryDx=397.62000000000006;entryDy=101.005;entryPerimeter=0;" parent="WIyWlLk6GJQsqaUBKTNV-1" target="8WT_kRr47N9sK6c0O6Iq-3" edge="1">
          <mxGeometry relative="1" as="geometry">
            <mxPoint x="1370" y="430" as="sourcePoint" />
            <mxPoint x="590" y="410" as="targetPoint" />
          </mxGeometry>
        </mxCell>
        <mxCell id="9VJXzauV7f5AglM0kGEg-1" value="" style="shape=folder;fontStyle=1;spacingTop=10;tabWidth=200;tabHeight=30;tabPosition=left;html=1;whiteSpace=wrap;" parent="WIyWlLk6GJQsqaUBKTNV-1" vertex="1">
          <mxGeometry x="740" y="460" width="590" height="310" as="geometry" />
        </mxCell>
        <mxCell id="9VJXzauV7f5AglM0kGEg-2" value="package webapp.servlet.api" style="text;html=1;align=center;verticalAlign=middle;whiteSpace=wrap;rounded=0;" parent="WIyWlLk6GJQsqaUBKTNV-1" vertex="1">
          <mxGeometry x="729.9997435897436" y="470.00439024390244" width="205.74358974358972" height="14.347317073170728" as="geometry" />
        </mxCell>
        <mxCell id="8WT_kRr47N9sK6c0O6Iq-22" value="réponse HTTP" style="html=1;verticalAlign=bottom;endArrow=open;dashed=1;endSize=8;curved=0;rounded=0;exitX=-0.006;exitY=0.339;exitDx=0;exitDy=0;exitPerimeter=0;" parent="WIyWlLk6GJQsqaUBKTNV-1" source="8WT_kRr47N9sK6c0O6Iq-1" edge="1">
          <mxGeometry relative="1" as="geometry">
            <mxPoint x="1445" y="625" as="sourcePoint" />
            <mxPoint x="460" y="570" as="targetPoint" />
          </mxGeometry>
        </mxCell>
        <mxCell id="8WT_kRr47N9sK6c0O6Iq-1" value="&lt;p style=&quot;margin:0px;margin-top:4px;text-align:center;&quot;&gt;&lt;b&gt;&quot;API servlet&quot;&lt;br&gt;&lt;/b&gt;&lt;/p&gt;&lt;p style=&quot;margin:0px;margin-top:4px;text-align:center;&quot;&gt;&lt;b&gt;UserActivities&lt;/b&gt;&lt;/p&gt;&lt;hr size=&quot;1&quot; style=&quot;border-style:solid;&quot;&gt;&lt;p style=&quot;margin:0px;margin-left:4px;&quot;&gt;- userManager: UserManager&lt;/p&gt;&lt;hr size=&quot;1&quot; style=&quot;border-style:solid;&quot;&gt;&lt;p style=&quot;margin:0px;margin-left:4px;&quot;&gt;&lt;span style=&quot;background-color: initial;&quot;&gt;Sert en JSON les informations concernant les activités en cours des utilisateurs. Par exemple, liste des utilisateurs connectés,des utilisateurs proposant une partie et attendant un adversaire, des parties en cours,...&lt;/span&gt;&lt;/p&gt;" style="verticalAlign=top;align=left;overflow=fill;html=1;whiteSpace=wrap;" parent="WIyWlLk6GJQsqaUBKTNV-1" vertex="1">
          <mxGeometry x="820" y="535.96" width="400" height="134.79" as="geometry" />
        </mxCell>
        <mxCell id="8WT_kRr47N9sK6c0O6Iq-17" value="requête HTTP" style="html=1;verticalAlign=bottom;endArrow=block;curved=0;rounded=0;entryX=0.001;entryY=0.102;entryDx=0;entryDy=0;entryPerimeter=0;exitX=1;exitY=0.494;exitDx=0;exitDy=0;exitPerimeter=0;" parent="WIyWlLk6GJQsqaUBKTNV-1" source="8WT_kRr47N9sK6c0O6Iq-10" target="8WT_kRr47N9sK6c0O6Iq-1" edge="1">
          <mxGeometry width="80" relative="1" as="geometry">
            <mxPoint x="530" y="522" as="sourcePoint" />
            <mxPoint x="610" y="420" as="targetPoint" />
          </mxGeometry>
        </mxCell>
        <mxCell id="9VJXzauV7f5AglM0kGEg-20" value="" style="shape=folder;fontStyle=1;spacingTop=10;tabWidth=265;tabHeight=30;tabPosition=left;html=1;whiteSpace=wrap;" parent="WIyWlLk6GJQsqaUBKTNV-1" vertex="1">
          <mxGeometry x="45" y="280" width="425" height="315.96" as="geometry" />
        </mxCell>
        <mxCell id="9VJXzauV7f5AglM0kGEg-21" value="&lt;font style=&quot;font-size: 12px;&quot;&gt;package batch.&lt;span style=&quot;text-align: start; background-color: initial;&quot;&gt;user-interaction-simulation&lt;/span&gt;&lt;/font&gt;" style="text;html=1;align=center;verticalAlign=middle;whiteSpace=wrap;rounded=0;" parent="WIyWlLk6GJQsqaUBKTNV-1" vertex="1">
          <mxGeometry x="60" y="293.2756302521008" width="230" height="13.859757983193274" as="geometry" />
        </mxCell>
        <mxCell id="8WT_kRr47N9sK6c0O6Iq-9" value="" style="group" parent="WIyWlLk6GJQsqaUBKTNV-1" vertex="1" connectable="0">
          <mxGeometry x="40" y="465" width="415" height="120" as="geometry" />
        </mxCell>
        <mxCell id="8WT_kRr47N9sK6c0O6Iq-13" value="" style="group" parent="8WT_kRr47N9sK6c0O6Iq-9" vertex="1" connectable="0">
          <mxGeometry y="-20" width="415.00000000000006" height="140" as="geometry" />
        </mxCell>
        <mxCell id="8WT_kRr47N9sK6c0O6Iq-10" value="&lt;div&gt;&lt;span style=&quot;background-color: initial;&quot;&gt;Non détaillé&lt;/span&gt;&lt;/div&gt;&lt;div&gt;&lt;span style=&quot;background-color: initial;&quot;&gt;&lt;br&gt;&lt;/span&gt;&lt;/div&gt;&lt;div style=&quot;text-align: left;&quot;&gt;&lt;span style=&quot;font-weight: normal;&quot;&gt;Fournit des classes simulant des actions d&#39;utilisateur avec l&#39;API&lt;/span&gt;&lt;/div&gt;" style="shape=folder;fontStyle=1;spacingTop=10;tabWidth=318;tabHeight=25;tabPosition=left;html=1;whiteSpace=wrap;" parent="8WT_kRr47N9sK6c0O6Iq-13" vertex="1">
          <mxGeometry x="13.60655737704918" y="20" width="401.39344262295094" height="119.99999999999999" as="geometry" />
        </mxCell>
        <mxCell id="8WT_kRr47N9sK6c0O6Iq-11" value="&lt;font style=&quot;font-size: 12px;&quot;&gt;package batch.&lt;span style=&quot;text-align: start; background-color: initial;&quot;&gt;user-interaction-simulation.with-api&lt;/span&gt;&lt;/font&gt;" style="text;html=1;align=center;verticalAlign=middle;whiteSpace=wrap;rounded=0;" parent="8WT_kRr47N9sK6c0O6Iq-13" vertex="1">
          <mxGeometry x="13.61" width="300" height="60.47" as="geometry" />
        </mxCell>
        <mxCell id="8WT_kRr47N9sK6c0O6Iq-12" value="" style="group" parent="WIyWlLk6GJQsqaUBKTNV-1" vertex="1" connectable="0">
          <mxGeometry x="55" y="323.65999999999997" width="515" height="126.34" as="geometry" />
        </mxCell>
        <mxCell id="8WT_kRr47N9sK6c0O6Iq-3" value="&lt;div style=&quot;&quot;&gt;&lt;span style=&quot;background-color: initial;&quot;&gt;Non détaillé&lt;/span&gt;&lt;/div&gt;&lt;div style=&quot;&quot;&gt;&lt;span style=&quot;background-color: initial;&quot;&gt;&lt;br&gt;&lt;/span&gt;&lt;/div&gt;&lt;div style=&quot;text-align: left;&quot;&gt;&lt;span style=&quot;font-weight: normal;&quot;&gt;Fournit des classes simulant des actions d&#39;utilisateur avec le web GUI&lt;/span&gt;&lt;/div&gt;" style="shape=folder;fontStyle=1;spacingTop=10;tabWidth=318;tabHeight=25;tabPosition=left;html=1;whiteSpace=wrap;align=center;" parent="8WT_kRr47N9sK6c0O6Iq-12" vertex="1">
          <mxGeometry x="2.38" width="397.62" height="126.34" as="geometry" />
        </mxCell>
        <mxCell id="8WT_kRr47N9sK6c0O6Iq-4" value="&lt;font style=&quot;font-size: 12px;&quot;&gt;package batch.&lt;span style=&quot;text-align: start; background-color: initial;&quot;&gt;user-interaction-simulation.with-web-gui&lt;/span&gt;&lt;/font&gt;" style="text;html=1;align=center;verticalAlign=middle;whiteSpace=wrap;rounded=0;" parent="8WT_kRr47N9sK6c0O6Iq-12" vertex="1">
          <mxGeometry width="329.59" height="34.983546000000004" as="geometry" />
        </mxCell>
        <mxCell id="9VJXzauV7f5AglM0kGEg-10" value="&lt;div&gt;&lt;br&gt;&lt;/div&gt;&lt;div&gt;&lt;br&gt;&lt;/div&gt;&lt;div&gt;&lt;br&gt;&lt;/div&gt;Non détaillé&lt;div&gt;&lt;ul&gt;&lt;li&gt;&lt;span style=&quot;font-weight: normal;&quot;&gt;Simule un utilisateur IA qui crée un compte, s&#39;authentifie, propose une partie et joue les coups fournis par le package business.ai après calcul suivant un algorithme min-max.&lt;/span&gt;&lt;/li&gt;&lt;li&gt;&lt;span style=&quot;font-weight: normal;&quot;&gt;La dépendance du module webapp de ce package rend possible l&#39;injection du bean CDI @ApplicationScoped de classe UserManager. En conséquence, ce package peut récupérer les informations concernant les actions en cours des utilisateurs sans communiquer avec l&#39;API implémentée dans le package webapp.servlet.api. Ce package ne simule donc pas véritablement les actions d&#39;un utilisateur avec l&#39;application web via son web GUI, contrairement au package batch.&lt;/span&gt;&lt;span style=&quot;font-weight: 400; background-color: initial; text-align: start;&quot;&gt;user-interaction-simulation.with-web-gui&lt;/span&gt;&lt;/li&gt;&lt;/ul&gt;&lt;/div&gt;" style="shape=folder;fontStyle=1;spacingTop=10;tabWidth=160;tabHeight=31;tabPosition=left;html=1;whiteSpace=wrap;align=center;" parent="WIyWlLk6GJQsqaUBKTNV-1" vertex="1">
          <mxGeometry x="55" y="622.89" width="411.07" height="237.11" as="geometry" />
        </mxCell>
        <mxCell id="9VJXzauV7f5AglM0kGEg-11" value="package batch.ai" style="text;html=1;align=center;verticalAlign=middle;whiteSpace=wrap;rounded=0;" parent="WIyWlLk6GJQsqaUBKTNV-1" vertex="1">
          <mxGeometry x="44.996393442622946" y="629.9996410958904" width="143.3434426229508" height="10.357736986301369" as="geometry" />
        </mxCell>
        <mxCell id="rOqVHmocslFUa_RWLAek-0" value="" style="endArrow=none;html=1;rounded=0;exitX=1;exitY=0.75;exitDx=0;exitDy=0;entryX=0;entryY=0.143;entryDx=0;entryDy=0;entryPerimeter=0;" parent="WIyWlLk6GJQsqaUBKTNV-1" source="9VJXzauV7f5AglM0kGEg-26" target="9VJXzauV7f5AglM0kGEg-29" edge="1">
          <mxGeometry relative="1" as="geometry">
            <mxPoint x="2920" y="1170" as="sourcePoint" />
            <mxPoint x="2922" y="1293" as="targetPoint" />
          </mxGeometry>
        </mxCell>
        <mxCell id="rOqVHmocslFUa_RWLAek-1" value="1:1" style="resizable=0;html=1;whiteSpace=wrap;align=left;verticalAlign=bottom;" parent="rOqVHmocslFUa_RWLAek-0" connectable="0" vertex="1">
          <mxGeometry x="-1" relative="1" as="geometry">
            <mxPoint x="8" y="-2" as="offset" />
          </mxGeometry>
        </mxCell>
        <mxCell id="rOqVHmocslFUa_RWLAek-2" value="1:1" style="resizable=0;html=1;whiteSpace=wrap;align=right;verticalAlign=bottom;" parent="rOqVHmocslFUa_RWLAek-0" connectable="0" vertex="1">
          <mxGeometry x="1" relative="1" as="geometry" />
        </mxCell>
        <mxCell id="rOqVHmocslFUa_RWLAek-3" value="is at" style="text;html=1;align=center;verticalAlign=middle;whiteSpace=wrap;rounded=0;" parent="WIyWlLk6GJQsqaUBKTNV-1" vertex="1">
          <mxGeometry x="2906" y="1225" width="60" height="30" as="geometry" />
        </mxCell>
        <mxCell id="rOqVHmocslFUa_RWLAek-5" value="" style="endArrow=diamondThin;endFill=1;endSize=24;html=1;rounded=0;entryX=0.946;entryY=1.013;entryDx=0;entryDy=0;exitX=0;exitY=0.25;exitDx=0;exitDy=0;entryPerimeter=0;" parent="WIyWlLk6GJQsqaUBKTNV-1" source="PqHHg7SWkQRDzhW8_tbn-20" target="9VJXzauV7f5AglM0kGEg-22" edge="1">
          <mxGeometry width="160" relative="1" as="geometry">
            <mxPoint x="2010" y="997" as="sourcePoint" />
            <mxPoint x="1510" y="898" as="targetPoint" />
          </mxGeometry>
        </mxCell>
        <mxCell id="rOqVHmocslFUa_RWLAek-6" value="" style="endArrow=diamondThin;endFill=1;endSize=24;html=1;rounded=0;entryX=0.996;entryY=0.15;entryDx=0;entryDy=0;entryPerimeter=0;exitX=-0.02;exitY=0.118;exitDx=0;exitDy=0;exitPerimeter=0;" parent="WIyWlLk6GJQsqaUBKTNV-1" source="9VJXzauV7f5AglM0kGEg-23" target="9VJXzauV7f5AglM0kGEg-22" edge="1">
          <mxGeometry width="160" relative="1" as="geometry">
            <mxPoint x="2340" y="800" as="sourcePoint" />
            <mxPoint x="2180" y="951" as="targetPoint" />
          </mxGeometry>
        </mxCell>
        <mxCell id="rOqVHmocslFUa_RWLAek-7" value="&lt;p style=&quot;text-align: center; margin: 4px 0px 0px;&quot;&gt;Move&lt;/p&gt;&lt;hr style=&quot;border-style: solid;&quot; size=&quot;1&quot;&gt;&lt;p style=&quot;margin: 0px 0px 0px 4px;&quot;&gt;-grid: Grid&lt;/p&gt;&lt;p style=&quot;margin: 0px 0px 0px 4px;&quot;&gt;-gameId: int&lt;/p&gt;&lt;p style=&quot;margin: 0px 0px 0px 4px;&quot;&gt;-userId: int&lt;/p&gt;&lt;p style=&quot;margin: 0px 0px 0px 4px;&quot;&gt;-number: int&lt;/p&gt;&lt;p style=&quot;margin: 0px 0px 0px 4px;&quot;&gt;-move: int&lt;/p&gt;" style="verticalAlign=top;align=left;overflow=fill;html=1;whiteSpace=wrap;" parent="WIyWlLk6GJQsqaUBKTNV-1" vertex="1">
          <mxGeometry x="2756" y="1320" width="150" height="110" as="geometry" />
        </mxCell>
        <mxCell id="rOqVHmocslFUa_RWLAek-8" value="Use" style="endArrow=open;endSize=12;dashed=1;html=1;rounded=0;entryX=0;entryY=0.591;entryDx=0;entryDy=0;exitX=0.774;exitY=0.101;exitDx=0;exitDy=0;exitPerimeter=0;entryPerimeter=0;" parent="WIyWlLk6GJQsqaUBKTNV-1" source="PqHHg7SWkQRDzhW8_tbn-37" target="9VJXzauV7f5AglM0kGEg-23" edge="1">
          <mxGeometry width="160" relative="1" as="geometry">
            <mxPoint x="1217" y="1678" as="sourcePoint" />
            <mxPoint x="2340" y="1221" as="targetPoint" />
          </mxGeometry>
        </mxCell>
        <mxCell id="rOqVHmocslFUa_RWLAek-9" value="" style="group" parent="WIyWlLk6GJQsqaUBKTNV-1" vertex="1" connectable="0">
          <mxGeometry x="2720" y="1107.5" width="80" height="30" as="geometry" />
        </mxCell>
        <mxCell id="rOqVHmocslFUa_RWLAek-4" value="composed of" style="text;html=1;align=center;verticalAlign=middle;whiteSpace=wrap;rounded=0;" parent="rOqVHmocslFUa_RWLAek-9" vertex="1">
          <mxGeometry width="80" height="30" as="geometry" />
        </mxCell>
        <mxCell id="8WT_kRr47N9sK6c0O6Iq-25" value="" style="endArrow=none;html=1;rounded=0;entryX=0.112;entryY=0.007;entryDx=0;entryDy=0;entryPerimeter=0;exitX=0.153;exitY=1.009;exitDx=0;exitDy=0;exitPerimeter=0;" parent="WIyWlLk6GJQsqaUBKTNV-1" source="9VJXzauV7f5AglM0kGEg-25" target="9VJXzauV7f5AglM0kGEg-26" edge="1">
          <mxGeometry relative="1" as="geometry">
            <mxPoint x="2585.51" y="1184.33" as="sourcePoint" />
            <mxPoint x="2745.51" y="1184.33" as="targetPoint" />
          </mxGeometry>
        </mxCell>
        <mxCell id="8WT_kRr47N9sK6c0O6Iq-26" value="42:42" style="resizable=0;html=1;whiteSpace=wrap;align=left;verticalAlign=bottom;" parent="8WT_kRr47N9sK6c0O6Iq-25" connectable="0" vertex="1">
          <mxGeometry x="-1" relative="1" as="geometry">
            <mxPoint x="-35" y="33" as="offset" />
          </mxGeometry>
        </mxCell>
        <mxCell id="8WT_kRr47N9sK6c0O6Iq-27" value="0:1" style="resizable=0;html=1;whiteSpace=wrap;align=right;verticalAlign=bottom;" parent="8WT_kRr47N9sK6c0O6Iq-25" connectable="0" vertex="1">
          <mxGeometry x="1" relative="1" as="geometry">
            <mxPoint x="-11" as="offset" />
          </mxGeometry>
        </mxCell>
        <mxCell id="rOqVHmocslFUa_RWLAek-10" value="Use" style="endArrow=open;endSize=12;dashed=1;html=1;rounded=0;entryX=0;entryY=1;entryDx=0;entryDy=0;exitX=1.004;exitY=0.226;exitDx=0;exitDy=0;exitPerimeter=0;" parent="WIyWlLk6GJQsqaUBKTNV-1" source="PqHHg7SWkQRDzhW8_tbn-37" target="rOqVHmocslFUa_RWLAek-7" edge="1">
          <mxGeometry width="160" relative="1" as="geometry">
            <mxPoint x="1580" y="1678" as="sourcePoint" />
            <mxPoint x="2543" y="1403" as="targetPoint" />
          </mxGeometry>
        </mxCell>
        <mxCell id="rOqVHmocslFUa_RWLAek-12" value="Use" style="endArrow=open;endSize=12;dashed=1;html=1;rounded=0;entryX=0;entryY=0.25;entryDx=0;entryDy=0;" parent="WIyWlLk6GJQsqaUBKTNV-1" source="9VJXzauV7f5AglM0kGEg-26" target="9VJXzauV7f5AglM0kGEg-27" edge="1">
          <mxGeometry width="160" relative="1" as="geometry">
            <mxPoint x="3100" y="1035" as="sourcePoint" />
            <mxPoint x="3110" y="945" as="targetPoint" />
          </mxGeometry>
        </mxCell>
        <mxCell id="rOqVHmocslFUa_RWLAek-13" value="Use" style="endArrow=open;endSize=12;dashed=1;html=1;rounded=0;entryX=1;entryY=0.5;entryDx=0;entryDy=0;exitX=0.407;exitY=0;exitDx=0;exitDy=0;exitPerimeter=0;" parent="WIyWlLk6GJQsqaUBKTNV-1" source="9VJXzauV7f5AglM0kGEg-23" target="9VJXzauV7f5AglM0kGEg-24" edge="1">
          <mxGeometry width="160" relative="1" as="geometry">
            <mxPoint x="2802" y="1229" as="sourcePoint" />
            <mxPoint x="3040" y="1122" as="targetPoint" />
          </mxGeometry>
        </mxCell>
        <mxCell id="rOqVHmocslFUa_RWLAek-17" value="" style="endArrow=none;html=1;rounded=0;entryX=0.904;entryY=0;entryDx=0;entryDy=0;exitX=0;exitY=0.25;exitDx=0;exitDy=0;entryPerimeter=0;" parent="WIyWlLk6GJQsqaUBKTNV-1" source="9VJXzauV7f5AglM0kGEg-25" target="9VJXzauV7f5AglM0kGEg-23" edge="1">
          <mxGeometry relative="1" as="geometry">
            <mxPoint x="2532.49" y="1125" as="sourcePoint" />
            <mxPoint x="2496.49" y="1265" as="targetPoint" />
          </mxGeometry>
        </mxCell>
        <mxCell id="rOqVHmocslFUa_RWLAek-18" value="0:1" style="resizable=0;html=1;whiteSpace=wrap;align=left;verticalAlign=bottom;" parent="rOqVHmocslFUa_RWLAek-17" connectable="0" vertex="1">
          <mxGeometry x="-1" relative="1" as="geometry">
            <mxPoint x="-30" y="5" as="offset" />
          </mxGeometry>
        </mxCell>
        <mxCell id="rOqVHmocslFUa_RWLAek-19" value="1:1" style="resizable=0;html=1;whiteSpace=wrap;align=right;verticalAlign=bottom;" parent="rOqVHmocslFUa_RWLAek-17" connectable="0" vertex="1">
          <mxGeometry x="1" relative="1" as="geometry">
            <mxPoint x="14" y="-5" as="offset" />
          </mxGeometry>
        </mxCell>
        <mxCell id="rOqVHmocslFUa_RWLAek-20" value="Commentaire :&lt;div&gt;Chaque instance de Game est associée à une instance de Grid.&lt;/div&gt;&lt;div&gt;Une instance de Grid ne peut être associée qu&#39;à une seule instance de Game.&lt;/div&gt;&lt;div&gt;Cependant, une instance de Grid peut n&#39;être associée à aucune instance de Game mais à un noeud d&#39;une instance de Tree représentant un arbre utiliser par une IA min-max.&lt;/div&gt;" style="text;html=1;align=left;verticalAlign=middle;whiteSpace=wrap;rounded=1;strokeColor=default;glass=0;shadow=0;" parent="WIyWlLk6GJQsqaUBKTNV-1" vertex="1">
          <mxGeometry x="2861" y="642" width="270" height="158" as="geometry" />
        </mxCell>
        <mxCell id="IBwgJd7NMsFbl6GjUIv2-0" value="" style="endArrow=none;dashed=1;html=1;dashPattern=1 3;strokeWidth=2;rounded=0;entryX=0.341;entryY=1.005;entryDx=0;entryDy=0;entryPerimeter=0;" edge="1" parent="WIyWlLk6GJQsqaUBKTNV-1" target="rOqVHmocslFUa_RWLAek-20">
          <mxGeometry width="50" height="50" relative="1" as="geometry">
            <mxPoint x="2700" y="1000" as="sourcePoint" />
            <mxPoint x="3080" y="476" as="targetPoint" />
          </mxGeometry>
        </mxCell>
        <mxCell id="IBwgJd7NMsFbl6GjUIv2-1" value="play a move" style="shape=rhombus;double=1;perimeter=rhombusPerimeter;whiteSpace=wrap;html=1;align=center;" vertex="1" parent="WIyWlLk6GJQsqaUBKTNV-1">
          <mxGeometry x="2590" y="1180" width="120" height="60" as="geometry" />
        </mxCell>
        <mxCell id="IBwgJd7NMsFbl6GjUIv2-2" value="" style="endArrow=none;html=1;rounded=0;entryX=0;entryY=0;entryDx=0;entryDy=0;exitX=1;exitY=1;exitDx=0;exitDy=0;" edge="1" parent="WIyWlLk6GJQsqaUBKTNV-1" source="IBwgJd7NMsFbl6GjUIv2-1" target="rOqVHmocslFUa_RWLAek-7">
          <mxGeometry relative="1" as="geometry">
            <mxPoint x="2680" y="1270" as="sourcePoint" />
            <mxPoint x="2757.95" y="1376" as="targetPoint" />
          </mxGeometry>
        </mxCell>
        <mxCell id="IBwgJd7NMsFbl6GjUIv2-3" value="" style="resizable=0;html=1;whiteSpace=wrap;align=left;verticalAlign=bottom;" connectable="0" vertex="1" parent="IBwgJd7NMsFbl6GjUIv2-2">
          <mxGeometry x="-1" relative="1" as="geometry">
            <mxPoint x="-20" y="35" as="offset" />
          </mxGeometry>
        </mxCell>
        <mxCell id="IBwgJd7NMsFbl6GjUIv2-4" value="1:1" style="resizable=0;html=1;whiteSpace=wrap;align=right;verticalAlign=bottom;" connectable="0" vertex="1" parent="IBwgJd7NMsFbl6GjUIv2-2">
          <mxGeometry x="1" relative="1" as="geometry">
            <mxPoint x="14" y="-5" as="offset" />
          </mxGeometry>
        </mxCell>
        <mxCell id="IBwgJd7NMsFbl6GjUIv2-5" value="" style="endArrow=none;html=1;rounded=0;entryX=0.945;entryY=0;entryDx=0;entryDy=0;exitX=0;exitY=1;exitDx=0;exitDy=0;entryPerimeter=0;" edge="1" parent="WIyWlLk6GJQsqaUBKTNV-1" source="IBwgJd7NMsFbl6GjUIv2-1" target="PqHHg7SWkQRDzhW8_tbn-20">
          <mxGeometry relative="1" as="geometry">
            <mxPoint x="2600" y="1255" as="sourcePoint" />
            <mxPoint x="2676" y="1350" as="targetPoint" />
          </mxGeometry>
        </mxCell>
        <mxCell id="IBwgJd7NMsFbl6GjUIv2-6" value="" style="resizable=0;html=1;whiteSpace=wrap;align=left;verticalAlign=bottom;" connectable="0" vertex="1" parent="IBwgJd7NMsFbl6GjUIv2-5">
          <mxGeometry x="-1" relative="1" as="geometry">
            <mxPoint x="-20" y="35" as="offset" />
          </mxGeometry>
        </mxCell>
        <mxCell id="IBwgJd7NMsFbl6GjUIv2-7" value="0:n" style="resizable=0;html=1;whiteSpace=wrap;align=right;verticalAlign=bottom;" connectable="0" vertex="1" parent="IBwgJd7NMsFbl6GjUIv2-5">
          <mxGeometry x="1" relative="1" as="geometry">
            <mxPoint x="14" y="-5" as="offset" />
          </mxGeometry>
        </mxCell>
        <mxCell id="IBwgJd7NMsFbl6GjUIv2-8" value="" style="endArrow=none;html=1;rounded=0;entryX=1.013;entryY=0.118;entryDx=0;entryDy=0;exitX=0;exitY=0;exitDx=0;exitDy=0;entryPerimeter=0;" edge="1" parent="WIyWlLk6GJQsqaUBKTNV-1" source="IBwgJd7NMsFbl6GjUIv2-1" target="9VJXzauV7f5AglM0kGEg-23">
          <mxGeometry relative="1" as="geometry">
            <mxPoint x="2630" y="1127" as="sourcePoint" />
            <mxPoint x="2549" y="1179" as="targetPoint" />
          </mxGeometry>
        </mxCell>
        <mxCell id="IBwgJd7NMsFbl6GjUIv2-9" value="" style="resizable=0;html=1;whiteSpace=wrap;align=left;verticalAlign=bottom;" connectable="0" vertex="1" parent="IBwgJd7NMsFbl6GjUIv2-8">
          <mxGeometry x="-1" relative="1" as="geometry">
            <mxPoint x="-20" y="35" as="offset" />
          </mxGeometry>
        </mxCell>
        <mxCell id="IBwgJd7NMsFbl6GjUIv2-10" value="0:n" style="resizable=0;html=1;whiteSpace=wrap;align=right;verticalAlign=bottom;" connectable="0" vertex="1" parent="IBwgJd7NMsFbl6GjUIv2-8">
          <mxGeometry x="1" relative="1" as="geometry">
            <mxPoint x="28" y="2" as="offset" />
          </mxGeometry>
        </mxCell>
      </root>
    </mxGraphModel>
  </diagram>
</mxfile>
